G04 #@! TF.GenerationSoftware,KiCad,Pcbnew,(5.1.4)-1*
G04 #@! TF.CreationDate,2020-04-08T10:51:13+02:00*
G04 #@! TF.ProjectId,PCB_Theremin,5043425f-5468-4657-9265-6d696e2e6b69,rev?*
G04 #@! TF.SameCoordinates,Original*
G04 #@! TF.FileFunction,Copper,L2,Bot*
G04 #@! TF.FilePolarity,Positive*
%FSLAX46Y46*%
G04 Gerber Fmt 4.6, Leading zero omitted, Abs format (unit mm)*
G04 Created by KiCad (PCBNEW (5.1.4)-1) date 2020-04-08 10:51:13*
%MOMM*%
%LPD*%
G04 APERTURE LIST*
%ADD10O,1.700000X1.700000*%
%ADD11R,1.700000X1.700000*%
%ADD12C,1.400000*%
%ADD13C,0.100000*%
%ADD14C,3.500000*%
%ADD15C,3.000000*%
%ADD16R,3.500000X4.000000*%
%ADD17C,3.200000*%
%ADD18C,0.800000*%
%ADD19C,0.500000*%
%ADD20C,0.300000*%
%ADD21C,0.254000*%
G04 APERTURE END LIST*
D10*
X188060000Y-63800000D03*
D11*
X190600000Y-63800000D03*
D12*
X210000000Y-100000000D03*
X56000000Y-100000000D03*
D13*
G36*
X62510765Y-77254213D02*
G01*
X62595704Y-77266813D01*
X62678999Y-77287677D01*
X62759848Y-77316605D01*
X62837472Y-77353319D01*
X62911124Y-77397464D01*
X62980094Y-77448616D01*
X63043718Y-77506282D01*
X63101384Y-77569906D01*
X63152536Y-77638876D01*
X63196681Y-77712528D01*
X63233395Y-77790152D01*
X63262323Y-77871001D01*
X63283187Y-77954296D01*
X63295787Y-78039235D01*
X63300000Y-78125000D01*
X63300000Y-79875000D01*
X63295787Y-79960765D01*
X63283187Y-80045704D01*
X63262323Y-80128999D01*
X63233395Y-80209848D01*
X63196681Y-80287472D01*
X63152536Y-80361124D01*
X63101384Y-80430094D01*
X63043718Y-80493718D01*
X62980094Y-80551384D01*
X62911124Y-80602536D01*
X62837472Y-80646681D01*
X62759848Y-80683395D01*
X62678999Y-80712323D01*
X62595704Y-80733187D01*
X62510765Y-80745787D01*
X62425000Y-80750000D01*
X60175000Y-80750000D01*
X60089235Y-80745787D01*
X60004296Y-80733187D01*
X59921001Y-80712323D01*
X59840152Y-80683395D01*
X59762528Y-80646681D01*
X59688876Y-80602536D01*
X59619906Y-80551384D01*
X59556282Y-80493718D01*
X59498616Y-80430094D01*
X59447464Y-80361124D01*
X59403319Y-80287472D01*
X59366605Y-80209848D01*
X59337677Y-80128999D01*
X59316813Y-80045704D01*
X59304213Y-79960765D01*
X59300000Y-79875000D01*
X59300000Y-78125000D01*
X59304213Y-78039235D01*
X59316813Y-77954296D01*
X59337677Y-77871001D01*
X59366605Y-77790152D01*
X59403319Y-77712528D01*
X59447464Y-77638876D01*
X59498616Y-77569906D01*
X59556282Y-77506282D01*
X59619906Y-77448616D01*
X59688876Y-77397464D01*
X59762528Y-77353319D01*
X59840152Y-77316605D01*
X59921001Y-77287677D01*
X60004296Y-77266813D01*
X60089235Y-77254213D01*
X60175000Y-77250000D01*
X62425000Y-77250000D01*
X62510765Y-77254213D01*
X62510765Y-77254213D01*
G37*
D14*
X61300000Y-79000000D03*
D13*
G36*
X58823513Y-72003611D02*
G01*
X58896318Y-72014411D01*
X58967714Y-72032295D01*
X59037013Y-72057090D01*
X59103548Y-72088559D01*
X59166678Y-72126398D01*
X59225795Y-72170242D01*
X59280330Y-72219670D01*
X59329758Y-72274205D01*
X59373602Y-72333322D01*
X59411441Y-72396452D01*
X59442910Y-72462987D01*
X59467705Y-72532286D01*
X59485589Y-72603682D01*
X59496389Y-72676487D01*
X59500000Y-72750000D01*
X59500000Y-75250000D01*
X59496389Y-75323513D01*
X59485589Y-75396318D01*
X59467705Y-75467714D01*
X59442910Y-75537013D01*
X59411441Y-75603548D01*
X59373602Y-75666678D01*
X59329758Y-75725795D01*
X59280330Y-75780330D01*
X59225795Y-75829758D01*
X59166678Y-75873602D01*
X59103548Y-75911441D01*
X59037013Y-75942910D01*
X58967714Y-75967705D01*
X58896318Y-75985589D01*
X58823513Y-75996389D01*
X58750000Y-76000000D01*
X57250000Y-76000000D01*
X57176487Y-75996389D01*
X57103682Y-75985589D01*
X57032286Y-75967705D01*
X56962987Y-75942910D01*
X56896452Y-75911441D01*
X56833322Y-75873602D01*
X56774205Y-75829758D01*
X56719670Y-75780330D01*
X56670242Y-75725795D01*
X56626398Y-75666678D01*
X56588559Y-75603548D01*
X56557090Y-75537013D01*
X56532295Y-75467714D01*
X56514411Y-75396318D01*
X56503611Y-75323513D01*
X56500000Y-75250000D01*
X56500000Y-72750000D01*
X56503611Y-72676487D01*
X56514411Y-72603682D01*
X56532295Y-72532286D01*
X56557090Y-72462987D01*
X56588559Y-72396452D01*
X56626398Y-72333322D01*
X56670242Y-72274205D01*
X56719670Y-72219670D01*
X56774205Y-72170242D01*
X56833322Y-72126398D01*
X56896452Y-72088559D01*
X56962987Y-72057090D01*
X57032286Y-72032295D01*
X57103682Y-72014411D01*
X57176487Y-72003611D01*
X57250000Y-72000000D01*
X58750000Y-72000000D01*
X58823513Y-72003611D01*
X58823513Y-72003611D01*
G37*
D15*
X58000000Y-74000000D03*
D16*
X64300000Y-74000000D03*
D14*
X105200000Y-117000000D03*
X160700000Y-117000000D03*
D17*
X55000000Y-65000000D03*
X211000000Y-65000000D03*
X211000000Y-115000000D03*
X55000000Y-115000000D03*
D18*
X78000000Y-111000062D03*
X70000000Y-115000000D03*
X63525000Y-108025000D03*
X187000000Y-102500000D03*
X187000000Y-106500000D03*
X84000000Y-65000000D03*
X87000000Y-65000000D03*
X90000000Y-65000000D03*
X93000000Y-65000000D03*
X96000000Y-65000000D03*
X99000000Y-65000000D03*
X99000000Y-67000000D03*
X96000000Y-67000000D03*
X93000000Y-67000000D03*
X93000000Y-69000000D03*
X96000000Y-69000000D03*
X99000000Y-69000000D03*
X99000000Y-71000000D03*
X96000000Y-71000000D03*
X93000000Y-71000000D03*
X93000000Y-73000000D03*
X96000000Y-73000000D03*
X99000000Y-73000000D03*
X99000000Y-75000000D03*
X96000000Y-75000000D03*
X93000000Y-75000000D03*
X93000000Y-77000000D03*
X96000000Y-77000000D03*
X99000000Y-77000000D03*
X99000000Y-79000000D03*
X96000000Y-79000000D03*
X93000000Y-79000000D03*
X90000000Y-79000000D03*
X87000000Y-79000000D03*
X84000000Y-79000000D03*
X84000000Y-81000000D03*
X87000000Y-81000000D03*
X90000000Y-81000000D03*
X93000000Y-81000000D03*
X96000000Y-81000000D03*
X99000000Y-81000000D03*
X85100000Y-115000000D03*
X203000000Y-89000000D03*
X210100000Y-91000000D03*
X210100000Y-80000000D03*
X87500000Y-98100000D03*
X67500000Y-65000000D03*
X87000000Y-109000000D03*
X96000000Y-114999736D03*
X92900000Y-107900000D03*
X69000000Y-85000002D03*
X82500000Y-87000000D03*
X73000000Y-98000000D03*
X78000000Y-107000000D03*
X94500000Y-100500000D03*
X192000000Y-115500000D03*
X195000000Y-98500000D03*
X201449992Y-105450000D03*
X203000000Y-83000016D03*
X84000000Y-63000000D03*
X87000000Y-63000000D03*
X90000000Y-63000000D03*
X93000000Y-63000000D03*
X96000000Y-63000000D03*
X99000000Y-63000000D03*
X78900000Y-95000000D03*
X78900000Y-90900012D03*
X103499989Y-91499989D03*
X110500000Y-91500000D03*
X201100000Y-87600000D03*
X88035000Y-106500000D03*
D19*
X78900000Y-95000000D02*
X78900000Y-90900012D01*
D20*
X110499989Y-91499989D02*
X110500000Y-91500000D01*
D19*
X103499989Y-91499989D02*
X110499989Y-91499989D01*
D20*
X190600000Y-64000000D02*
X191000000Y-64000000D01*
X190600000Y-86500000D02*
X190600000Y-64000000D01*
X201100000Y-87600000D02*
X191700000Y-87600000D01*
X191700000Y-87600000D02*
X190600000Y-86500000D01*
X188000000Y-96000000D02*
X188000000Y-64000000D01*
X181000000Y-103000000D02*
X188000000Y-96000000D01*
X89500000Y-103000000D02*
X181000000Y-103000000D01*
X88035000Y-106500000D02*
X88035000Y-104465000D01*
X88035000Y-104465000D02*
X89500000Y-103000000D01*
D21*
G36*
X100873000Y-71000000D02*
G01*
X100875440Y-71024776D01*
X100882667Y-71048601D01*
X100894403Y-71070557D01*
X100910197Y-71089803D01*
X100929443Y-71105597D01*
X100951399Y-71117333D01*
X100975224Y-71124560D01*
X101000000Y-71127000D01*
X164940953Y-71127000D01*
X164965729Y-71124560D01*
X164989554Y-71117333D01*
X165011510Y-71105597D01*
X165030756Y-71089803D01*
X165046550Y-71070557D01*
X165058286Y-71048601D01*
X165065513Y-71024776D01*
X165067953Y-71000000D01*
X165067953Y-62127000D01*
X213873000Y-62127000D01*
X213873000Y-117873000D01*
X162919897Y-117873000D01*
X162993346Y-117695679D01*
X163085000Y-117234902D01*
X163085000Y-116765098D01*
X162993346Y-116304321D01*
X162813560Y-115870279D01*
X162552550Y-115479651D01*
X162220349Y-115147450D01*
X161829721Y-114886440D01*
X161572443Y-114779872D01*
X208765000Y-114779872D01*
X208765000Y-115220128D01*
X208850890Y-115651925D01*
X209019369Y-116058669D01*
X209263962Y-116424729D01*
X209575271Y-116736038D01*
X209941331Y-116980631D01*
X210348075Y-117149110D01*
X210779872Y-117235000D01*
X211220128Y-117235000D01*
X211651925Y-117149110D01*
X212058669Y-116980631D01*
X212424729Y-116736038D01*
X212736038Y-116424729D01*
X212980631Y-116058669D01*
X213149110Y-115651925D01*
X213235000Y-115220128D01*
X213235000Y-114779872D01*
X213149110Y-114348075D01*
X212980631Y-113941331D01*
X212736038Y-113575271D01*
X212424729Y-113263962D01*
X212058669Y-113019369D01*
X211651925Y-112850890D01*
X211220128Y-112765000D01*
X210779872Y-112765000D01*
X210348075Y-112850890D01*
X209941331Y-113019369D01*
X209575271Y-113263962D01*
X209263962Y-113575271D01*
X209019369Y-113941331D01*
X208850890Y-114348075D01*
X208765000Y-114779872D01*
X161572443Y-114779872D01*
X161395679Y-114706654D01*
X160934902Y-114615000D01*
X160465098Y-114615000D01*
X160004321Y-114706654D01*
X159570279Y-114886440D01*
X159179651Y-115147450D01*
X158847450Y-115479651D01*
X158586440Y-115870279D01*
X158406654Y-116304321D01*
X158315000Y-116765098D01*
X158315000Y-117234902D01*
X158406654Y-117695679D01*
X158480103Y-117873000D01*
X107419897Y-117873000D01*
X107493346Y-117695679D01*
X107585000Y-117234902D01*
X107585000Y-116765098D01*
X107493346Y-116304321D01*
X107313560Y-115870279D01*
X107052550Y-115479651D01*
X106720349Y-115147450D01*
X106329721Y-114886440D01*
X105895679Y-114706654D01*
X105434902Y-114615000D01*
X104965098Y-114615000D01*
X104504321Y-114706654D01*
X104070279Y-114886440D01*
X103679651Y-115147450D01*
X103347450Y-115479651D01*
X103086440Y-115870279D01*
X102906654Y-116304321D01*
X102815000Y-116765098D01*
X102815000Y-117234902D01*
X102906654Y-117695679D01*
X102980103Y-117873000D01*
X52127000Y-117873000D01*
X52127000Y-106398061D01*
X87000000Y-106398061D01*
X87000000Y-106601939D01*
X87039774Y-106801898D01*
X87117795Y-106990256D01*
X87231063Y-107159774D01*
X87375226Y-107303937D01*
X87544744Y-107417205D01*
X87733102Y-107495226D01*
X87933061Y-107535000D01*
X88136939Y-107535000D01*
X88336898Y-107495226D01*
X88525256Y-107417205D01*
X88694774Y-107303937D01*
X88838937Y-107159774D01*
X88952205Y-106990256D01*
X89030226Y-106801898D01*
X89070000Y-106601939D01*
X89070000Y-106398061D01*
X89030226Y-106198102D01*
X88952205Y-106009744D01*
X88838937Y-105840226D01*
X88820000Y-105821289D01*
X88820000Y-104790157D01*
X89825157Y-103785000D01*
X180961447Y-103785000D01*
X181000000Y-103788797D01*
X181038553Y-103785000D01*
X181038561Y-103785000D01*
X181153887Y-103773641D01*
X181301860Y-103728754D01*
X181438233Y-103655862D01*
X181557764Y-103557764D01*
X181582347Y-103527810D01*
X185241643Y-99868514D01*
X208665000Y-99868514D01*
X208665000Y-100131486D01*
X208716304Y-100389405D01*
X208816939Y-100632359D01*
X208963038Y-100851013D01*
X209148987Y-101036962D01*
X209367641Y-101183061D01*
X209610595Y-101283696D01*
X209868514Y-101335000D01*
X210131486Y-101335000D01*
X210389405Y-101283696D01*
X210632359Y-101183061D01*
X210851013Y-101036962D01*
X211036962Y-100851013D01*
X211183061Y-100632359D01*
X211283696Y-100389405D01*
X211335000Y-100131486D01*
X211335000Y-99868514D01*
X211283696Y-99610595D01*
X211183061Y-99367641D01*
X211036962Y-99148987D01*
X210851013Y-98963038D01*
X210632359Y-98816939D01*
X210389405Y-98716304D01*
X210131486Y-98665000D01*
X209868514Y-98665000D01*
X209610595Y-98716304D01*
X209367641Y-98816939D01*
X209148987Y-98963038D01*
X208963038Y-99148987D01*
X208816939Y-99367641D01*
X208716304Y-99610595D01*
X208665000Y-99868514D01*
X185241643Y-99868514D01*
X188527817Y-96582341D01*
X188557764Y-96557764D01*
X188655862Y-96438233D01*
X188728754Y-96301860D01*
X188728754Y-96301859D01*
X188773642Y-96153887D01*
X188781020Y-96078974D01*
X188785000Y-96038561D01*
X188785000Y-96038556D01*
X188788797Y-96000000D01*
X188785000Y-95961445D01*
X188785000Y-65096303D01*
X188889014Y-65040706D01*
X189115134Y-64855134D01*
X189139607Y-64825313D01*
X189160498Y-64894180D01*
X189219463Y-65004494D01*
X189298815Y-65101185D01*
X189395506Y-65180537D01*
X189505820Y-65239502D01*
X189625518Y-65275812D01*
X189750000Y-65288072D01*
X189815001Y-65288072D01*
X189815000Y-86461447D01*
X189811203Y-86500000D01*
X189815000Y-86538553D01*
X189815000Y-86538560D01*
X189826359Y-86653886D01*
X189871246Y-86801859D01*
X189944138Y-86938232D01*
X190042236Y-87057764D01*
X190072190Y-87082347D01*
X191117658Y-88127815D01*
X191142236Y-88157764D01*
X191172184Y-88182342D01*
X191172187Y-88182345D01*
X191201559Y-88206450D01*
X191261767Y-88255862D01*
X191398140Y-88328754D01*
X191546113Y-88373642D01*
X191621026Y-88381020D01*
X191661439Y-88385000D01*
X191661444Y-88385000D01*
X191700000Y-88388797D01*
X191738555Y-88385000D01*
X200421289Y-88385000D01*
X200440226Y-88403937D01*
X200609744Y-88517205D01*
X200798102Y-88595226D01*
X200998061Y-88635000D01*
X201201939Y-88635000D01*
X201401898Y-88595226D01*
X201590256Y-88517205D01*
X201759774Y-88403937D01*
X201903937Y-88259774D01*
X202017205Y-88090256D01*
X202095226Y-87901898D01*
X202135000Y-87701939D01*
X202135000Y-87498061D01*
X202095226Y-87298102D01*
X202017205Y-87109744D01*
X201903937Y-86940226D01*
X201759774Y-86796063D01*
X201590256Y-86682795D01*
X201401898Y-86604774D01*
X201201939Y-86565000D01*
X200998061Y-86565000D01*
X200798102Y-86604774D01*
X200609744Y-86682795D01*
X200440226Y-86796063D01*
X200421289Y-86815000D01*
X192025158Y-86815000D01*
X191385000Y-86174843D01*
X191385000Y-65288072D01*
X191450000Y-65288072D01*
X191574482Y-65275812D01*
X191694180Y-65239502D01*
X191804494Y-65180537D01*
X191901185Y-65101185D01*
X191980537Y-65004494D01*
X192039502Y-64894180D01*
X192074176Y-64779872D01*
X208765000Y-64779872D01*
X208765000Y-65220128D01*
X208850890Y-65651925D01*
X209019369Y-66058669D01*
X209263962Y-66424729D01*
X209575271Y-66736038D01*
X209941331Y-66980631D01*
X210348075Y-67149110D01*
X210779872Y-67235000D01*
X211220128Y-67235000D01*
X211651925Y-67149110D01*
X212058669Y-66980631D01*
X212424729Y-66736038D01*
X212736038Y-66424729D01*
X212980631Y-66058669D01*
X213149110Y-65651925D01*
X213235000Y-65220128D01*
X213235000Y-64779872D01*
X213149110Y-64348075D01*
X212980631Y-63941331D01*
X212736038Y-63575271D01*
X212424729Y-63263962D01*
X212058669Y-63019369D01*
X211651925Y-62850890D01*
X211220128Y-62765000D01*
X210779872Y-62765000D01*
X210348075Y-62850890D01*
X209941331Y-63019369D01*
X209575271Y-63263962D01*
X209263962Y-63575271D01*
X209019369Y-63941331D01*
X208850890Y-64348075D01*
X208765000Y-64779872D01*
X192074176Y-64779872D01*
X192075812Y-64774482D01*
X192088072Y-64650000D01*
X192088072Y-62950000D01*
X192075812Y-62825518D01*
X192039502Y-62705820D01*
X191980537Y-62595506D01*
X191901185Y-62498815D01*
X191804494Y-62419463D01*
X191694180Y-62360498D01*
X191574482Y-62324188D01*
X191450000Y-62311928D01*
X189750000Y-62311928D01*
X189625518Y-62324188D01*
X189505820Y-62360498D01*
X189395506Y-62419463D01*
X189298815Y-62498815D01*
X189219463Y-62595506D01*
X189160498Y-62705820D01*
X189139607Y-62774687D01*
X189115134Y-62744866D01*
X188889014Y-62559294D01*
X188631034Y-62421401D01*
X188351111Y-62336487D01*
X188132950Y-62315000D01*
X187987050Y-62315000D01*
X187768889Y-62336487D01*
X187488966Y-62421401D01*
X187230986Y-62559294D01*
X187004866Y-62744866D01*
X186819294Y-62970986D01*
X186681401Y-63228966D01*
X186596487Y-63508889D01*
X186567815Y-63800000D01*
X186596487Y-64091111D01*
X186681401Y-64371034D01*
X186819294Y-64629014D01*
X187004866Y-64855134D01*
X187215001Y-65027587D01*
X187215000Y-95674842D01*
X180674843Y-102215000D01*
X89538556Y-102215000D01*
X89500000Y-102211203D01*
X89461444Y-102215000D01*
X89461439Y-102215000D01*
X89421026Y-102218980D01*
X89346113Y-102226358D01*
X89198140Y-102271246D01*
X89061767Y-102344138D01*
X88942236Y-102442236D01*
X88917655Y-102472188D01*
X87507185Y-103882658D01*
X87477237Y-103907236D01*
X87452659Y-103937184D01*
X87452655Y-103937188D01*
X87419690Y-103977356D01*
X87379139Y-104026767D01*
X87340177Y-104099660D01*
X87306246Y-104163141D01*
X87261359Y-104311114D01*
X87246203Y-104465000D01*
X87250001Y-104503563D01*
X87250000Y-105821289D01*
X87231063Y-105840226D01*
X87117795Y-106009744D01*
X87039774Y-106198102D01*
X87000000Y-106398061D01*
X52127000Y-106398061D01*
X52127000Y-99868514D01*
X54665000Y-99868514D01*
X54665000Y-100131486D01*
X54716304Y-100389405D01*
X54816939Y-100632359D01*
X54963038Y-100851013D01*
X55148987Y-101036962D01*
X55367641Y-101183061D01*
X55610595Y-101283696D01*
X55868514Y-101335000D01*
X56131486Y-101335000D01*
X56389405Y-101283696D01*
X56632359Y-101183061D01*
X56851013Y-101036962D01*
X57036962Y-100851013D01*
X57183061Y-100632359D01*
X57283696Y-100389405D01*
X57335000Y-100131486D01*
X57335000Y-99868514D01*
X57283696Y-99610595D01*
X57183061Y-99367641D01*
X57036962Y-99148987D01*
X56851013Y-98963038D01*
X56632359Y-98816939D01*
X56389405Y-98716304D01*
X56131486Y-98665000D01*
X55868514Y-98665000D01*
X55610595Y-98716304D01*
X55367641Y-98816939D01*
X55148987Y-98963038D01*
X54963038Y-99148987D01*
X54816939Y-99367641D01*
X54716304Y-99610595D01*
X54665000Y-99868514D01*
X52127000Y-99868514D01*
X52127000Y-90798073D01*
X77865000Y-90798073D01*
X77865000Y-91001951D01*
X77904774Y-91201910D01*
X77982795Y-91390268D01*
X78015001Y-91438468D01*
X78015000Y-94461545D01*
X77982795Y-94509744D01*
X77904774Y-94698102D01*
X77865000Y-94898061D01*
X77865000Y-95101939D01*
X77904774Y-95301898D01*
X77982795Y-95490256D01*
X78096063Y-95659774D01*
X78240226Y-95803937D01*
X78409744Y-95917205D01*
X78598102Y-95995226D01*
X78798061Y-96035000D01*
X79001939Y-96035000D01*
X79201898Y-95995226D01*
X79390256Y-95917205D01*
X79559774Y-95803937D01*
X79703937Y-95659774D01*
X79817205Y-95490256D01*
X79895226Y-95301898D01*
X79935000Y-95101939D01*
X79935000Y-94898061D01*
X79895226Y-94698102D01*
X79817205Y-94509744D01*
X79785000Y-94461546D01*
X79785000Y-91438466D01*
X79812005Y-91398050D01*
X102464989Y-91398050D01*
X102464989Y-91601928D01*
X102504763Y-91801887D01*
X102582784Y-91990245D01*
X102696052Y-92159763D01*
X102840215Y-92303926D01*
X103009733Y-92417194D01*
X103198091Y-92495215D01*
X103398050Y-92534989D01*
X103601928Y-92534989D01*
X103801887Y-92495215D01*
X103990245Y-92417194D01*
X104038443Y-92384989D01*
X109961529Y-92384989D01*
X110009744Y-92417205D01*
X110198102Y-92495226D01*
X110398061Y-92535000D01*
X110601939Y-92535000D01*
X110801898Y-92495226D01*
X110990256Y-92417205D01*
X111159774Y-92303937D01*
X111303937Y-92159774D01*
X111417205Y-91990256D01*
X111495226Y-91801898D01*
X111535000Y-91601939D01*
X111535000Y-91398061D01*
X111495226Y-91198102D01*
X111417205Y-91009744D01*
X111303937Y-90840226D01*
X111159774Y-90696063D01*
X110990256Y-90582795D01*
X110801898Y-90504774D01*
X110601939Y-90465000D01*
X110398061Y-90465000D01*
X110198102Y-90504774D01*
X110009744Y-90582795D01*
X109961562Y-90614989D01*
X104038443Y-90614989D01*
X103990245Y-90582784D01*
X103801887Y-90504763D01*
X103601928Y-90464989D01*
X103398050Y-90464989D01*
X103198091Y-90504763D01*
X103009733Y-90582784D01*
X102840215Y-90696052D01*
X102696052Y-90840215D01*
X102582784Y-91009733D01*
X102504763Y-91198091D01*
X102464989Y-91398050D01*
X79812005Y-91398050D01*
X79817205Y-91390268D01*
X79895226Y-91201910D01*
X79935000Y-91001951D01*
X79935000Y-90798073D01*
X79895226Y-90598114D01*
X79817205Y-90409756D01*
X79703937Y-90240238D01*
X79559774Y-90096075D01*
X79390256Y-89982807D01*
X79201898Y-89904786D01*
X79001939Y-89865012D01*
X78798061Y-89865012D01*
X78598102Y-89904786D01*
X78409744Y-89982807D01*
X78240226Y-90096075D01*
X78096063Y-90240238D01*
X77982795Y-90409756D01*
X77904774Y-90598114D01*
X77865000Y-90798073D01*
X52127000Y-90798073D01*
X52127000Y-78125000D01*
X58661928Y-78125000D01*
X58661928Y-79875000D01*
X58691001Y-80170186D01*
X58777104Y-80454028D01*
X58916927Y-80715618D01*
X59105097Y-80944903D01*
X59334382Y-81133073D01*
X59595972Y-81272896D01*
X59879814Y-81358999D01*
X60175000Y-81388072D01*
X62425000Y-81388072D01*
X62720186Y-81358999D01*
X63004028Y-81272896D01*
X63265618Y-81133073D01*
X63494903Y-80944903D01*
X63683073Y-80715618D01*
X63822896Y-80454028D01*
X63908999Y-80170186D01*
X63938072Y-79875000D01*
X63938072Y-78125000D01*
X63908999Y-77829814D01*
X63822896Y-77545972D01*
X63683073Y-77284382D01*
X63494903Y-77055097D01*
X63265618Y-76866927D01*
X63004028Y-76727104D01*
X62720186Y-76641001D01*
X62690447Y-76638072D01*
X66050000Y-76638072D01*
X66174482Y-76625812D01*
X66294180Y-76589502D01*
X66404494Y-76530537D01*
X66501185Y-76451185D01*
X66580537Y-76354494D01*
X66639502Y-76244180D01*
X66675812Y-76124482D01*
X66688072Y-76000000D01*
X66688072Y-72000000D01*
X66675812Y-71875518D01*
X66639502Y-71755820D01*
X66580537Y-71645506D01*
X66501185Y-71548815D01*
X66404494Y-71469463D01*
X66294180Y-71410498D01*
X66174482Y-71374188D01*
X66050000Y-71361928D01*
X62550000Y-71361928D01*
X62425518Y-71374188D01*
X62305820Y-71410498D01*
X62195506Y-71469463D01*
X62098815Y-71548815D01*
X62019463Y-71645506D01*
X61960498Y-71755820D01*
X61924188Y-71875518D01*
X61911928Y-72000000D01*
X61911928Y-76000000D01*
X61924188Y-76124482D01*
X61960498Y-76244180D01*
X62019463Y-76354494D01*
X62098815Y-76451185D01*
X62195506Y-76530537D01*
X62305820Y-76589502D01*
X62379749Y-76611928D01*
X60175000Y-76611928D01*
X59879814Y-76641001D01*
X59595972Y-76727104D01*
X59334382Y-76866927D01*
X59105097Y-77055097D01*
X58916927Y-77284382D01*
X58777104Y-77545972D01*
X58691001Y-77829814D01*
X58661928Y-78125000D01*
X52127000Y-78125000D01*
X52127000Y-76000000D01*
X55861928Y-76000000D01*
X55874188Y-76124482D01*
X55910498Y-76244180D01*
X55969463Y-76354494D01*
X56048815Y-76451185D01*
X56145506Y-76530537D01*
X56255820Y-76589502D01*
X56375518Y-76625812D01*
X56500000Y-76638072D01*
X57714250Y-76635000D01*
X57873000Y-76476250D01*
X57873000Y-74127000D01*
X58127000Y-74127000D01*
X58127000Y-76476250D01*
X58285750Y-76635000D01*
X59500000Y-76638072D01*
X59624482Y-76625812D01*
X59744180Y-76589502D01*
X59854494Y-76530537D01*
X59951185Y-76451185D01*
X60030537Y-76354494D01*
X60089502Y-76244180D01*
X60125812Y-76124482D01*
X60138072Y-76000000D01*
X60135000Y-74285750D01*
X59976250Y-74127000D01*
X58127000Y-74127000D01*
X57873000Y-74127000D01*
X56023750Y-74127000D01*
X55865000Y-74285750D01*
X55861928Y-76000000D01*
X52127000Y-76000000D01*
X52127000Y-72000000D01*
X55861928Y-72000000D01*
X55865000Y-73714250D01*
X56023750Y-73873000D01*
X57873000Y-73873000D01*
X57873000Y-71523750D01*
X58127000Y-71523750D01*
X58127000Y-73873000D01*
X59976250Y-73873000D01*
X60135000Y-73714250D01*
X60138072Y-72000000D01*
X60125812Y-71875518D01*
X60089502Y-71755820D01*
X60030537Y-71645506D01*
X59951185Y-71548815D01*
X59854494Y-71469463D01*
X59744180Y-71410498D01*
X59624482Y-71374188D01*
X59500000Y-71361928D01*
X58285750Y-71365000D01*
X58127000Y-71523750D01*
X57873000Y-71523750D01*
X57714250Y-71365000D01*
X56500000Y-71361928D01*
X56375518Y-71374188D01*
X56255820Y-71410498D01*
X56145506Y-71469463D01*
X56048815Y-71548815D01*
X55969463Y-71645506D01*
X55910498Y-71755820D01*
X55874188Y-71875518D01*
X55861928Y-72000000D01*
X52127000Y-72000000D01*
X52127000Y-64779872D01*
X52765000Y-64779872D01*
X52765000Y-65220128D01*
X52850890Y-65651925D01*
X53019369Y-66058669D01*
X53263962Y-66424729D01*
X53575271Y-66736038D01*
X53941331Y-66980631D01*
X54348075Y-67149110D01*
X54779872Y-67235000D01*
X55220128Y-67235000D01*
X55651925Y-67149110D01*
X56058669Y-66980631D01*
X56424729Y-66736038D01*
X56736038Y-66424729D01*
X56980631Y-66058669D01*
X57149110Y-65651925D01*
X57235000Y-65220128D01*
X57235000Y-64779872D01*
X57149110Y-64348075D01*
X56980631Y-63941331D01*
X56736038Y-63575271D01*
X56424729Y-63263962D01*
X56058669Y-63019369D01*
X55651925Y-62850890D01*
X55220128Y-62765000D01*
X54779872Y-62765000D01*
X54348075Y-62850890D01*
X53941331Y-63019369D01*
X53575271Y-63263962D01*
X53263962Y-63575271D01*
X53019369Y-63941331D01*
X52850890Y-64348075D01*
X52765000Y-64779872D01*
X52127000Y-64779872D01*
X52127000Y-62127000D01*
X100873000Y-62127000D01*
X100873000Y-71000000D01*
X100873000Y-71000000D01*
G37*
X100873000Y-71000000D02*
X100875440Y-71024776D01*
X100882667Y-71048601D01*
X100894403Y-71070557D01*
X100910197Y-71089803D01*
X100929443Y-71105597D01*
X100951399Y-71117333D01*
X100975224Y-71124560D01*
X101000000Y-71127000D01*
X164940953Y-71127000D01*
X164965729Y-71124560D01*
X164989554Y-71117333D01*
X165011510Y-71105597D01*
X165030756Y-71089803D01*
X165046550Y-71070557D01*
X165058286Y-71048601D01*
X165065513Y-71024776D01*
X165067953Y-71000000D01*
X165067953Y-62127000D01*
X213873000Y-62127000D01*
X213873000Y-117873000D01*
X162919897Y-117873000D01*
X162993346Y-117695679D01*
X163085000Y-117234902D01*
X163085000Y-116765098D01*
X162993346Y-116304321D01*
X162813560Y-115870279D01*
X162552550Y-115479651D01*
X162220349Y-115147450D01*
X161829721Y-114886440D01*
X161572443Y-114779872D01*
X208765000Y-114779872D01*
X208765000Y-115220128D01*
X208850890Y-115651925D01*
X209019369Y-116058669D01*
X209263962Y-116424729D01*
X209575271Y-116736038D01*
X209941331Y-116980631D01*
X210348075Y-117149110D01*
X210779872Y-117235000D01*
X211220128Y-117235000D01*
X211651925Y-117149110D01*
X212058669Y-116980631D01*
X212424729Y-116736038D01*
X212736038Y-116424729D01*
X212980631Y-116058669D01*
X213149110Y-115651925D01*
X213235000Y-115220128D01*
X213235000Y-114779872D01*
X213149110Y-114348075D01*
X212980631Y-113941331D01*
X212736038Y-113575271D01*
X212424729Y-113263962D01*
X212058669Y-113019369D01*
X211651925Y-112850890D01*
X211220128Y-112765000D01*
X210779872Y-112765000D01*
X210348075Y-112850890D01*
X209941331Y-113019369D01*
X209575271Y-113263962D01*
X209263962Y-113575271D01*
X209019369Y-113941331D01*
X208850890Y-114348075D01*
X208765000Y-114779872D01*
X161572443Y-114779872D01*
X161395679Y-114706654D01*
X160934902Y-114615000D01*
X160465098Y-114615000D01*
X160004321Y-114706654D01*
X159570279Y-114886440D01*
X159179651Y-115147450D01*
X158847450Y-115479651D01*
X158586440Y-115870279D01*
X158406654Y-116304321D01*
X158315000Y-116765098D01*
X158315000Y-117234902D01*
X158406654Y-117695679D01*
X158480103Y-117873000D01*
X107419897Y-117873000D01*
X107493346Y-117695679D01*
X107585000Y-117234902D01*
X107585000Y-116765098D01*
X107493346Y-116304321D01*
X107313560Y-115870279D01*
X107052550Y-115479651D01*
X106720349Y-115147450D01*
X106329721Y-114886440D01*
X105895679Y-114706654D01*
X105434902Y-114615000D01*
X104965098Y-114615000D01*
X104504321Y-114706654D01*
X104070279Y-114886440D01*
X103679651Y-115147450D01*
X103347450Y-115479651D01*
X103086440Y-115870279D01*
X102906654Y-116304321D01*
X102815000Y-116765098D01*
X102815000Y-117234902D01*
X102906654Y-117695679D01*
X102980103Y-117873000D01*
X52127000Y-117873000D01*
X52127000Y-106398061D01*
X87000000Y-106398061D01*
X87000000Y-106601939D01*
X87039774Y-106801898D01*
X87117795Y-106990256D01*
X87231063Y-107159774D01*
X87375226Y-107303937D01*
X87544744Y-107417205D01*
X87733102Y-107495226D01*
X87933061Y-107535000D01*
X88136939Y-107535000D01*
X88336898Y-107495226D01*
X88525256Y-107417205D01*
X88694774Y-107303937D01*
X88838937Y-107159774D01*
X88952205Y-106990256D01*
X89030226Y-106801898D01*
X89070000Y-106601939D01*
X89070000Y-106398061D01*
X89030226Y-106198102D01*
X88952205Y-106009744D01*
X88838937Y-105840226D01*
X88820000Y-105821289D01*
X88820000Y-104790157D01*
X89825157Y-103785000D01*
X180961447Y-103785000D01*
X181000000Y-103788797D01*
X181038553Y-103785000D01*
X181038561Y-103785000D01*
X181153887Y-103773641D01*
X181301860Y-103728754D01*
X181438233Y-103655862D01*
X181557764Y-103557764D01*
X181582347Y-103527810D01*
X185241643Y-99868514D01*
X208665000Y-99868514D01*
X208665000Y-100131486D01*
X208716304Y-100389405D01*
X208816939Y-100632359D01*
X208963038Y-100851013D01*
X209148987Y-101036962D01*
X209367641Y-101183061D01*
X209610595Y-101283696D01*
X209868514Y-101335000D01*
X210131486Y-101335000D01*
X210389405Y-101283696D01*
X210632359Y-101183061D01*
X210851013Y-101036962D01*
X211036962Y-100851013D01*
X211183061Y-100632359D01*
X211283696Y-100389405D01*
X211335000Y-100131486D01*
X211335000Y-99868514D01*
X211283696Y-99610595D01*
X211183061Y-99367641D01*
X211036962Y-99148987D01*
X210851013Y-98963038D01*
X210632359Y-98816939D01*
X210389405Y-98716304D01*
X210131486Y-98665000D01*
X209868514Y-98665000D01*
X209610595Y-98716304D01*
X209367641Y-98816939D01*
X209148987Y-98963038D01*
X208963038Y-99148987D01*
X208816939Y-99367641D01*
X208716304Y-99610595D01*
X208665000Y-99868514D01*
X185241643Y-99868514D01*
X188527817Y-96582341D01*
X188557764Y-96557764D01*
X188655862Y-96438233D01*
X188728754Y-96301860D01*
X188728754Y-96301859D01*
X188773642Y-96153887D01*
X188781020Y-96078974D01*
X188785000Y-96038561D01*
X188785000Y-96038556D01*
X188788797Y-96000000D01*
X188785000Y-95961445D01*
X188785000Y-65096303D01*
X188889014Y-65040706D01*
X189115134Y-64855134D01*
X189139607Y-64825313D01*
X189160498Y-64894180D01*
X189219463Y-65004494D01*
X189298815Y-65101185D01*
X189395506Y-65180537D01*
X189505820Y-65239502D01*
X189625518Y-65275812D01*
X189750000Y-65288072D01*
X189815001Y-65288072D01*
X189815000Y-86461447D01*
X189811203Y-86500000D01*
X189815000Y-86538553D01*
X189815000Y-86538560D01*
X189826359Y-86653886D01*
X189871246Y-86801859D01*
X189944138Y-86938232D01*
X190042236Y-87057764D01*
X190072190Y-87082347D01*
X191117658Y-88127815D01*
X191142236Y-88157764D01*
X191172184Y-88182342D01*
X191172187Y-88182345D01*
X191201559Y-88206450D01*
X191261767Y-88255862D01*
X191398140Y-88328754D01*
X191546113Y-88373642D01*
X191621026Y-88381020D01*
X191661439Y-88385000D01*
X191661444Y-88385000D01*
X191700000Y-88388797D01*
X191738555Y-88385000D01*
X200421289Y-88385000D01*
X200440226Y-88403937D01*
X200609744Y-88517205D01*
X200798102Y-88595226D01*
X200998061Y-88635000D01*
X201201939Y-88635000D01*
X201401898Y-88595226D01*
X201590256Y-88517205D01*
X201759774Y-88403937D01*
X201903937Y-88259774D01*
X202017205Y-88090256D01*
X202095226Y-87901898D01*
X202135000Y-87701939D01*
X202135000Y-87498061D01*
X202095226Y-87298102D01*
X202017205Y-87109744D01*
X201903937Y-86940226D01*
X201759774Y-86796063D01*
X201590256Y-86682795D01*
X201401898Y-86604774D01*
X201201939Y-86565000D01*
X200998061Y-86565000D01*
X200798102Y-86604774D01*
X200609744Y-86682795D01*
X200440226Y-86796063D01*
X200421289Y-86815000D01*
X192025158Y-86815000D01*
X191385000Y-86174843D01*
X191385000Y-65288072D01*
X191450000Y-65288072D01*
X191574482Y-65275812D01*
X191694180Y-65239502D01*
X191804494Y-65180537D01*
X191901185Y-65101185D01*
X191980537Y-65004494D01*
X192039502Y-64894180D01*
X192074176Y-64779872D01*
X208765000Y-64779872D01*
X208765000Y-65220128D01*
X208850890Y-65651925D01*
X209019369Y-66058669D01*
X209263962Y-66424729D01*
X209575271Y-66736038D01*
X209941331Y-66980631D01*
X210348075Y-67149110D01*
X210779872Y-67235000D01*
X211220128Y-67235000D01*
X211651925Y-67149110D01*
X212058669Y-66980631D01*
X212424729Y-66736038D01*
X212736038Y-66424729D01*
X212980631Y-66058669D01*
X213149110Y-65651925D01*
X213235000Y-65220128D01*
X213235000Y-64779872D01*
X213149110Y-64348075D01*
X212980631Y-63941331D01*
X212736038Y-63575271D01*
X212424729Y-63263962D01*
X212058669Y-63019369D01*
X211651925Y-62850890D01*
X211220128Y-62765000D01*
X210779872Y-62765000D01*
X210348075Y-62850890D01*
X209941331Y-63019369D01*
X209575271Y-63263962D01*
X209263962Y-63575271D01*
X209019369Y-63941331D01*
X208850890Y-64348075D01*
X208765000Y-64779872D01*
X192074176Y-64779872D01*
X192075812Y-64774482D01*
X192088072Y-64650000D01*
X192088072Y-62950000D01*
X192075812Y-62825518D01*
X192039502Y-62705820D01*
X191980537Y-62595506D01*
X191901185Y-62498815D01*
X191804494Y-62419463D01*
X191694180Y-62360498D01*
X191574482Y-62324188D01*
X191450000Y-62311928D01*
X189750000Y-62311928D01*
X189625518Y-62324188D01*
X189505820Y-62360498D01*
X189395506Y-62419463D01*
X189298815Y-62498815D01*
X189219463Y-62595506D01*
X189160498Y-62705820D01*
X189139607Y-62774687D01*
X189115134Y-62744866D01*
X188889014Y-62559294D01*
X188631034Y-62421401D01*
X188351111Y-62336487D01*
X188132950Y-62315000D01*
X187987050Y-62315000D01*
X187768889Y-62336487D01*
X187488966Y-62421401D01*
X187230986Y-62559294D01*
X187004866Y-62744866D01*
X186819294Y-62970986D01*
X186681401Y-63228966D01*
X186596487Y-63508889D01*
X186567815Y-63800000D01*
X186596487Y-64091111D01*
X186681401Y-64371034D01*
X186819294Y-64629014D01*
X187004866Y-64855134D01*
X187215001Y-65027587D01*
X187215000Y-95674842D01*
X180674843Y-102215000D01*
X89538556Y-102215000D01*
X89500000Y-102211203D01*
X89461444Y-102215000D01*
X89461439Y-102215000D01*
X89421026Y-102218980D01*
X89346113Y-102226358D01*
X89198140Y-102271246D01*
X89061767Y-102344138D01*
X88942236Y-102442236D01*
X88917655Y-102472188D01*
X87507185Y-103882658D01*
X87477237Y-103907236D01*
X87452659Y-103937184D01*
X87452655Y-103937188D01*
X87419690Y-103977356D01*
X87379139Y-104026767D01*
X87340177Y-104099660D01*
X87306246Y-104163141D01*
X87261359Y-104311114D01*
X87246203Y-104465000D01*
X87250001Y-104503563D01*
X87250000Y-105821289D01*
X87231063Y-105840226D01*
X87117795Y-106009744D01*
X87039774Y-106198102D01*
X87000000Y-106398061D01*
X52127000Y-106398061D01*
X52127000Y-99868514D01*
X54665000Y-99868514D01*
X54665000Y-100131486D01*
X54716304Y-100389405D01*
X54816939Y-100632359D01*
X54963038Y-100851013D01*
X55148987Y-101036962D01*
X55367641Y-101183061D01*
X55610595Y-101283696D01*
X55868514Y-101335000D01*
X56131486Y-101335000D01*
X56389405Y-101283696D01*
X56632359Y-101183061D01*
X56851013Y-101036962D01*
X57036962Y-100851013D01*
X57183061Y-100632359D01*
X57283696Y-100389405D01*
X57335000Y-100131486D01*
X57335000Y-99868514D01*
X57283696Y-99610595D01*
X57183061Y-99367641D01*
X57036962Y-99148987D01*
X56851013Y-98963038D01*
X56632359Y-98816939D01*
X56389405Y-98716304D01*
X56131486Y-98665000D01*
X55868514Y-98665000D01*
X55610595Y-98716304D01*
X55367641Y-98816939D01*
X55148987Y-98963038D01*
X54963038Y-99148987D01*
X54816939Y-99367641D01*
X54716304Y-99610595D01*
X54665000Y-99868514D01*
X52127000Y-99868514D01*
X52127000Y-90798073D01*
X77865000Y-90798073D01*
X77865000Y-91001951D01*
X77904774Y-91201910D01*
X77982795Y-91390268D01*
X78015001Y-91438468D01*
X78015000Y-94461545D01*
X77982795Y-94509744D01*
X77904774Y-94698102D01*
X77865000Y-94898061D01*
X77865000Y-95101939D01*
X77904774Y-95301898D01*
X77982795Y-95490256D01*
X78096063Y-95659774D01*
X78240226Y-95803937D01*
X78409744Y-95917205D01*
X78598102Y-95995226D01*
X78798061Y-96035000D01*
X79001939Y-96035000D01*
X79201898Y-95995226D01*
X79390256Y-95917205D01*
X79559774Y-95803937D01*
X79703937Y-95659774D01*
X79817205Y-95490256D01*
X79895226Y-95301898D01*
X79935000Y-95101939D01*
X79935000Y-94898061D01*
X79895226Y-94698102D01*
X79817205Y-94509744D01*
X79785000Y-94461546D01*
X79785000Y-91438466D01*
X79812005Y-91398050D01*
X102464989Y-91398050D01*
X102464989Y-91601928D01*
X102504763Y-91801887D01*
X102582784Y-91990245D01*
X102696052Y-92159763D01*
X102840215Y-92303926D01*
X103009733Y-92417194D01*
X103198091Y-92495215D01*
X103398050Y-92534989D01*
X103601928Y-92534989D01*
X103801887Y-92495215D01*
X103990245Y-92417194D01*
X104038443Y-92384989D01*
X109961529Y-92384989D01*
X110009744Y-92417205D01*
X110198102Y-92495226D01*
X110398061Y-92535000D01*
X110601939Y-92535000D01*
X110801898Y-92495226D01*
X110990256Y-92417205D01*
X111159774Y-92303937D01*
X111303937Y-92159774D01*
X111417205Y-91990256D01*
X111495226Y-91801898D01*
X111535000Y-91601939D01*
X111535000Y-91398061D01*
X111495226Y-91198102D01*
X111417205Y-91009744D01*
X111303937Y-90840226D01*
X111159774Y-90696063D01*
X110990256Y-90582795D01*
X110801898Y-90504774D01*
X110601939Y-90465000D01*
X110398061Y-90465000D01*
X110198102Y-90504774D01*
X110009744Y-90582795D01*
X109961562Y-90614989D01*
X104038443Y-90614989D01*
X103990245Y-90582784D01*
X103801887Y-90504763D01*
X103601928Y-90464989D01*
X103398050Y-90464989D01*
X103198091Y-90504763D01*
X103009733Y-90582784D01*
X102840215Y-90696052D01*
X102696052Y-90840215D01*
X102582784Y-91009733D01*
X102504763Y-91198091D01*
X102464989Y-91398050D01*
X79812005Y-91398050D01*
X79817205Y-91390268D01*
X79895226Y-91201910D01*
X79935000Y-91001951D01*
X79935000Y-90798073D01*
X79895226Y-90598114D01*
X79817205Y-90409756D01*
X79703937Y-90240238D01*
X79559774Y-90096075D01*
X79390256Y-89982807D01*
X79201898Y-89904786D01*
X79001939Y-89865012D01*
X78798061Y-89865012D01*
X78598102Y-89904786D01*
X78409744Y-89982807D01*
X78240226Y-90096075D01*
X78096063Y-90240238D01*
X77982795Y-90409756D01*
X77904774Y-90598114D01*
X77865000Y-90798073D01*
X52127000Y-90798073D01*
X52127000Y-78125000D01*
X58661928Y-78125000D01*
X58661928Y-79875000D01*
X58691001Y-80170186D01*
X58777104Y-80454028D01*
X58916927Y-80715618D01*
X59105097Y-80944903D01*
X59334382Y-81133073D01*
X59595972Y-81272896D01*
X59879814Y-81358999D01*
X60175000Y-81388072D01*
X62425000Y-81388072D01*
X62720186Y-81358999D01*
X63004028Y-81272896D01*
X63265618Y-81133073D01*
X63494903Y-80944903D01*
X63683073Y-80715618D01*
X63822896Y-80454028D01*
X63908999Y-80170186D01*
X63938072Y-79875000D01*
X63938072Y-78125000D01*
X63908999Y-77829814D01*
X63822896Y-77545972D01*
X63683073Y-77284382D01*
X63494903Y-77055097D01*
X63265618Y-76866927D01*
X63004028Y-76727104D01*
X62720186Y-76641001D01*
X62690447Y-76638072D01*
X66050000Y-76638072D01*
X66174482Y-76625812D01*
X66294180Y-76589502D01*
X66404494Y-76530537D01*
X66501185Y-76451185D01*
X66580537Y-76354494D01*
X66639502Y-76244180D01*
X66675812Y-76124482D01*
X66688072Y-76000000D01*
X66688072Y-72000000D01*
X66675812Y-71875518D01*
X66639502Y-71755820D01*
X66580537Y-71645506D01*
X66501185Y-71548815D01*
X66404494Y-71469463D01*
X66294180Y-71410498D01*
X66174482Y-71374188D01*
X66050000Y-71361928D01*
X62550000Y-71361928D01*
X62425518Y-71374188D01*
X62305820Y-71410498D01*
X62195506Y-71469463D01*
X62098815Y-71548815D01*
X62019463Y-71645506D01*
X61960498Y-71755820D01*
X61924188Y-71875518D01*
X61911928Y-72000000D01*
X61911928Y-76000000D01*
X61924188Y-76124482D01*
X61960498Y-76244180D01*
X62019463Y-76354494D01*
X62098815Y-76451185D01*
X62195506Y-76530537D01*
X62305820Y-76589502D01*
X62379749Y-76611928D01*
X60175000Y-76611928D01*
X59879814Y-76641001D01*
X59595972Y-76727104D01*
X59334382Y-76866927D01*
X59105097Y-77055097D01*
X58916927Y-77284382D01*
X58777104Y-77545972D01*
X58691001Y-77829814D01*
X58661928Y-78125000D01*
X52127000Y-78125000D01*
X52127000Y-76000000D01*
X55861928Y-76000000D01*
X55874188Y-76124482D01*
X55910498Y-76244180D01*
X55969463Y-76354494D01*
X56048815Y-76451185D01*
X56145506Y-76530537D01*
X56255820Y-76589502D01*
X56375518Y-76625812D01*
X56500000Y-76638072D01*
X57714250Y-76635000D01*
X57873000Y-76476250D01*
X57873000Y-74127000D01*
X58127000Y-74127000D01*
X58127000Y-76476250D01*
X58285750Y-76635000D01*
X59500000Y-76638072D01*
X59624482Y-76625812D01*
X59744180Y-76589502D01*
X59854494Y-76530537D01*
X59951185Y-76451185D01*
X60030537Y-76354494D01*
X60089502Y-76244180D01*
X60125812Y-76124482D01*
X60138072Y-76000000D01*
X60135000Y-74285750D01*
X59976250Y-74127000D01*
X58127000Y-74127000D01*
X57873000Y-74127000D01*
X56023750Y-74127000D01*
X55865000Y-74285750D01*
X55861928Y-76000000D01*
X52127000Y-76000000D01*
X52127000Y-72000000D01*
X55861928Y-72000000D01*
X55865000Y-73714250D01*
X56023750Y-73873000D01*
X57873000Y-73873000D01*
X57873000Y-71523750D01*
X58127000Y-71523750D01*
X58127000Y-73873000D01*
X59976250Y-73873000D01*
X60135000Y-73714250D01*
X60138072Y-72000000D01*
X60125812Y-71875518D01*
X60089502Y-71755820D01*
X60030537Y-71645506D01*
X59951185Y-71548815D01*
X59854494Y-71469463D01*
X59744180Y-71410498D01*
X59624482Y-71374188D01*
X59500000Y-71361928D01*
X58285750Y-71365000D01*
X58127000Y-71523750D01*
X57873000Y-71523750D01*
X57714250Y-71365000D01*
X56500000Y-71361928D01*
X56375518Y-71374188D01*
X56255820Y-71410498D01*
X56145506Y-71469463D01*
X56048815Y-71548815D01*
X55969463Y-71645506D01*
X55910498Y-71755820D01*
X55874188Y-71875518D01*
X55861928Y-72000000D01*
X52127000Y-72000000D01*
X52127000Y-64779872D01*
X52765000Y-64779872D01*
X52765000Y-65220128D01*
X52850890Y-65651925D01*
X53019369Y-66058669D01*
X53263962Y-66424729D01*
X53575271Y-66736038D01*
X53941331Y-66980631D01*
X54348075Y-67149110D01*
X54779872Y-67235000D01*
X55220128Y-67235000D01*
X55651925Y-67149110D01*
X56058669Y-66980631D01*
X56424729Y-66736038D01*
X56736038Y-66424729D01*
X56980631Y-66058669D01*
X57149110Y-65651925D01*
X57235000Y-65220128D01*
X57235000Y-64779872D01*
X57149110Y-64348075D01*
X56980631Y-63941331D01*
X56736038Y-63575271D01*
X56424729Y-63263962D01*
X56058669Y-63019369D01*
X55651925Y-62850890D01*
X55220128Y-62765000D01*
X54779872Y-62765000D01*
X54348075Y-62850890D01*
X53941331Y-63019369D01*
X53575271Y-63263962D01*
X53263962Y-63575271D01*
X53019369Y-63941331D01*
X52850890Y-64348075D01*
X52765000Y-64779872D01*
X52127000Y-64779872D01*
X52127000Y-62127000D01*
X100873000Y-62127000D01*
X100873000Y-71000000D01*
M02*
