G04 #@! TF.GenerationSoftware,KiCad,Pcbnew,(5.1.4)-1*
G04 #@! TF.CreationDate,2020-04-08T10:51:14+02:00*
G04 #@! TF.ProjectId,PCB_Theremin,5043425f-5468-4657-9265-6d696e2e6b69,rev?*
G04 #@! TF.SameCoordinates,Original*
G04 #@! TF.FileFunction,Soldermask,Bot*
G04 #@! TF.FilePolarity,Negative*
%FSLAX46Y46*%
G04 Gerber Fmt 4.6, Leading zero omitted, Abs format (unit mm)*
G04 Created by KiCad (PCBNEW (5.1.4)-1) date 2020-04-08 10:51:14*
%MOMM*%
%LPD*%
G04 APERTURE LIST*
%ADD10C,0.100000*%
G04 APERTURE END LIST*
D10*
G36*
X210219059Y-99277860D02*
G01*
X210355732Y-99334472D01*
X210478735Y-99416660D01*
X210583340Y-99521265D01*
X210665528Y-99644268D01*
X210722140Y-99780941D01*
X210751000Y-99926033D01*
X210751000Y-100073967D01*
X210722140Y-100219059D01*
X210665528Y-100355732D01*
X210583340Y-100478735D01*
X210478735Y-100583340D01*
X210355732Y-100665528D01*
X210355731Y-100665529D01*
X210355730Y-100665529D01*
X210219059Y-100722140D01*
X210073968Y-100751000D01*
X209926032Y-100751000D01*
X209780941Y-100722140D01*
X209644270Y-100665529D01*
X209644269Y-100665529D01*
X209644268Y-100665528D01*
X209521265Y-100583340D01*
X209416660Y-100478735D01*
X209334472Y-100355732D01*
X209277860Y-100219059D01*
X209249000Y-100073967D01*
X209249000Y-99926033D01*
X209277860Y-99780941D01*
X209334472Y-99644268D01*
X209416660Y-99521265D01*
X209521265Y-99416660D01*
X209644268Y-99334472D01*
X209780941Y-99277860D01*
X209926032Y-99249000D01*
X210073968Y-99249000D01*
X210219059Y-99277860D01*
X210219059Y-99277860D01*
G37*
G36*
X56219059Y-99277860D02*
G01*
X56355732Y-99334472D01*
X56478735Y-99416660D01*
X56583340Y-99521265D01*
X56665528Y-99644268D01*
X56722140Y-99780941D01*
X56751000Y-99926033D01*
X56751000Y-100073967D01*
X56722140Y-100219059D01*
X56665528Y-100355732D01*
X56583340Y-100478735D01*
X56478735Y-100583340D01*
X56355732Y-100665528D01*
X56355731Y-100665529D01*
X56355730Y-100665529D01*
X56219059Y-100722140D01*
X56073968Y-100751000D01*
X55926032Y-100751000D01*
X55780941Y-100722140D01*
X55644270Y-100665529D01*
X55644269Y-100665529D01*
X55644268Y-100665528D01*
X55521265Y-100583340D01*
X55416660Y-100478735D01*
X55334472Y-100355732D01*
X55277860Y-100219059D01*
X55249000Y-100073967D01*
X55249000Y-99926033D01*
X55277860Y-99780941D01*
X55334472Y-99644268D01*
X55416660Y-99521265D01*
X55521265Y-99416660D01*
X55644268Y-99334472D01*
X55780941Y-99277860D01*
X55926032Y-99249000D01*
X56073968Y-99249000D01*
X56219059Y-99277860D01*
X56219059Y-99277860D01*
G37*
G36*
X62676366Y-77215695D02*
G01*
X62833460Y-77263349D01*
X62978231Y-77340731D01*
X63105128Y-77444872D01*
X63209269Y-77571769D01*
X63286651Y-77716540D01*
X63334305Y-77873634D01*
X63351000Y-78043140D01*
X63351000Y-79956860D01*
X63334305Y-80126366D01*
X63286651Y-80283460D01*
X63209269Y-80428231D01*
X63105128Y-80555128D01*
X62978231Y-80659269D01*
X62833460Y-80736651D01*
X62676366Y-80784305D01*
X62506860Y-80801000D01*
X60093140Y-80801000D01*
X59923634Y-80784305D01*
X59766540Y-80736651D01*
X59621769Y-80659269D01*
X59494872Y-80555128D01*
X59390731Y-80428231D01*
X59313349Y-80283460D01*
X59265695Y-80126366D01*
X59249000Y-79956860D01*
X59249000Y-78043140D01*
X59265695Y-77873634D01*
X59313349Y-77716540D01*
X59390731Y-77571769D01*
X59494872Y-77444872D01*
X59621769Y-77340731D01*
X59766540Y-77263349D01*
X59923634Y-77215695D01*
X60093140Y-77199000D01*
X62506860Y-77199000D01*
X62676366Y-77215695D01*
X62676366Y-77215695D01*
G37*
G36*
X66101000Y-76051000D02*
G01*
X62499000Y-76051000D01*
X62499000Y-71949000D01*
X66101000Y-71949000D01*
X66101000Y-76051000D01*
X66101000Y-76051000D01*
G37*
G36*
X58976979Y-71963293D02*
G01*
X59110625Y-72003834D01*
X59233784Y-72069664D01*
X59341740Y-72158260D01*
X59430336Y-72266216D01*
X59496166Y-72389375D01*
X59536707Y-72523021D01*
X59551000Y-72668140D01*
X59551000Y-75331860D01*
X59536707Y-75476979D01*
X59496166Y-75610625D01*
X59430336Y-75733784D01*
X59341740Y-75841740D01*
X59233784Y-75930336D01*
X59110625Y-75996166D01*
X58976979Y-76036707D01*
X58831860Y-76051000D01*
X57168140Y-76051000D01*
X57023021Y-76036707D01*
X56889375Y-75996166D01*
X56766216Y-75930336D01*
X56658260Y-75841740D01*
X56569664Y-75733784D01*
X56503834Y-75610625D01*
X56463293Y-75476979D01*
X56449000Y-75331860D01*
X56449000Y-72668140D01*
X56463293Y-72523021D01*
X56503834Y-72389375D01*
X56569664Y-72266216D01*
X56658260Y-72158260D01*
X56766216Y-72069664D01*
X56889375Y-72003834D01*
X57023021Y-71963293D01*
X57168140Y-71949000D01*
X58831860Y-71949000D01*
X58976979Y-71963293D01*
X58976979Y-71963293D01*
G37*
G36*
X191501000Y-64701000D02*
G01*
X189699000Y-64701000D01*
X189699000Y-62899000D01*
X191501000Y-62899000D01*
X191501000Y-64701000D01*
X191501000Y-64701000D01*
G37*
G36*
X188170443Y-62905519D02*
G01*
X188236627Y-62912037D01*
X188406466Y-62963557D01*
X188562991Y-63047222D01*
X188598729Y-63076552D01*
X188700186Y-63159814D01*
X188783448Y-63261271D01*
X188812778Y-63297009D01*
X188896443Y-63453534D01*
X188947963Y-63623373D01*
X188965359Y-63800000D01*
X188947963Y-63976627D01*
X188896443Y-64146466D01*
X188812778Y-64302991D01*
X188783448Y-64338729D01*
X188700186Y-64440186D01*
X188598729Y-64523448D01*
X188562991Y-64552778D01*
X188406466Y-64636443D01*
X188236627Y-64687963D01*
X188170443Y-64694481D01*
X188104260Y-64701000D01*
X188015740Y-64701000D01*
X187949557Y-64694481D01*
X187883373Y-64687963D01*
X187713534Y-64636443D01*
X187557009Y-64552778D01*
X187521271Y-64523448D01*
X187419814Y-64440186D01*
X187336552Y-64338729D01*
X187307222Y-64302991D01*
X187223557Y-64146466D01*
X187172037Y-63976627D01*
X187154641Y-63800000D01*
X187172037Y-63623373D01*
X187223557Y-63453534D01*
X187307222Y-63297009D01*
X187336552Y-63261271D01*
X187419814Y-63159814D01*
X187521271Y-63076552D01*
X187557009Y-63047222D01*
X187713534Y-62963557D01*
X187883373Y-62912037D01*
X187949557Y-62905519D01*
X188015740Y-62899000D01*
X188104260Y-62899000D01*
X188170443Y-62905519D01*
X188170443Y-62905519D01*
G37*
M02*
