G04 #@! TF.GenerationSoftware,KiCad,Pcbnew,(5.1.4)-1*
G04 #@! TF.CreationDate,2020-04-08T10:51:13+02:00*
G04 #@! TF.ProjectId,PCB_Theremin,5043425f-5468-4657-9265-6d696e2e6b69,rev?*
G04 #@! TF.SameCoordinates,Original*
G04 #@! TF.FileFunction,Paste,Top*
G04 #@! TF.FilePolarity,Positive*
%FSLAX46Y46*%
G04 Gerber Fmt 4.6, Leading zero omitted, Abs format (unit mm)*
G04 Created by KiCad (PCBNEW (5.1.4)-1) date 2020-04-08 10:51:13*
%MOMM*%
%LPD*%
G04 APERTURE LIST*
%ADD10C,0.100000*%
%ADD11C,1.725000*%
%ADD12C,1.150000*%
%ADD13R,4.550000X5.250000*%
%ADD14R,6.000000X2.320000*%
%ADD15R,2.000000X1.500000*%
%ADD16R,2.000000X3.800000*%
%ADD17R,1.400000X1.000000*%
%ADD18C,1.425000*%
%ADD19C,2.550000*%
G04 APERTURE END LIST*
D10*
G36*
X86168431Y-97026570D02*
G01*
X86200079Y-97031264D01*
X86231115Y-97039039D01*
X86261239Y-97049817D01*
X86290162Y-97063497D01*
X86317605Y-97079945D01*
X86343303Y-97099004D01*
X86367009Y-97120491D01*
X86388496Y-97144197D01*
X86407555Y-97169895D01*
X86424003Y-97197338D01*
X86437683Y-97226261D01*
X86448461Y-97256385D01*
X86456236Y-97287421D01*
X86460930Y-97319069D01*
X86462500Y-97351025D01*
X86462500Y-99048975D01*
X86460930Y-99080931D01*
X86456236Y-99112579D01*
X86448461Y-99143615D01*
X86437683Y-99173739D01*
X86424003Y-99202662D01*
X86407555Y-99230105D01*
X86388496Y-99255803D01*
X86367009Y-99279509D01*
X86343303Y-99300996D01*
X86317605Y-99320055D01*
X86290162Y-99336503D01*
X86261239Y-99350183D01*
X86231115Y-99360961D01*
X86200079Y-99368736D01*
X86168431Y-99373430D01*
X86136475Y-99375000D01*
X85063525Y-99375000D01*
X85031569Y-99373430D01*
X84999921Y-99368736D01*
X84968885Y-99360961D01*
X84938761Y-99350183D01*
X84909838Y-99336503D01*
X84882395Y-99320055D01*
X84856697Y-99300996D01*
X84832991Y-99279509D01*
X84811504Y-99255803D01*
X84792445Y-99230105D01*
X84775997Y-99202662D01*
X84762317Y-99173739D01*
X84751539Y-99143615D01*
X84743764Y-99112579D01*
X84739070Y-99080931D01*
X84737500Y-99048975D01*
X84737500Y-97351025D01*
X84739070Y-97319069D01*
X84743764Y-97287421D01*
X84751539Y-97256385D01*
X84762317Y-97226261D01*
X84775997Y-97197338D01*
X84792445Y-97169895D01*
X84811504Y-97144197D01*
X84832991Y-97120491D01*
X84856697Y-97099004D01*
X84882395Y-97079945D01*
X84909838Y-97063497D01*
X84938761Y-97049817D01*
X84968885Y-97039039D01*
X84999921Y-97031264D01*
X85031569Y-97026570D01*
X85063525Y-97025000D01*
X86136475Y-97025000D01*
X86168431Y-97026570D01*
X86168431Y-97026570D01*
G37*
D11*
X85600000Y-98200000D03*
D10*
G36*
X83093431Y-97026570D02*
G01*
X83125079Y-97031264D01*
X83156115Y-97039039D01*
X83186239Y-97049817D01*
X83215162Y-97063497D01*
X83242605Y-97079945D01*
X83268303Y-97099004D01*
X83292009Y-97120491D01*
X83313496Y-97144197D01*
X83332555Y-97169895D01*
X83349003Y-97197338D01*
X83362683Y-97226261D01*
X83373461Y-97256385D01*
X83381236Y-97287421D01*
X83385930Y-97319069D01*
X83387500Y-97351025D01*
X83387500Y-99048975D01*
X83385930Y-99080931D01*
X83381236Y-99112579D01*
X83373461Y-99143615D01*
X83362683Y-99173739D01*
X83349003Y-99202662D01*
X83332555Y-99230105D01*
X83313496Y-99255803D01*
X83292009Y-99279509D01*
X83268303Y-99300996D01*
X83242605Y-99320055D01*
X83215162Y-99336503D01*
X83186239Y-99350183D01*
X83156115Y-99360961D01*
X83125079Y-99368736D01*
X83093431Y-99373430D01*
X83061475Y-99375000D01*
X81988525Y-99375000D01*
X81956569Y-99373430D01*
X81924921Y-99368736D01*
X81893885Y-99360961D01*
X81863761Y-99350183D01*
X81834838Y-99336503D01*
X81807395Y-99320055D01*
X81781697Y-99300996D01*
X81757991Y-99279509D01*
X81736504Y-99255803D01*
X81717445Y-99230105D01*
X81700997Y-99202662D01*
X81687317Y-99173739D01*
X81676539Y-99143615D01*
X81668764Y-99112579D01*
X81664070Y-99080931D01*
X81662500Y-99048975D01*
X81662500Y-97351025D01*
X81664070Y-97319069D01*
X81668764Y-97287421D01*
X81676539Y-97256385D01*
X81687317Y-97226261D01*
X81700997Y-97197338D01*
X81717445Y-97169895D01*
X81736504Y-97144197D01*
X81757991Y-97120491D01*
X81781697Y-97099004D01*
X81807395Y-97079945D01*
X81834838Y-97063497D01*
X81863761Y-97049817D01*
X81893885Y-97039039D01*
X81924921Y-97031264D01*
X81956569Y-97026570D01*
X81988525Y-97025000D01*
X83061475Y-97025000D01*
X83093431Y-97026570D01*
X83093431Y-97026570D01*
G37*
D11*
X82525000Y-98200000D03*
D10*
G36*
X69968431Y-63826570D02*
G01*
X70000079Y-63831264D01*
X70031115Y-63839039D01*
X70061239Y-63849817D01*
X70090162Y-63863497D01*
X70117605Y-63879945D01*
X70143303Y-63899004D01*
X70167009Y-63920491D01*
X70188496Y-63944197D01*
X70207555Y-63969895D01*
X70224003Y-63997338D01*
X70237683Y-64026261D01*
X70248461Y-64056385D01*
X70256236Y-64087421D01*
X70260930Y-64119069D01*
X70262500Y-64151025D01*
X70262500Y-65848975D01*
X70260930Y-65880931D01*
X70256236Y-65912579D01*
X70248461Y-65943615D01*
X70237683Y-65973739D01*
X70224003Y-66002662D01*
X70207555Y-66030105D01*
X70188496Y-66055803D01*
X70167009Y-66079509D01*
X70143303Y-66100996D01*
X70117605Y-66120055D01*
X70090162Y-66136503D01*
X70061239Y-66150183D01*
X70031115Y-66160961D01*
X70000079Y-66168736D01*
X69968431Y-66173430D01*
X69936475Y-66175000D01*
X68863525Y-66175000D01*
X68831569Y-66173430D01*
X68799921Y-66168736D01*
X68768885Y-66160961D01*
X68738761Y-66150183D01*
X68709838Y-66136503D01*
X68682395Y-66120055D01*
X68656697Y-66100996D01*
X68632991Y-66079509D01*
X68611504Y-66055803D01*
X68592445Y-66030105D01*
X68575997Y-66002662D01*
X68562317Y-65973739D01*
X68551539Y-65943615D01*
X68543764Y-65912579D01*
X68539070Y-65880931D01*
X68537500Y-65848975D01*
X68537500Y-64151025D01*
X68539070Y-64119069D01*
X68543764Y-64087421D01*
X68551539Y-64056385D01*
X68562317Y-64026261D01*
X68575997Y-63997338D01*
X68592445Y-63969895D01*
X68611504Y-63944197D01*
X68632991Y-63920491D01*
X68656697Y-63899004D01*
X68682395Y-63879945D01*
X68709838Y-63863497D01*
X68738761Y-63849817D01*
X68768885Y-63839039D01*
X68799921Y-63831264D01*
X68831569Y-63826570D01*
X68863525Y-63825000D01*
X69936475Y-63825000D01*
X69968431Y-63826570D01*
X69968431Y-63826570D01*
G37*
D11*
X69400000Y-65000000D03*
D10*
G36*
X73043431Y-63826570D02*
G01*
X73075079Y-63831264D01*
X73106115Y-63839039D01*
X73136239Y-63849817D01*
X73165162Y-63863497D01*
X73192605Y-63879945D01*
X73218303Y-63899004D01*
X73242009Y-63920491D01*
X73263496Y-63944197D01*
X73282555Y-63969895D01*
X73299003Y-63997338D01*
X73312683Y-64026261D01*
X73323461Y-64056385D01*
X73331236Y-64087421D01*
X73335930Y-64119069D01*
X73337500Y-64151025D01*
X73337500Y-65848975D01*
X73335930Y-65880931D01*
X73331236Y-65912579D01*
X73323461Y-65943615D01*
X73312683Y-65973739D01*
X73299003Y-66002662D01*
X73282555Y-66030105D01*
X73263496Y-66055803D01*
X73242009Y-66079509D01*
X73218303Y-66100996D01*
X73192605Y-66120055D01*
X73165162Y-66136503D01*
X73136239Y-66150183D01*
X73106115Y-66160961D01*
X73075079Y-66168736D01*
X73043431Y-66173430D01*
X73011475Y-66175000D01*
X71938525Y-66175000D01*
X71906569Y-66173430D01*
X71874921Y-66168736D01*
X71843885Y-66160961D01*
X71813761Y-66150183D01*
X71784838Y-66136503D01*
X71757395Y-66120055D01*
X71731697Y-66100996D01*
X71707991Y-66079509D01*
X71686504Y-66055803D01*
X71667445Y-66030105D01*
X71650997Y-66002662D01*
X71637317Y-65973739D01*
X71626539Y-65943615D01*
X71618764Y-65912579D01*
X71614070Y-65880931D01*
X71612500Y-65848975D01*
X71612500Y-64151025D01*
X71614070Y-64119069D01*
X71618764Y-64087421D01*
X71626539Y-64056385D01*
X71637317Y-64026261D01*
X71650997Y-63997338D01*
X71667445Y-63969895D01*
X71686504Y-63944197D01*
X71707991Y-63920491D01*
X71731697Y-63899004D01*
X71757395Y-63879945D01*
X71784838Y-63863497D01*
X71813761Y-63849817D01*
X71843885Y-63839039D01*
X71874921Y-63831264D01*
X71906569Y-63826570D01*
X71938525Y-63825000D01*
X73011475Y-63825000D01*
X73043431Y-63826570D01*
X73043431Y-63826570D01*
G37*
D11*
X72475000Y-65000000D03*
D10*
G36*
X188249505Y-114801204D02*
G01*
X188273773Y-114804804D01*
X188297572Y-114810765D01*
X188320671Y-114819030D01*
X188342850Y-114829520D01*
X188363893Y-114842132D01*
X188383599Y-114856747D01*
X188401777Y-114873223D01*
X188418253Y-114891401D01*
X188432868Y-114911107D01*
X188445480Y-114932150D01*
X188455970Y-114954329D01*
X188464235Y-114977428D01*
X188470196Y-115001227D01*
X188473796Y-115025495D01*
X188475000Y-115049999D01*
X188475000Y-115950001D01*
X188473796Y-115974505D01*
X188470196Y-115998773D01*
X188464235Y-116022572D01*
X188455970Y-116045671D01*
X188445480Y-116067850D01*
X188432868Y-116088893D01*
X188418253Y-116108599D01*
X188401777Y-116126777D01*
X188383599Y-116143253D01*
X188363893Y-116157868D01*
X188342850Y-116170480D01*
X188320671Y-116180970D01*
X188297572Y-116189235D01*
X188273773Y-116195196D01*
X188249505Y-116198796D01*
X188225001Y-116200000D01*
X187574999Y-116200000D01*
X187550495Y-116198796D01*
X187526227Y-116195196D01*
X187502428Y-116189235D01*
X187479329Y-116180970D01*
X187457150Y-116170480D01*
X187436107Y-116157868D01*
X187416401Y-116143253D01*
X187398223Y-116126777D01*
X187381747Y-116108599D01*
X187367132Y-116088893D01*
X187354520Y-116067850D01*
X187344030Y-116045671D01*
X187335765Y-116022572D01*
X187329804Y-115998773D01*
X187326204Y-115974505D01*
X187325000Y-115950001D01*
X187325000Y-115049999D01*
X187326204Y-115025495D01*
X187329804Y-115001227D01*
X187335765Y-114977428D01*
X187344030Y-114954329D01*
X187354520Y-114932150D01*
X187367132Y-114911107D01*
X187381747Y-114891401D01*
X187398223Y-114873223D01*
X187416401Y-114856747D01*
X187436107Y-114842132D01*
X187457150Y-114829520D01*
X187479329Y-114819030D01*
X187502428Y-114810765D01*
X187526227Y-114804804D01*
X187550495Y-114801204D01*
X187574999Y-114800000D01*
X188225001Y-114800000D01*
X188249505Y-114801204D01*
X188249505Y-114801204D01*
G37*
D12*
X187900000Y-115500000D03*
D10*
G36*
X190299505Y-114801204D02*
G01*
X190323773Y-114804804D01*
X190347572Y-114810765D01*
X190370671Y-114819030D01*
X190392850Y-114829520D01*
X190413893Y-114842132D01*
X190433599Y-114856747D01*
X190451777Y-114873223D01*
X190468253Y-114891401D01*
X190482868Y-114911107D01*
X190495480Y-114932150D01*
X190505970Y-114954329D01*
X190514235Y-114977428D01*
X190520196Y-115001227D01*
X190523796Y-115025495D01*
X190525000Y-115049999D01*
X190525000Y-115950001D01*
X190523796Y-115974505D01*
X190520196Y-115998773D01*
X190514235Y-116022572D01*
X190505970Y-116045671D01*
X190495480Y-116067850D01*
X190482868Y-116088893D01*
X190468253Y-116108599D01*
X190451777Y-116126777D01*
X190433599Y-116143253D01*
X190413893Y-116157868D01*
X190392850Y-116170480D01*
X190370671Y-116180970D01*
X190347572Y-116189235D01*
X190323773Y-116195196D01*
X190299505Y-116198796D01*
X190275001Y-116200000D01*
X189624999Y-116200000D01*
X189600495Y-116198796D01*
X189576227Y-116195196D01*
X189552428Y-116189235D01*
X189529329Y-116180970D01*
X189507150Y-116170480D01*
X189486107Y-116157868D01*
X189466401Y-116143253D01*
X189448223Y-116126777D01*
X189431747Y-116108599D01*
X189417132Y-116088893D01*
X189404520Y-116067850D01*
X189394030Y-116045671D01*
X189385765Y-116022572D01*
X189379804Y-115998773D01*
X189376204Y-115974505D01*
X189375000Y-115950001D01*
X189375000Y-115049999D01*
X189376204Y-115025495D01*
X189379804Y-115001227D01*
X189385765Y-114977428D01*
X189394030Y-114954329D01*
X189404520Y-114932150D01*
X189417132Y-114911107D01*
X189431747Y-114891401D01*
X189448223Y-114873223D01*
X189466401Y-114856747D01*
X189486107Y-114842132D01*
X189507150Y-114829520D01*
X189529329Y-114819030D01*
X189552428Y-114810765D01*
X189576227Y-114804804D01*
X189600495Y-114801204D01*
X189624999Y-114800000D01*
X190275001Y-114800000D01*
X190299505Y-114801204D01*
X190299505Y-114801204D01*
G37*
D12*
X189950000Y-115500000D03*
D10*
G36*
X77549505Y-97301204D02*
G01*
X77573773Y-97304804D01*
X77597572Y-97310765D01*
X77620671Y-97319030D01*
X77642850Y-97329520D01*
X77663893Y-97342132D01*
X77683599Y-97356747D01*
X77701777Y-97373223D01*
X77718253Y-97391401D01*
X77732868Y-97411107D01*
X77745480Y-97432150D01*
X77755970Y-97454329D01*
X77764235Y-97477428D01*
X77770196Y-97501227D01*
X77773796Y-97525495D01*
X77775000Y-97549999D01*
X77775000Y-98450001D01*
X77773796Y-98474505D01*
X77770196Y-98498773D01*
X77764235Y-98522572D01*
X77755970Y-98545671D01*
X77745480Y-98567850D01*
X77732868Y-98588893D01*
X77718253Y-98608599D01*
X77701777Y-98626777D01*
X77683599Y-98643253D01*
X77663893Y-98657868D01*
X77642850Y-98670480D01*
X77620671Y-98680970D01*
X77597572Y-98689235D01*
X77573773Y-98695196D01*
X77549505Y-98698796D01*
X77525001Y-98700000D01*
X76874999Y-98700000D01*
X76850495Y-98698796D01*
X76826227Y-98695196D01*
X76802428Y-98689235D01*
X76779329Y-98680970D01*
X76757150Y-98670480D01*
X76736107Y-98657868D01*
X76716401Y-98643253D01*
X76698223Y-98626777D01*
X76681747Y-98608599D01*
X76667132Y-98588893D01*
X76654520Y-98567850D01*
X76644030Y-98545671D01*
X76635765Y-98522572D01*
X76629804Y-98498773D01*
X76626204Y-98474505D01*
X76625000Y-98450001D01*
X76625000Y-97549999D01*
X76626204Y-97525495D01*
X76629804Y-97501227D01*
X76635765Y-97477428D01*
X76644030Y-97454329D01*
X76654520Y-97432150D01*
X76667132Y-97411107D01*
X76681747Y-97391401D01*
X76698223Y-97373223D01*
X76716401Y-97356747D01*
X76736107Y-97342132D01*
X76757150Y-97329520D01*
X76779329Y-97319030D01*
X76802428Y-97310765D01*
X76826227Y-97304804D01*
X76850495Y-97301204D01*
X76874999Y-97300000D01*
X77525001Y-97300000D01*
X77549505Y-97301204D01*
X77549505Y-97301204D01*
G37*
D12*
X77200000Y-98000000D03*
D10*
G36*
X75499505Y-97301204D02*
G01*
X75523773Y-97304804D01*
X75547572Y-97310765D01*
X75570671Y-97319030D01*
X75592850Y-97329520D01*
X75613893Y-97342132D01*
X75633599Y-97356747D01*
X75651777Y-97373223D01*
X75668253Y-97391401D01*
X75682868Y-97411107D01*
X75695480Y-97432150D01*
X75705970Y-97454329D01*
X75714235Y-97477428D01*
X75720196Y-97501227D01*
X75723796Y-97525495D01*
X75725000Y-97549999D01*
X75725000Y-98450001D01*
X75723796Y-98474505D01*
X75720196Y-98498773D01*
X75714235Y-98522572D01*
X75705970Y-98545671D01*
X75695480Y-98567850D01*
X75682868Y-98588893D01*
X75668253Y-98608599D01*
X75651777Y-98626777D01*
X75633599Y-98643253D01*
X75613893Y-98657868D01*
X75592850Y-98670480D01*
X75570671Y-98680970D01*
X75547572Y-98689235D01*
X75523773Y-98695196D01*
X75499505Y-98698796D01*
X75475001Y-98700000D01*
X74824999Y-98700000D01*
X74800495Y-98698796D01*
X74776227Y-98695196D01*
X74752428Y-98689235D01*
X74729329Y-98680970D01*
X74707150Y-98670480D01*
X74686107Y-98657868D01*
X74666401Y-98643253D01*
X74648223Y-98626777D01*
X74631747Y-98608599D01*
X74617132Y-98588893D01*
X74604520Y-98567850D01*
X74594030Y-98545671D01*
X74585765Y-98522572D01*
X74579804Y-98498773D01*
X74576204Y-98474505D01*
X74575000Y-98450001D01*
X74575000Y-97549999D01*
X74576204Y-97525495D01*
X74579804Y-97501227D01*
X74585765Y-97477428D01*
X74594030Y-97454329D01*
X74604520Y-97432150D01*
X74617132Y-97411107D01*
X74631747Y-97391401D01*
X74648223Y-97373223D01*
X74666401Y-97356747D01*
X74686107Y-97342132D01*
X74707150Y-97329520D01*
X74729329Y-97319030D01*
X74752428Y-97310765D01*
X74776227Y-97304804D01*
X74800495Y-97301204D01*
X74824999Y-97300000D01*
X75475001Y-97300000D01*
X75499505Y-97301204D01*
X75499505Y-97301204D01*
G37*
D12*
X75150000Y-98000000D03*
D13*
X83525000Y-74735000D03*
X88375000Y-69185000D03*
X83525000Y-69185000D03*
X88375000Y-74735000D03*
D14*
X76800000Y-74500000D03*
X76800000Y-69420000D03*
D10*
G36*
X93249505Y-105301204D02*
G01*
X93273773Y-105304804D01*
X93297572Y-105310765D01*
X93320671Y-105319030D01*
X93342850Y-105329520D01*
X93363893Y-105342132D01*
X93383599Y-105356747D01*
X93401777Y-105373223D01*
X93418253Y-105391401D01*
X93432868Y-105411107D01*
X93445480Y-105432150D01*
X93455970Y-105454329D01*
X93464235Y-105477428D01*
X93470196Y-105501227D01*
X93473796Y-105525495D01*
X93475000Y-105549999D01*
X93475000Y-106450001D01*
X93473796Y-106474505D01*
X93470196Y-106498773D01*
X93464235Y-106522572D01*
X93455970Y-106545671D01*
X93445480Y-106567850D01*
X93432868Y-106588893D01*
X93418253Y-106608599D01*
X93401777Y-106626777D01*
X93383599Y-106643253D01*
X93363893Y-106657868D01*
X93342850Y-106670480D01*
X93320671Y-106680970D01*
X93297572Y-106689235D01*
X93273773Y-106695196D01*
X93249505Y-106698796D01*
X93225001Y-106700000D01*
X92574999Y-106700000D01*
X92550495Y-106698796D01*
X92526227Y-106695196D01*
X92502428Y-106689235D01*
X92479329Y-106680970D01*
X92457150Y-106670480D01*
X92436107Y-106657868D01*
X92416401Y-106643253D01*
X92398223Y-106626777D01*
X92381747Y-106608599D01*
X92367132Y-106588893D01*
X92354520Y-106567850D01*
X92344030Y-106545671D01*
X92335765Y-106522572D01*
X92329804Y-106498773D01*
X92326204Y-106474505D01*
X92325000Y-106450001D01*
X92325000Y-105549999D01*
X92326204Y-105525495D01*
X92329804Y-105501227D01*
X92335765Y-105477428D01*
X92344030Y-105454329D01*
X92354520Y-105432150D01*
X92367132Y-105411107D01*
X92381747Y-105391401D01*
X92398223Y-105373223D01*
X92416401Y-105356747D01*
X92436107Y-105342132D01*
X92457150Y-105329520D01*
X92479329Y-105319030D01*
X92502428Y-105310765D01*
X92526227Y-105304804D01*
X92550495Y-105301204D01*
X92574999Y-105300000D01*
X93225001Y-105300000D01*
X93249505Y-105301204D01*
X93249505Y-105301204D01*
G37*
D12*
X92900000Y-106000000D03*
D10*
G36*
X91199505Y-105301204D02*
G01*
X91223773Y-105304804D01*
X91247572Y-105310765D01*
X91270671Y-105319030D01*
X91292850Y-105329520D01*
X91313893Y-105342132D01*
X91333599Y-105356747D01*
X91351777Y-105373223D01*
X91368253Y-105391401D01*
X91382868Y-105411107D01*
X91395480Y-105432150D01*
X91405970Y-105454329D01*
X91414235Y-105477428D01*
X91420196Y-105501227D01*
X91423796Y-105525495D01*
X91425000Y-105549999D01*
X91425000Y-106450001D01*
X91423796Y-106474505D01*
X91420196Y-106498773D01*
X91414235Y-106522572D01*
X91405970Y-106545671D01*
X91395480Y-106567850D01*
X91382868Y-106588893D01*
X91368253Y-106608599D01*
X91351777Y-106626777D01*
X91333599Y-106643253D01*
X91313893Y-106657868D01*
X91292850Y-106670480D01*
X91270671Y-106680970D01*
X91247572Y-106689235D01*
X91223773Y-106695196D01*
X91199505Y-106698796D01*
X91175001Y-106700000D01*
X90524999Y-106700000D01*
X90500495Y-106698796D01*
X90476227Y-106695196D01*
X90452428Y-106689235D01*
X90429329Y-106680970D01*
X90407150Y-106670480D01*
X90386107Y-106657868D01*
X90366401Y-106643253D01*
X90348223Y-106626777D01*
X90331747Y-106608599D01*
X90317132Y-106588893D01*
X90304520Y-106567850D01*
X90294030Y-106545671D01*
X90285765Y-106522572D01*
X90279804Y-106498773D01*
X90276204Y-106474505D01*
X90275000Y-106450001D01*
X90275000Y-105549999D01*
X90276204Y-105525495D01*
X90279804Y-105501227D01*
X90285765Y-105477428D01*
X90294030Y-105454329D01*
X90304520Y-105432150D01*
X90317132Y-105411107D01*
X90331747Y-105391401D01*
X90348223Y-105373223D01*
X90366401Y-105356747D01*
X90386107Y-105342132D01*
X90407150Y-105329520D01*
X90429329Y-105319030D01*
X90452428Y-105310765D01*
X90476227Y-105304804D01*
X90500495Y-105301204D01*
X90524999Y-105300000D01*
X91175001Y-105300000D01*
X91199505Y-105301204D01*
X91199505Y-105301204D01*
G37*
D12*
X90850000Y-106000000D03*
D10*
G36*
X201474505Y-82426204D02*
G01*
X201498773Y-82429804D01*
X201522572Y-82435765D01*
X201545671Y-82444030D01*
X201567850Y-82454520D01*
X201588893Y-82467132D01*
X201608599Y-82481747D01*
X201626777Y-82498223D01*
X201643253Y-82516401D01*
X201657868Y-82536107D01*
X201670480Y-82557150D01*
X201680970Y-82579329D01*
X201689235Y-82602428D01*
X201695196Y-82626227D01*
X201698796Y-82650495D01*
X201700000Y-82674999D01*
X201700000Y-83325001D01*
X201698796Y-83349505D01*
X201695196Y-83373773D01*
X201689235Y-83397572D01*
X201680970Y-83420671D01*
X201670480Y-83442850D01*
X201657868Y-83463893D01*
X201643253Y-83483599D01*
X201626777Y-83501777D01*
X201608599Y-83518253D01*
X201588893Y-83532868D01*
X201567850Y-83545480D01*
X201545671Y-83555970D01*
X201522572Y-83564235D01*
X201498773Y-83570196D01*
X201474505Y-83573796D01*
X201450001Y-83575000D01*
X200549999Y-83575000D01*
X200525495Y-83573796D01*
X200501227Y-83570196D01*
X200477428Y-83564235D01*
X200454329Y-83555970D01*
X200432150Y-83545480D01*
X200411107Y-83532868D01*
X200391401Y-83518253D01*
X200373223Y-83501777D01*
X200356747Y-83483599D01*
X200342132Y-83463893D01*
X200329520Y-83442850D01*
X200319030Y-83420671D01*
X200310765Y-83397572D01*
X200304804Y-83373773D01*
X200301204Y-83349505D01*
X200300000Y-83325001D01*
X200300000Y-82674999D01*
X200301204Y-82650495D01*
X200304804Y-82626227D01*
X200310765Y-82602428D01*
X200319030Y-82579329D01*
X200329520Y-82557150D01*
X200342132Y-82536107D01*
X200356747Y-82516401D01*
X200373223Y-82498223D01*
X200391401Y-82481747D01*
X200411107Y-82467132D01*
X200432150Y-82454520D01*
X200454329Y-82444030D01*
X200477428Y-82435765D01*
X200501227Y-82429804D01*
X200525495Y-82426204D01*
X200549999Y-82425000D01*
X201450001Y-82425000D01*
X201474505Y-82426204D01*
X201474505Y-82426204D01*
G37*
D12*
X201000000Y-83000000D03*
D10*
G36*
X201474505Y-84476204D02*
G01*
X201498773Y-84479804D01*
X201522572Y-84485765D01*
X201545671Y-84494030D01*
X201567850Y-84504520D01*
X201588893Y-84517132D01*
X201608599Y-84531747D01*
X201626777Y-84548223D01*
X201643253Y-84566401D01*
X201657868Y-84586107D01*
X201670480Y-84607150D01*
X201680970Y-84629329D01*
X201689235Y-84652428D01*
X201695196Y-84676227D01*
X201698796Y-84700495D01*
X201700000Y-84724999D01*
X201700000Y-85375001D01*
X201698796Y-85399505D01*
X201695196Y-85423773D01*
X201689235Y-85447572D01*
X201680970Y-85470671D01*
X201670480Y-85492850D01*
X201657868Y-85513893D01*
X201643253Y-85533599D01*
X201626777Y-85551777D01*
X201608599Y-85568253D01*
X201588893Y-85582868D01*
X201567850Y-85595480D01*
X201545671Y-85605970D01*
X201522572Y-85614235D01*
X201498773Y-85620196D01*
X201474505Y-85623796D01*
X201450001Y-85625000D01*
X200549999Y-85625000D01*
X200525495Y-85623796D01*
X200501227Y-85620196D01*
X200477428Y-85614235D01*
X200454329Y-85605970D01*
X200432150Y-85595480D01*
X200411107Y-85582868D01*
X200391401Y-85568253D01*
X200373223Y-85551777D01*
X200356747Y-85533599D01*
X200342132Y-85513893D01*
X200329520Y-85492850D01*
X200319030Y-85470671D01*
X200310765Y-85447572D01*
X200304804Y-85423773D01*
X200301204Y-85399505D01*
X200300000Y-85375001D01*
X200300000Y-84724999D01*
X200301204Y-84700495D01*
X200304804Y-84676227D01*
X200310765Y-84652428D01*
X200319030Y-84629329D01*
X200329520Y-84607150D01*
X200342132Y-84586107D01*
X200356747Y-84566401D01*
X200373223Y-84548223D01*
X200391401Y-84531747D01*
X200411107Y-84517132D01*
X200432150Y-84504520D01*
X200454329Y-84494030D01*
X200477428Y-84485765D01*
X200501227Y-84479804D01*
X200525495Y-84476204D01*
X200549999Y-84475000D01*
X201450001Y-84475000D01*
X201474505Y-84476204D01*
X201474505Y-84476204D01*
G37*
D12*
X201000000Y-85050000D03*
D15*
X82500000Y-89000000D03*
X82500000Y-93600000D03*
X82500000Y-91300000D03*
D16*
X88800000Y-91300000D03*
D10*
G36*
X96474505Y-112426204D02*
G01*
X96498773Y-112429804D01*
X96522572Y-112435765D01*
X96545671Y-112444030D01*
X96567850Y-112454520D01*
X96588893Y-112467132D01*
X96608599Y-112481747D01*
X96626777Y-112498223D01*
X96643253Y-112516401D01*
X96657868Y-112536107D01*
X96670480Y-112557150D01*
X96680970Y-112579329D01*
X96689235Y-112602428D01*
X96695196Y-112626227D01*
X96698796Y-112650495D01*
X96700000Y-112674999D01*
X96700000Y-113325001D01*
X96698796Y-113349505D01*
X96695196Y-113373773D01*
X96689235Y-113397572D01*
X96680970Y-113420671D01*
X96670480Y-113442850D01*
X96657868Y-113463893D01*
X96643253Y-113483599D01*
X96626777Y-113501777D01*
X96608599Y-113518253D01*
X96588893Y-113532868D01*
X96567850Y-113545480D01*
X96545671Y-113555970D01*
X96522572Y-113564235D01*
X96498773Y-113570196D01*
X96474505Y-113573796D01*
X96450001Y-113575000D01*
X95549999Y-113575000D01*
X95525495Y-113573796D01*
X95501227Y-113570196D01*
X95477428Y-113564235D01*
X95454329Y-113555970D01*
X95432150Y-113545480D01*
X95411107Y-113532868D01*
X95391401Y-113518253D01*
X95373223Y-113501777D01*
X95356747Y-113483599D01*
X95342132Y-113463893D01*
X95329520Y-113442850D01*
X95319030Y-113420671D01*
X95310765Y-113397572D01*
X95304804Y-113373773D01*
X95301204Y-113349505D01*
X95300000Y-113325001D01*
X95300000Y-112674999D01*
X95301204Y-112650495D01*
X95304804Y-112626227D01*
X95310765Y-112602428D01*
X95319030Y-112579329D01*
X95329520Y-112557150D01*
X95342132Y-112536107D01*
X95356747Y-112516401D01*
X95373223Y-112498223D01*
X95391401Y-112481747D01*
X95411107Y-112467132D01*
X95432150Y-112454520D01*
X95454329Y-112444030D01*
X95477428Y-112435765D01*
X95501227Y-112429804D01*
X95525495Y-112426204D01*
X95549999Y-112425000D01*
X96450001Y-112425000D01*
X96474505Y-112426204D01*
X96474505Y-112426204D01*
G37*
D12*
X96000000Y-113000000D03*
D10*
G36*
X96474505Y-110376204D02*
G01*
X96498773Y-110379804D01*
X96522572Y-110385765D01*
X96545671Y-110394030D01*
X96567850Y-110404520D01*
X96588893Y-110417132D01*
X96608599Y-110431747D01*
X96626777Y-110448223D01*
X96643253Y-110466401D01*
X96657868Y-110486107D01*
X96670480Y-110507150D01*
X96680970Y-110529329D01*
X96689235Y-110552428D01*
X96695196Y-110576227D01*
X96698796Y-110600495D01*
X96700000Y-110624999D01*
X96700000Y-111275001D01*
X96698796Y-111299505D01*
X96695196Y-111323773D01*
X96689235Y-111347572D01*
X96680970Y-111370671D01*
X96670480Y-111392850D01*
X96657868Y-111413893D01*
X96643253Y-111433599D01*
X96626777Y-111451777D01*
X96608599Y-111468253D01*
X96588893Y-111482868D01*
X96567850Y-111495480D01*
X96545671Y-111505970D01*
X96522572Y-111514235D01*
X96498773Y-111520196D01*
X96474505Y-111523796D01*
X96450001Y-111525000D01*
X95549999Y-111525000D01*
X95525495Y-111523796D01*
X95501227Y-111520196D01*
X95477428Y-111514235D01*
X95454329Y-111505970D01*
X95432150Y-111495480D01*
X95411107Y-111482868D01*
X95391401Y-111468253D01*
X95373223Y-111451777D01*
X95356747Y-111433599D01*
X95342132Y-111413893D01*
X95329520Y-111392850D01*
X95319030Y-111370671D01*
X95310765Y-111347572D01*
X95304804Y-111323773D01*
X95301204Y-111299505D01*
X95300000Y-111275001D01*
X95300000Y-110624999D01*
X95301204Y-110600495D01*
X95304804Y-110576227D01*
X95310765Y-110552428D01*
X95319030Y-110529329D01*
X95329520Y-110507150D01*
X95342132Y-110486107D01*
X95356747Y-110466401D01*
X95373223Y-110448223D01*
X95391401Y-110431747D01*
X95411107Y-110417132D01*
X95432150Y-110404520D01*
X95454329Y-110394030D01*
X95477428Y-110385765D01*
X95501227Y-110379804D01*
X95525495Y-110376204D01*
X95549999Y-110375000D01*
X96450001Y-110375000D01*
X96474505Y-110376204D01*
X96474505Y-110376204D01*
G37*
D12*
X96000000Y-110950000D03*
D10*
G36*
X96474505Y-106476204D02*
G01*
X96498773Y-106479804D01*
X96522572Y-106485765D01*
X96545671Y-106494030D01*
X96567850Y-106504520D01*
X96588893Y-106517132D01*
X96608599Y-106531747D01*
X96626777Y-106548223D01*
X96643253Y-106566401D01*
X96657868Y-106586107D01*
X96670480Y-106607150D01*
X96680970Y-106629329D01*
X96689235Y-106652428D01*
X96695196Y-106676227D01*
X96698796Y-106700495D01*
X96700000Y-106724999D01*
X96700000Y-107375001D01*
X96698796Y-107399505D01*
X96695196Y-107423773D01*
X96689235Y-107447572D01*
X96680970Y-107470671D01*
X96670480Y-107492850D01*
X96657868Y-107513893D01*
X96643253Y-107533599D01*
X96626777Y-107551777D01*
X96608599Y-107568253D01*
X96588893Y-107582868D01*
X96567850Y-107595480D01*
X96545671Y-107605970D01*
X96522572Y-107614235D01*
X96498773Y-107620196D01*
X96474505Y-107623796D01*
X96450001Y-107625000D01*
X95549999Y-107625000D01*
X95525495Y-107623796D01*
X95501227Y-107620196D01*
X95477428Y-107614235D01*
X95454329Y-107605970D01*
X95432150Y-107595480D01*
X95411107Y-107582868D01*
X95391401Y-107568253D01*
X95373223Y-107551777D01*
X95356747Y-107533599D01*
X95342132Y-107513893D01*
X95329520Y-107492850D01*
X95319030Y-107470671D01*
X95310765Y-107447572D01*
X95304804Y-107423773D01*
X95301204Y-107399505D01*
X95300000Y-107375001D01*
X95300000Y-106724999D01*
X95301204Y-106700495D01*
X95304804Y-106676227D01*
X95310765Y-106652428D01*
X95319030Y-106629329D01*
X95329520Y-106607150D01*
X95342132Y-106586107D01*
X95356747Y-106566401D01*
X95373223Y-106548223D01*
X95391401Y-106531747D01*
X95411107Y-106517132D01*
X95432150Y-106504520D01*
X95454329Y-106494030D01*
X95477428Y-106485765D01*
X95501227Y-106479804D01*
X95525495Y-106476204D01*
X95549999Y-106475000D01*
X96450001Y-106475000D01*
X96474505Y-106476204D01*
X96474505Y-106476204D01*
G37*
D12*
X96000000Y-107050000D03*
D10*
G36*
X96474505Y-104426204D02*
G01*
X96498773Y-104429804D01*
X96522572Y-104435765D01*
X96545671Y-104444030D01*
X96567850Y-104454520D01*
X96588893Y-104467132D01*
X96608599Y-104481747D01*
X96626777Y-104498223D01*
X96643253Y-104516401D01*
X96657868Y-104536107D01*
X96670480Y-104557150D01*
X96680970Y-104579329D01*
X96689235Y-104602428D01*
X96695196Y-104626227D01*
X96698796Y-104650495D01*
X96700000Y-104674999D01*
X96700000Y-105325001D01*
X96698796Y-105349505D01*
X96695196Y-105373773D01*
X96689235Y-105397572D01*
X96680970Y-105420671D01*
X96670480Y-105442850D01*
X96657868Y-105463893D01*
X96643253Y-105483599D01*
X96626777Y-105501777D01*
X96608599Y-105518253D01*
X96588893Y-105532868D01*
X96567850Y-105545480D01*
X96545671Y-105555970D01*
X96522572Y-105564235D01*
X96498773Y-105570196D01*
X96474505Y-105573796D01*
X96450001Y-105575000D01*
X95549999Y-105575000D01*
X95525495Y-105573796D01*
X95501227Y-105570196D01*
X95477428Y-105564235D01*
X95454329Y-105555970D01*
X95432150Y-105545480D01*
X95411107Y-105532868D01*
X95391401Y-105518253D01*
X95373223Y-105501777D01*
X95356747Y-105483599D01*
X95342132Y-105463893D01*
X95329520Y-105442850D01*
X95319030Y-105420671D01*
X95310765Y-105397572D01*
X95304804Y-105373773D01*
X95301204Y-105349505D01*
X95300000Y-105325001D01*
X95300000Y-104674999D01*
X95301204Y-104650495D01*
X95304804Y-104626227D01*
X95310765Y-104602428D01*
X95319030Y-104579329D01*
X95329520Y-104557150D01*
X95342132Y-104536107D01*
X95356747Y-104516401D01*
X95373223Y-104498223D01*
X95391401Y-104481747D01*
X95411107Y-104467132D01*
X95432150Y-104454520D01*
X95454329Y-104444030D01*
X95477428Y-104435765D01*
X95501227Y-104429804D01*
X95525495Y-104426204D01*
X95549999Y-104425000D01*
X96450001Y-104425000D01*
X96474505Y-104426204D01*
X96474505Y-104426204D01*
G37*
D12*
X96000000Y-105000000D03*
D10*
G36*
X208399505Y-79301204D02*
G01*
X208423773Y-79304804D01*
X208447572Y-79310765D01*
X208470671Y-79319030D01*
X208492850Y-79329520D01*
X208513893Y-79342132D01*
X208533599Y-79356747D01*
X208551777Y-79373223D01*
X208568253Y-79391401D01*
X208582868Y-79411107D01*
X208595480Y-79432150D01*
X208605970Y-79454329D01*
X208614235Y-79477428D01*
X208620196Y-79501227D01*
X208623796Y-79525495D01*
X208625000Y-79549999D01*
X208625000Y-80450001D01*
X208623796Y-80474505D01*
X208620196Y-80498773D01*
X208614235Y-80522572D01*
X208605970Y-80545671D01*
X208595480Y-80567850D01*
X208582868Y-80588893D01*
X208568253Y-80608599D01*
X208551777Y-80626777D01*
X208533599Y-80643253D01*
X208513893Y-80657868D01*
X208492850Y-80670480D01*
X208470671Y-80680970D01*
X208447572Y-80689235D01*
X208423773Y-80695196D01*
X208399505Y-80698796D01*
X208375001Y-80700000D01*
X207724999Y-80700000D01*
X207700495Y-80698796D01*
X207676227Y-80695196D01*
X207652428Y-80689235D01*
X207629329Y-80680970D01*
X207607150Y-80670480D01*
X207586107Y-80657868D01*
X207566401Y-80643253D01*
X207548223Y-80626777D01*
X207531747Y-80608599D01*
X207517132Y-80588893D01*
X207504520Y-80567850D01*
X207494030Y-80545671D01*
X207485765Y-80522572D01*
X207479804Y-80498773D01*
X207476204Y-80474505D01*
X207475000Y-80450001D01*
X207475000Y-79549999D01*
X207476204Y-79525495D01*
X207479804Y-79501227D01*
X207485765Y-79477428D01*
X207494030Y-79454329D01*
X207504520Y-79432150D01*
X207517132Y-79411107D01*
X207531747Y-79391401D01*
X207548223Y-79373223D01*
X207566401Y-79356747D01*
X207586107Y-79342132D01*
X207607150Y-79329520D01*
X207629329Y-79319030D01*
X207652428Y-79310765D01*
X207676227Y-79304804D01*
X207700495Y-79301204D01*
X207724999Y-79300000D01*
X208375001Y-79300000D01*
X208399505Y-79301204D01*
X208399505Y-79301204D01*
G37*
D12*
X208050000Y-80000000D03*
D10*
G36*
X206349505Y-79301204D02*
G01*
X206373773Y-79304804D01*
X206397572Y-79310765D01*
X206420671Y-79319030D01*
X206442850Y-79329520D01*
X206463893Y-79342132D01*
X206483599Y-79356747D01*
X206501777Y-79373223D01*
X206518253Y-79391401D01*
X206532868Y-79411107D01*
X206545480Y-79432150D01*
X206555970Y-79454329D01*
X206564235Y-79477428D01*
X206570196Y-79501227D01*
X206573796Y-79525495D01*
X206575000Y-79549999D01*
X206575000Y-80450001D01*
X206573796Y-80474505D01*
X206570196Y-80498773D01*
X206564235Y-80522572D01*
X206555970Y-80545671D01*
X206545480Y-80567850D01*
X206532868Y-80588893D01*
X206518253Y-80608599D01*
X206501777Y-80626777D01*
X206483599Y-80643253D01*
X206463893Y-80657868D01*
X206442850Y-80670480D01*
X206420671Y-80680970D01*
X206397572Y-80689235D01*
X206373773Y-80695196D01*
X206349505Y-80698796D01*
X206325001Y-80700000D01*
X205674999Y-80700000D01*
X205650495Y-80698796D01*
X205626227Y-80695196D01*
X205602428Y-80689235D01*
X205579329Y-80680970D01*
X205557150Y-80670480D01*
X205536107Y-80657868D01*
X205516401Y-80643253D01*
X205498223Y-80626777D01*
X205481747Y-80608599D01*
X205467132Y-80588893D01*
X205454520Y-80567850D01*
X205444030Y-80545671D01*
X205435765Y-80522572D01*
X205429804Y-80498773D01*
X205426204Y-80474505D01*
X205425000Y-80450001D01*
X205425000Y-79549999D01*
X205426204Y-79525495D01*
X205429804Y-79501227D01*
X205435765Y-79477428D01*
X205444030Y-79454329D01*
X205454520Y-79432150D01*
X205467132Y-79411107D01*
X205481747Y-79391401D01*
X205498223Y-79373223D01*
X205516401Y-79356747D01*
X205536107Y-79342132D01*
X205557150Y-79329520D01*
X205579329Y-79319030D01*
X205602428Y-79310765D01*
X205626227Y-79304804D01*
X205650495Y-79301204D01*
X205674999Y-79300000D01*
X206325001Y-79300000D01*
X206349505Y-79301204D01*
X206349505Y-79301204D01*
G37*
D12*
X206000000Y-80000000D03*
D10*
G36*
X202399505Y-79301204D02*
G01*
X202423773Y-79304804D01*
X202447572Y-79310765D01*
X202470671Y-79319030D01*
X202492850Y-79329520D01*
X202513893Y-79342132D01*
X202533599Y-79356747D01*
X202551777Y-79373223D01*
X202568253Y-79391401D01*
X202582868Y-79411107D01*
X202595480Y-79432150D01*
X202605970Y-79454329D01*
X202614235Y-79477428D01*
X202620196Y-79501227D01*
X202623796Y-79525495D01*
X202625000Y-79549999D01*
X202625000Y-80450001D01*
X202623796Y-80474505D01*
X202620196Y-80498773D01*
X202614235Y-80522572D01*
X202605970Y-80545671D01*
X202595480Y-80567850D01*
X202582868Y-80588893D01*
X202568253Y-80608599D01*
X202551777Y-80626777D01*
X202533599Y-80643253D01*
X202513893Y-80657868D01*
X202492850Y-80670480D01*
X202470671Y-80680970D01*
X202447572Y-80689235D01*
X202423773Y-80695196D01*
X202399505Y-80698796D01*
X202375001Y-80700000D01*
X201724999Y-80700000D01*
X201700495Y-80698796D01*
X201676227Y-80695196D01*
X201652428Y-80689235D01*
X201629329Y-80680970D01*
X201607150Y-80670480D01*
X201586107Y-80657868D01*
X201566401Y-80643253D01*
X201548223Y-80626777D01*
X201531747Y-80608599D01*
X201517132Y-80588893D01*
X201504520Y-80567850D01*
X201494030Y-80545671D01*
X201485765Y-80522572D01*
X201479804Y-80498773D01*
X201476204Y-80474505D01*
X201475000Y-80450001D01*
X201475000Y-79549999D01*
X201476204Y-79525495D01*
X201479804Y-79501227D01*
X201485765Y-79477428D01*
X201494030Y-79454329D01*
X201504520Y-79432150D01*
X201517132Y-79411107D01*
X201531747Y-79391401D01*
X201548223Y-79373223D01*
X201566401Y-79356747D01*
X201586107Y-79342132D01*
X201607150Y-79329520D01*
X201629329Y-79319030D01*
X201652428Y-79310765D01*
X201676227Y-79304804D01*
X201700495Y-79301204D01*
X201724999Y-79300000D01*
X202375001Y-79300000D01*
X202399505Y-79301204D01*
X202399505Y-79301204D01*
G37*
D12*
X202050000Y-80000000D03*
D10*
G36*
X200349505Y-79301204D02*
G01*
X200373773Y-79304804D01*
X200397572Y-79310765D01*
X200420671Y-79319030D01*
X200442850Y-79329520D01*
X200463893Y-79342132D01*
X200483599Y-79356747D01*
X200501777Y-79373223D01*
X200518253Y-79391401D01*
X200532868Y-79411107D01*
X200545480Y-79432150D01*
X200555970Y-79454329D01*
X200564235Y-79477428D01*
X200570196Y-79501227D01*
X200573796Y-79525495D01*
X200575000Y-79549999D01*
X200575000Y-80450001D01*
X200573796Y-80474505D01*
X200570196Y-80498773D01*
X200564235Y-80522572D01*
X200555970Y-80545671D01*
X200545480Y-80567850D01*
X200532868Y-80588893D01*
X200518253Y-80608599D01*
X200501777Y-80626777D01*
X200483599Y-80643253D01*
X200463893Y-80657868D01*
X200442850Y-80670480D01*
X200420671Y-80680970D01*
X200397572Y-80689235D01*
X200373773Y-80695196D01*
X200349505Y-80698796D01*
X200325001Y-80700000D01*
X199674999Y-80700000D01*
X199650495Y-80698796D01*
X199626227Y-80695196D01*
X199602428Y-80689235D01*
X199579329Y-80680970D01*
X199557150Y-80670480D01*
X199536107Y-80657868D01*
X199516401Y-80643253D01*
X199498223Y-80626777D01*
X199481747Y-80608599D01*
X199467132Y-80588893D01*
X199454520Y-80567850D01*
X199444030Y-80545671D01*
X199435765Y-80522572D01*
X199429804Y-80498773D01*
X199426204Y-80474505D01*
X199425000Y-80450001D01*
X199425000Y-79549999D01*
X199426204Y-79525495D01*
X199429804Y-79501227D01*
X199435765Y-79477428D01*
X199444030Y-79454329D01*
X199454520Y-79432150D01*
X199467132Y-79411107D01*
X199481747Y-79391401D01*
X199498223Y-79373223D01*
X199516401Y-79356747D01*
X199536107Y-79342132D01*
X199557150Y-79329520D01*
X199579329Y-79319030D01*
X199602428Y-79310765D01*
X199626227Y-79304804D01*
X199650495Y-79301204D01*
X199674999Y-79300000D01*
X200325001Y-79300000D01*
X200349505Y-79301204D01*
X200349505Y-79301204D01*
G37*
D12*
X200000000Y-80000000D03*
D10*
G36*
X85574910Y-112426202D02*
G01*
X85599135Y-112429795D01*
X85622891Y-112435746D01*
X85645949Y-112443996D01*
X85668087Y-112454467D01*
X85689093Y-112467057D01*
X85708763Y-112481645D01*
X85726908Y-112498092D01*
X85743355Y-112516237D01*
X85757943Y-112535907D01*
X85770533Y-112556913D01*
X85781004Y-112579051D01*
X85789254Y-112602109D01*
X85795205Y-112625865D01*
X85798798Y-112650090D01*
X85800000Y-112674550D01*
X85800000Y-113325450D01*
X85798798Y-113349910D01*
X85795205Y-113374135D01*
X85789254Y-113397891D01*
X85781004Y-113420949D01*
X85770533Y-113443087D01*
X85757943Y-113464093D01*
X85743355Y-113483763D01*
X85726908Y-113501908D01*
X85708763Y-113518355D01*
X85689093Y-113532943D01*
X85668087Y-113545533D01*
X85645949Y-113556004D01*
X85622891Y-113564254D01*
X85599135Y-113570205D01*
X85574910Y-113573798D01*
X85550450Y-113575000D01*
X84649550Y-113575000D01*
X84625090Y-113573798D01*
X84600865Y-113570205D01*
X84577109Y-113564254D01*
X84554051Y-113556004D01*
X84531913Y-113545533D01*
X84510907Y-113532943D01*
X84491237Y-113518355D01*
X84473092Y-113501908D01*
X84456645Y-113483763D01*
X84442057Y-113464093D01*
X84429467Y-113443087D01*
X84418996Y-113420949D01*
X84410746Y-113397891D01*
X84404795Y-113374135D01*
X84401202Y-113349910D01*
X84400000Y-113325450D01*
X84400000Y-112674550D01*
X84401202Y-112650090D01*
X84404795Y-112625865D01*
X84410746Y-112602109D01*
X84418996Y-112579051D01*
X84429467Y-112556913D01*
X84442057Y-112535907D01*
X84456645Y-112516237D01*
X84473092Y-112498092D01*
X84491237Y-112481645D01*
X84510907Y-112467057D01*
X84531913Y-112454467D01*
X84554051Y-112443996D01*
X84577109Y-112435746D01*
X84600865Y-112429795D01*
X84625090Y-112426202D01*
X84649550Y-112425000D01*
X85550450Y-112425000D01*
X85574910Y-112426202D01*
X85574910Y-112426202D01*
G37*
D12*
X85100000Y-113000000D03*
D10*
G36*
X85574505Y-110376204D02*
G01*
X85598773Y-110379804D01*
X85622572Y-110385765D01*
X85645671Y-110394030D01*
X85667850Y-110404520D01*
X85688893Y-110417132D01*
X85708599Y-110431747D01*
X85726777Y-110448223D01*
X85743253Y-110466401D01*
X85757868Y-110486107D01*
X85770480Y-110507150D01*
X85780970Y-110529329D01*
X85789235Y-110552428D01*
X85795196Y-110576227D01*
X85798796Y-110600495D01*
X85800000Y-110624999D01*
X85800000Y-111275001D01*
X85798796Y-111299505D01*
X85795196Y-111323773D01*
X85789235Y-111347572D01*
X85780970Y-111370671D01*
X85770480Y-111392850D01*
X85757868Y-111413893D01*
X85743253Y-111433599D01*
X85726777Y-111451777D01*
X85708599Y-111468253D01*
X85688893Y-111482868D01*
X85667850Y-111495480D01*
X85645671Y-111505970D01*
X85622572Y-111514235D01*
X85598773Y-111520196D01*
X85574505Y-111523796D01*
X85550001Y-111525000D01*
X84649999Y-111525000D01*
X84625495Y-111523796D01*
X84601227Y-111520196D01*
X84577428Y-111514235D01*
X84554329Y-111505970D01*
X84532150Y-111495480D01*
X84511107Y-111482868D01*
X84491401Y-111468253D01*
X84473223Y-111451777D01*
X84456747Y-111433599D01*
X84442132Y-111413893D01*
X84429520Y-111392850D01*
X84419030Y-111370671D01*
X84410765Y-111347572D01*
X84404804Y-111323773D01*
X84401204Y-111299505D01*
X84400000Y-111275001D01*
X84400000Y-110624999D01*
X84401204Y-110600495D01*
X84404804Y-110576227D01*
X84410765Y-110552428D01*
X84419030Y-110529329D01*
X84429520Y-110507150D01*
X84442132Y-110486107D01*
X84456747Y-110466401D01*
X84473223Y-110448223D01*
X84491401Y-110431747D01*
X84511107Y-110417132D01*
X84532150Y-110404520D01*
X84554329Y-110394030D01*
X84577428Y-110385765D01*
X84601227Y-110379804D01*
X84625495Y-110376204D01*
X84649999Y-110375000D01*
X85550001Y-110375000D01*
X85574505Y-110376204D01*
X85574505Y-110376204D01*
G37*
D12*
X85100000Y-110950000D03*
D10*
G36*
X85574505Y-106426204D02*
G01*
X85598773Y-106429804D01*
X85622572Y-106435765D01*
X85645671Y-106444030D01*
X85667850Y-106454520D01*
X85688893Y-106467132D01*
X85708599Y-106481747D01*
X85726777Y-106498223D01*
X85743253Y-106516401D01*
X85757868Y-106536107D01*
X85770480Y-106557150D01*
X85780970Y-106579329D01*
X85789235Y-106602428D01*
X85795196Y-106626227D01*
X85798796Y-106650495D01*
X85800000Y-106674999D01*
X85800000Y-107325001D01*
X85798796Y-107349505D01*
X85795196Y-107373773D01*
X85789235Y-107397572D01*
X85780970Y-107420671D01*
X85770480Y-107442850D01*
X85757868Y-107463893D01*
X85743253Y-107483599D01*
X85726777Y-107501777D01*
X85708599Y-107518253D01*
X85688893Y-107532868D01*
X85667850Y-107545480D01*
X85645671Y-107555970D01*
X85622572Y-107564235D01*
X85598773Y-107570196D01*
X85574505Y-107573796D01*
X85550001Y-107575000D01*
X84649999Y-107575000D01*
X84625495Y-107573796D01*
X84601227Y-107570196D01*
X84577428Y-107564235D01*
X84554329Y-107555970D01*
X84532150Y-107545480D01*
X84511107Y-107532868D01*
X84491401Y-107518253D01*
X84473223Y-107501777D01*
X84456747Y-107483599D01*
X84442132Y-107463893D01*
X84429520Y-107442850D01*
X84419030Y-107420671D01*
X84410765Y-107397572D01*
X84404804Y-107373773D01*
X84401204Y-107349505D01*
X84400000Y-107325001D01*
X84400000Y-106674999D01*
X84401204Y-106650495D01*
X84404804Y-106626227D01*
X84410765Y-106602428D01*
X84419030Y-106579329D01*
X84429520Y-106557150D01*
X84442132Y-106536107D01*
X84456747Y-106516401D01*
X84473223Y-106498223D01*
X84491401Y-106481747D01*
X84511107Y-106467132D01*
X84532150Y-106454520D01*
X84554329Y-106444030D01*
X84577428Y-106435765D01*
X84601227Y-106429804D01*
X84625495Y-106426204D01*
X84649999Y-106425000D01*
X85550001Y-106425000D01*
X85574505Y-106426204D01*
X85574505Y-106426204D01*
G37*
D12*
X85100000Y-107000000D03*
D10*
G36*
X85574505Y-104376204D02*
G01*
X85598773Y-104379804D01*
X85622572Y-104385765D01*
X85645671Y-104394030D01*
X85667850Y-104404520D01*
X85688893Y-104417132D01*
X85708599Y-104431747D01*
X85726777Y-104448223D01*
X85743253Y-104466401D01*
X85757868Y-104486107D01*
X85770480Y-104507150D01*
X85780970Y-104529329D01*
X85789235Y-104552428D01*
X85795196Y-104576227D01*
X85798796Y-104600495D01*
X85800000Y-104624999D01*
X85800000Y-105275001D01*
X85798796Y-105299505D01*
X85795196Y-105323773D01*
X85789235Y-105347572D01*
X85780970Y-105370671D01*
X85770480Y-105392850D01*
X85757868Y-105413893D01*
X85743253Y-105433599D01*
X85726777Y-105451777D01*
X85708599Y-105468253D01*
X85688893Y-105482868D01*
X85667850Y-105495480D01*
X85645671Y-105505970D01*
X85622572Y-105514235D01*
X85598773Y-105520196D01*
X85574505Y-105523796D01*
X85550001Y-105525000D01*
X84649999Y-105525000D01*
X84625495Y-105523796D01*
X84601227Y-105520196D01*
X84577428Y-105514235D01*
X84554329Y-105505970D01*
X84532150Y-105495480D01*
X84511107Y-105482868D01*
X84491401Y-105468253D01*
X84473223Y-105451777D01*
X84456747Y-105433599D01*
X84442132Y-105413893D01*
X84429520Y-105392850D01*
X84419030Y-105370671D01*
X84410765Y-105347572D01*
X84404804Y-105323773D01*
X84401204Y-105299505D01*
X84400000Y-105275001D01*
X84400000Y-104624999D01*
X84401204Y-104600495D01*
X84404804Y-104576227D01*
X84410765Y-104552428D01*
X84419030Y-104529329D01*
X84429520Y-104507150D01*
X84442132Y-104486107D01*
X84456747Y-104466401D01*
X84473223Y-104448223D01*
X84491401Y-104431747D01*
X84511107Y-104417132D01*
X84532150Y-104404520D01*
X84554329Y-104394030D01*
X84577428Y-104385765D01*
X84601227Y-104379804D01*
X84625495Y-104376204D01*
X84649999Y-104375000D01*
X85550001Y-104375000D01*
X85574505Y-104376204D01*
X85574505Y-104376204D01*
G37*
D12*
X85100000Y-104950000D03*
D10*
G36*
X208349505Y-90301204D02*
G01*
X208373773Y-90304804D01*
X208397572Y-90310765D01*
X208420671Y-90319030D01*
X208442850Y-90329520D01*
X208463893Y-90342132D01*
X208483599Y-90356747D01*
X208501777Y-90373223D01*
X208518253Y-90391401D01*
X208532868Y-90411107D01*
X208545480Y-90432150D01*
X208555970Y-90454329D01*
X208564235Y-90477428D01*
X208570196Y-90501227D01*
X208573796Y-90525495D01*
X208575000Y-90549999D01*
X208575000Y-91450001D01*
X208573796Y-91474505D01*
X208570196Y-91498773D01*
X208564235Y-91522572D01*
X208555970Y-91545671D01*
X208545480Y-91567850D01*
X208532868Y-91588893D01*
X208518253Y-91608599D01*
X208501777Y-91626777D01*
X208483599Y-91643253D01*
X208463893Y-91657868D01*
X208442850Y-91670480D01*
X208420671Y-91680970D01*
X208397572Y-91689235D01*
X208373773Y-91695196D01*
X208349505Y-91698796D01*
X208325001Y-91700000D01*
X207674999Y-91700000D01*
X207650495Y-91698796D01*
X207626227Y-91695196D01*
X207602428Y-91689235D01*
X207579329Y-91680970D01*
X207557150Y-91670480D01*
X207536107Y-91657868D01*
X207516401Y-91643253D01*
X207498223Y-91626777D01*
X207481747Y-91608599D01*
X207467132Y-91588893D01*
X207454520Y-91567850D01*
X207444030Y-91545671D01*
X207435765Y-91522572D01*
X207429804Y-91498773D01*
X207426204Y-91474505D01*
X207425000Y-91450001D01*
X207425000Y-90549999D01*
X207426204Y-90525495D01*
X207429804Y-90501227D01*
X207435765Y-90477428D01*
X207444030Y-90454329D01*
X207454520Y-90432150D01*
X207467132Y-90411107D01*
X207481747Y-90391401D01*
X207498223Y-90373223D01*
X207516401Y-90356747D01*
X207536107Y-90342132D01*
X207557150Y-90329520D01*
X207579329Y-90319030D01*
X207602428Y-90310765D01*
X207626227Y-90304804D01*
X207650495Y-90301204D01*
X207674999Y-90300000D01*
X208325001Y-90300000D01*
X208349505Y-90301204D01*
X208349505Y-90301204D01*
G37*
D12*
X208000000Y-91000000D03*
D10*
G36*
X206299505Y-90301204D02*
G01*
X206323773Y-90304804D01*
X206347572Y-90310765D01*
X206370671Y-90319030D01*
X206392850Y-90329520D01*
X206413893Y-90342132D01*
X206433599Y-90356747D01*
X206451777Y-90373223D01*
X206468253Y-90391401D01*
X206482868Y-90411107D01*
X206495480Y-90432150D01*
X206505970Y-90454329D01*
X206514235Y-90477428D01*
X206520196Y-90501227D01*
X206523796Y-90525495D01*
X206525000Y-90549999D01*
X206525000Y-91450001D01*
X206523796Y-91474505D01*
X206520196Y-91498773D01*
X206514235Y-91522572D01*
X206505970Y-91545671D01*
X206495480Y-91567850D01*
X206482868Y-91588893D01*
X206468253Y-91608599D01*
X206451777Y-91626777D01*
X206433599Y-91643253D01*
X206413893Y-91657868D01*
X206392850Y-91670480D01*
X206370671Y-91680970D01*
X206347572Y-91689235D01*
X206323773Y-91695196D01*
X206299505Y-91698796D01*
X206275001Y-91700000D01*
X205624999Y-91700000D01*
X205600495Y-91698796D01*
X205576227Y-91695196D01*
X205552428Y-91689235D01*
X205529329Y-91680970D01*
X205507150Y-91670480D01*
X205486107Y-91657868D01*
X205466401Y-91643253D01*
X205448223Y-91626777D01*
X205431747Y-91608599D01*
X205417132Y-91588893D01*
X205404520Y-91567850D01*
X205394030Y-91545671D01*
X205385765Y-91522572D01*
X205379804Y-91498773D01*
X205376204Y-91474505D01*
X205375000Y-91450001D01*
X205375000Y-90549999D01*
X205376204Y-90525495D01*
X205379804Y-90501227D01*
X205385765Y-90477428D01*
X205394030Y-90454329D01*
X205404520Y-90432150D01*
X205417132Y-90411107D01*
X205431747Y-90391401D01*
X205448223Y-90373223D01*
X205466401Y-90356747D01*
X205486107Y-90342132D01*
X205507150Y-90329520D01*
X205529329Y-90319030D01*
X205552428Y-90310765D01*
X205576227Y-90304804D01*
X205600495Y-90301204D01*
X205624999Y-90300000D01*
X206275001Y-90300000D01*
X206299505Y-90301204D01*
X206299505Y-90301204D01*
G37*
D12*
X205950000Y-91000000D03*
D10*
G36*
X202349505Y-90301204D02*
G01*
X202373773Y-90304804D01*
X202397572Y-90310765D01*
X202420671Y-90319030D01*
X202442850Y-90329520D01*
X202463893Y-90342132D01*
X202483599Y-90356747D01*
X202501777Y-90373223D01*
X202518253Y-90391401D01*
X202532868Y-90411107D01*
X202545480Y-90432150D01*
X202555970Y-90454329D01*
X202564235Y-90477428D01*
X202570196Y-90501227D01*
X202573796Y-90525495D01*
X202575000Y-90549999D01*
X202575000Y-91450001D01*
X202573796Y-91474505D01*
X202570196Y-91498773D01*
X202564235Y-91522572D01*
X202555970Y-91545671D01*
X202545480Y-91567850D01*
X202532868Y-91588893D01*
X202518253Y-91608599D01*
X202501777Y-91626777D01*
X202483599Y-91643253D01*
X202463893Y-91657868D01*
X202442850Y-91670480D01*
X202420671Y-91680970D01*
X202397572Y-91689235D01*
X202373773Y-91695196D01*
X202349505Y-91698796D01*
X202325001Y-91700000D01*
X201674999Y-91700000D01*
X201650495Y-91698796D01*
X201626227Y-91695196D01*
X201602428Y-91689235D01*
X201579329Y-91680970D01*
X201557150Y-91670480D01*
X201536107Y-91657868D01*
X201516401Y-91643253D01*
X201498223Y-91626777D01*
X201481747Y-91608599D01*
X201467132Y-91588893D01*
X201454520Y-91567850D01*
X201444030Y-91545671D01*
X201435765Y-91522572D01*
X201429804Y-91498773D01*
X201426204Y-91474505D01*
X201425000Y-91450001D01*
X201425000Y-90549999D01*
X201426204Y-90525495D01*
X201429804Y-90501227D01*
X201435765Y-90477428D01*
X201444030Y-90454329D01*
X201454520Y-90432150D01*
X201467132Y-90411107D01*
X201481747Y-90391401D01*
X201498223Y-90373223D01*
X201516401Y-90356747D01*
X201536107Y-90342132D01*
X201557150Y-90329520D01*
X201579329Y-90319030D01*
X201602428Y-90310765D01*
X201626227Y-90304804D01*
X201650495Y-90301204D01*
X201674999Y-90300000D01*
X202325001Y-90300000D01*
X202349505Y-90301204D01*
X202349505Y-90301204D01*
G37*
D12*
X202000000Y-91000000D03*
D10*
G36*
X200299505Y-90301204D02*
G01*
X200323773Y-90304804D01*
X200347572Y-90310765D01*
X200370671Y-90319030D01*
X200392850Y-90329520D01*
X200413893Y-90342132D01*
X200433599Y-90356747D01*
X200451777Y-90373223D01*
X200468253Y-90391401D01*
X200482868Y-90411107D01*
X200495480Y-90432150D01*
X200505970Y-90454329D01*
X200514235Y-90477428D01*
X200520196Y-90501227D01*
X200523796Y-90525495D01*
X200525000Y-90549999D01*
X200525000Y-91450001D01*
X200523796Y-91474505D01*
X200520196Y-91498773D01*
X200514235Y-91522572D01*
X200505970Y-91545671D01*
X200495480Y-91567850D01*
X200482868Y-91588893D01*
X200468253Y-91608599D01*
X200451777Y-91626777D01*
X200433599Y-91643253D01*
X200413893Y-91657868D01*
X200392850Y-91670480D01*
X200370671Y-91680970D01*
X200347572Y-91689235D01*
X200323773Y-91695196D01*
X200299505Y-91698796D01*
X200275001Y-91700000D01*
X199624999Y-91700000D01*
X199600495Y-91698796D01*
X199576227Y-91695196D01*
X199552428Y-91689235D01*
X199529329Y-91680970D01*
X199507150Y-91670480D01*
X199486107Y-91657868D01*
X199466401Y-91643253D01*
X199448223Y-91626777D01*
X199431747Y-91608599D01*
X199417132Y-91588893D01*
X199404520Y-91567850D01*
X199394030Y-91545671D01*
X199385765Y-91522572D01*
X199379804Y-91498773D01*
X199376204Y-91474505D01*
X199375000Y-91450001D01*
X199375000Y-90549999D01*
X199376204Y-90525495D01*
X199379804Y-90501227D01*
X199385765Y-90477428D01*
X199394030Y-90454329D01*
X199404520Y-90432150D01*
X199417132Y-90411107D01*
X199431747Y-90391401D01*
X199448223Y-90373223D01*
X199466401Y-90356747D01*
X199486107Y-90342132D01*
X199507150Y-90329520D01*
X199529329Y-90319030D01*
X199552428Y-90310765D01*
X199576227Y-90304804D01*
X199600495Y-90301204D01*
X199624999Y-90300000D01*
X200275001Y-90300000D01*
X200299505Y-90301204D01*
X200299505Y-90301204D01*
G37*
D12*
X199950000Y-91000000D03*
D10*
G36*
X76399505Y-110301204D02*
G01*
X76423773Y-110304804D01*
X76447572Y-110310765D01*
X76470671Y-110319030D01*
X76492850Y-110329520D01*
X76513893Y-110342132D01*
X76533599Y-110356747D01*
X76551777Y-110373223D01*
X76568253Y-110391401D01*
X76582868Y-110411107D01*
X76595480Y-110432150D01*
X76605970Y-110454329D01*
X76614235Y-110477428D01*
X76620196Y-110501227D01*
X76623796Y-110525495D01*
X76625000Y-110549999D01*
X76625000Y-111450001D01*
X76623796Y-111474505D01*
X76620196Y-111498773D01*
X76614235Y-111522572D01*
X76605970Y-111545671D01*
X76595480Y-111567850D01*
X76582868Y-111588893D01*
X76568253Y-111608599D01*
X76551777Y-111626777D01*
X76533599Y-111643253D01*
X76513893Y-111657868D01*
X76492850Y-111670480D01*
X76470671Y-111680970D01*
X76447572Y-111689235D01*
X76423773Y-111695196D01*
X76399505Y-111698796D01*
X76375001Y-111700000D01*
X75724999Y-111700000D01*
X75700495Y-111698796D01*
X75676227Y-111695196D01*
X75652428Y-111689235D01*
X75629329Y-111680970D01*
X75607150Y-111670480D01*
X75586107Y-111657868D01*
X75566401Y-111643253D01*
X75548223Y-111626777D01*
X75531747Y-111608599D01*
X75517132Y-111588893D01*
X75504520Y-111567850D01*
X75494030Y-111545671D01*
X75485765Y-111522572D01*
X75479804Y-111498773D01*
X75476204Y-111474505D01*
X75475000Y-111450001D01*
X75475000Y-110549999D01*
X75476204Y-110525495D01*
X75479804Y-110501227D01*
X75485765Y-110477428D01*
X75494030Y-110454329D01*
X75504520Y-110432150D01*
X75517132Y-110411107D01*
X75531747Y-110391401D01*
X75548223Y-110373223D01*
X75566401Y-110356747D01*
X75586107Y-110342132D01*
X75607150Y-110329520D01*
X75629329Y-110319030D01*
X75652428Y-110310765D01*
X75676227Y-110304804D01*
X75700495Y-110301204D01*
X75724999Y-110300000D01*
X76375001Y-110300000D01*
X76399505Y-110301204D01*
X76399505Y-110301204D01*
G37*
D12*
X76050000Y-111000000D03*
D10*
G36*
X74349505Y-110301204D02*
G01*
X74373773Y-110304804D01*
X74397572Y-110310765D01*
X74420671Y-110319030D01*
X74442850Y-110329520D01*
X74463893Y-110342132D01*
X74483599Y-110356747D01*
X74501777Y-110373223D01*
X74518253Y-110391401D01*
X74532868Y-110411107D01*
X74545480Y-110432150D01*
X74555970Y-110454329D01*
X74564235Y-110477428D01*
X74570196Y-110501227D01*
X74573796Y-110525495D01*
X74575000Y-110549999D01*
X74575000Y-111450001D01*
X74573796Y-111474505D01*
X74570196Y-111498773D01*
X74564235Y-111522572D01*
X74555970Y-111545671D01*
X74545480Y-111567850D01*
X74532868Y-111588893D01*
X74518253Y-111608599D01*
X74501777Y-111626777D01*
X74483599Y-111643253D01*
X74463893Y-111657868D01*
X74442850Y-111670480D01*
X74420671Y-111680970D01*
X74397572Y-111689235D01*
X74373773Y-111695196D01*
X74349505Y-111698796D01*
X74325001Y-111700000D01*
X73674999Y-111700000D01*
X73650495Y-111698796D01*
X73626227Y-111695196D01*
X73602428Y-111689235D01*
X73579329Y-111680970D01*
X73557150Y-111670480D01*
X73536107Y-111657868D01*
X73516401Y-111643253D01*
X73498223Y-111626777D01*
X73481747Y-111608599D01*
X73467132Y-111588893D01*
X73454520Y-111567850D01*
X73444030Y-111545671D01*
X73435765Y-111522572D01*
X73429804Y-111498773D01*
X73426204Y-111474505D01*
X73425000Y-111450001D01*
X73425000Y-110549999D01*
X73426204Y-110525495D01*
X73429804Y-110501227D01*
X73435765Y-110477428D01*
X73444030Y-110454329D01*
X73454520Y-110432150D01*
X73467132Y-110411107D01*
X73481747Y-110391401D01*
X73498223Y-110373223D01*
X73516401Y-110356747D01*
X73536107Y-110342132D01*
X73557150Y-110329520D01*
X73579329Y-110319030D01*
X73602428Y-110310765D01*
X73626227Y-110304804D01*
X73650495Y-110301204D01*
X73674999Y-110300000D01*
X74325001Y-110300000D01*
X74349505Y-110301204D01*
X74349505Y-110301204D01*
G37*
D12*
X74000000Y-111000000D03*
D10*
G36*
X189349505Y-101801204D02*
G01*
X189373773Y-101804804D01*
X189397572Y-101810765D01*
X189420671Y-101819030D01*
X189442850Y-101829520D01*
X189463893Y-101842132D01*
X189483599Y-101856747D01*
X189501777Y-101873223D01*
X189518253Y-101891401D01*
X189532868Y-101911107D01*
X189545480Y-101932150D01*
X189555970Y-101954329D01*
X189564235Y-101977428D01*
X189570196Y-102001227D01*
X189573796Y-102025495D01*
X189575000Y-102049999D01*
X189575000Y-102950001D01*
X189573796Y-102974505D01*
X189570196Y-102998773D01*
X189564235Y-103022572D01*
X189555970Y-103045671D01*
X189545480Y-103067850D01*
X189532868Y-103088893D01*
X189518253Y-103108599D01*
X189501777Y-103126777D01*
X189483599Y-103143253D01*
X189463893Y-103157868D01*
X189442850Y-103170480D01*
X189420671Y-103180970D01*
X189397572Y-103189235D01*
X189373773Y-103195196D01*
X189349505Y-103198796D01*
X189325001Y-103200000D01*
X188674999Y-103200000D01*
X188650495Y-103198796D01*
X188626227Y-103195196D01*
X188602428Y-103189235D01*
X188579329Y-103180970D01*
X188557150Y-103170480D01*
X188536107Y-103157868D01*
X188516401Y-103143253D01*
X188498223Y-103126777D01*
X188481747Y-103108599D01*
X188467132Y-103088893D01*
X188454520Y-103067850D01*
X188444030Y-103045671D01*
X188435765Y-103022572D01*
X188429804Y-102998773D01*
X188426204Y-102974505D01*
X188425000Y-102950001D01*
X188425000Y-102049999D01*
X188426204Y-102025495D01*
X188429804Y-102001227D01*
X188435765Y-101977428D01*
X188444030Y-101954329D01*
X188454520Y-101932150D01*
X188467132Y-101911107D01*
X188481747Y-101891401D01*
X188498223Y-101873223D01*
X188516401Y-101856747D01*
X188536107Y-101842132D01*
X188557150Y-101829520D01*
X188579329Y-101819030D01*
X188602428Y-101810765D01*
X188626227Y-101804804D01*
X188650495Y-101801204D01*
X188674999Y-101800000D01*
X189325001Y-101800000D01*
X189349505Y-101801204D01*
X189349505Y-101801204D01*
G37*
D12*
X189000000Y-102500000D03*
D10*
G36*
X191399505Y-101801204D02*
G01*
X191423773Y-101804804D01*
X191447572Y-101810765D01*
X191470671Y-101819030D01*
X191492850Y-101829520D01*
X191513893Y-101842132D01*
X191533599Y-101856747D01*
X191551777Y-101873223D01*
X191568253Y-101891401D01*
X191582868Y-101911107D01*
X191595480Y-101932150D01*
X191605970Y-101954329D01*
X191614235Y-101977428D01*
X191620196Y-102001227D01*
X191623796Y-102025495D01*
X191625000Y-102049999D01*
X191625000Y-102950001D01*
X191623796Y-102974505D01*
X191620196Y-102998773D01*
X191614235Y-103022572D01*
X191605970Y-103045671D01*
X191595480Y-103067850D01*
X191582868Y-103088893D01*
X191568253Y-103108599D01*
X191551777Y-103126777D01*
X191533599Y-103143253D01*
X191513893Y-103157868D01*
X191492850Y-103170480D01*
X191470671Y-103180970D01*
X191447572Y-103189235D01*
X191423773Y-103195196D01*
X191399505Y-103198796D01*
X191375001Y-103200000D01*
X190724999Y-103200000D01*
X190700495Y-103198796D01*
X190676227Y-103195196D01*
X190652428Y-103189235D01*
X190629329Y-103180970D01*
X190607150Y-103170480D01*
X190586107Y-103157868D01*
X190566401Y-103143253D01*
X190548223Y-103126777D01*
X190531747Y-103108599D01*
X190517132Y-103088893D01*
X190504520Y-103067850D01*
X190494030Y-103045671D01*
X190485765Y-103022572D01*
X190479804Y-102998773D01*
X190476204Y-102974505D01*
X190475000Y-102950001D01*
X190475000Y-102049999D01*
X190476204Y-102025495D01*
X190479804Y-102001227D01*
X190485765Y-101977428D01*
X190494030Y-101954329D01*
X190504520Y-101932150D01*
X190517132Y-101911107D01*
X190531747Y-101891401D01*
X190548223Y-101873223D01*
X190566401Y-101856747D01*
X190586107Y-101842132D01*
X190607150Y-101829520D01*
X190629329Y-101819030D01*
X190652428Y-101810765D01*
X190676227Y-101804804D01*
X190700495Y-101801204D01*
X190724999Y-101800000D01*
X191375001Y-101800000D01*
X191399505Y-101801204D01*
X191399505Y-101801204D01*
G37*
D12*
X191050000Y-102500000D03*
D17*
X76000000Y-107000000D03*
X74000000Y-107950000D03*
X74000000Y-106050000D03*
X189000000Y-106500000D03*
X191000000Y-105550000D03*
X191000000Y-107450000D03*
D10*
G36*
X74512004Y-100676204D02*
G01*
X74536273Y-100679804D01*
X74560071Y-100685765D01*
X74583171Y-100694030D01*
X74605349Y-100704520D01*
X74626393Y-100717133D01*
X74646098Y-100731747D01*
X74664277Y-100748223D01*
X74680753Y-100766402D01*
X74695367Y-100786107D01*
X74707980Y-100807151D01*
X74718470Y-100829329D01*
X74726735Y-100852429D01*
X74732696Y-100876227D01*
X74736296Y-100900496D01*
X74737500Y-100925000D01*
X74737500Y-103075000D01*
X74736296Y-103099504D01*
X74732696Y-103123773D01*
X74726735Y-103147571D01*
X74718470Y-103170671D01*
X74707980Y-103192849D01*
X74695367Y-103213893D01*
X74680753Y-103233598D01*
X74664277Y-103251777D01*
X74646098Y-103268253D01*
X74626393Y-103282867D01*
X74605349Y-103295480D01*
X74583171Y-103305970D01*
X74560071Y-103314235D01*
X74536273Y-103320196D01*
X74512004Y-103323796D01*
X74487500Y-103325000D01*
X73562500Y-103325000D01*
X73537996Y-103323796D01*
X73513727Y-103320196D01*
X73489929Y-103314235D01*
X73466829Y-103305970D01*
X73444651Y-103295480D01*
X73423607Y-103282867D01*
X73403902Y-103268253D01*
X73385723Y-103251777D01*
X73369247Y-103233598D01*
X73354633Y-103213893D01*
X73342020Y-103192849D01*
X73331530Y-103170671D01*
X73323265Y-103147571D01*
X73317304Y-103123773D01*
X73313704Y-103099504D01*
X73312500Y-103075000D01*
X73312500Y-100925000D01*
X73313704Y-100900496D01*
X73317304Y-100876227D01*
X73323265Y-100852429D01*
X73331530Y-100829329D01*
X73342020Y-100807151D01*
X73354633Y-100786107D01*
X73369247Y-100766402D01*
X73385723Y-100748223D01*
X73403902Y-100731747D01*
X73423607Y-100717133D01*
X73444651Y-100704520D01*
X73466829Y-100694030D01*
X73489929Y-100685765D01*
X73513727Y-100679804D01*
X73537996Y-100676204D01*
X73562500Y-100675000D01*
X74487500Y-100675000D01*
X74512004Y-100676204D01*
X74512004Y-100676204D01*
G37*
D18*
X74025000Y-102000000D03*
D10*
G36*
X77487004Y-100676204D02*
G01*
X77511273Y-100679804D01*
X77535071Y-100685765D01*
X77558171Y-100694030D01*
X77580349Y-100704520D01*
X77601393Y-100717133D01*
X77621098Y-100731747D01*
X77639277Y-100748223D01*
X77655753Y-100766402D01*
X77670367Y-100786107D01*
X77682980Y-100807151D01*
X77693470Y-100829329D01*
X77701735Y-100852429D01*
X77707696Y-100876227D01*
X77711296Y-100900496D01*
X77712500Y-100925000D01*
X77712500Y-103075000D01*
X77711296Y-103099504D01*
X77707696Y-103123773D01*
X77701735Y-103147571D01*
X77693470Y-103170671D01*
X77682980Y-103192849D01*
X77670367Y-103213893D01*
X77655753Y-103233598D01*
X77639277Y-103251777D01*
X77621098Y-103268253D01*
X77601393Y-103282867D01*
X77580349Y-103295480D01*
X77558171Y-103305970D01*
X77535071Y-103314235D01*
X77511273Y-103320196D01*
X77487004Y-103323796D01*
X77462500Y-103325000D01*
X76537500Y-103325000D01*
X76512996Y-103323796D01*
X76488727Y-103320196D01*
X76464929Y-103314235D01*
X76441829Y-103305970D01*
X76419651Y-103295480D01*
X76398607Y-103282867D01*
X76378902Y-103268253D01*
X76360723Y-103251777D01*
X76344247Y-103233598D01*
X76329633Y-103213893D01*
X76317020Y-103192849D01*
X76306530Y-103170671D01*
X76298265Y-103147571D01*
X76292304Y-103123773D01*
X76288704Y-103099504D01*
X76287500Y-103075000D01*
X76287500Y-100925000D01*
X76288704Y-100900496D01*
X76292304Y-100876227D01*
X76298265Y-100852429D01*
X76306530Y-100829329D01*
X76317020Y-100807151D01*
X76329633Y-100786107D01*
X76344247Y-100766402D01*
X76360723Y-100748223D01*
X76378902Y-100731747D01*
X76398607Y-100717133D01*
X76419651Y-100704520D01*
X76441829Y-100694030D01*
X76464929Y-100685765D01*
X76488727Y-100679804D01*
X76512996Y-100676204D01*
X76537500Y-100675000D01*
X77462500Y-100675000D01*
X77487004Y-100676204D01*
X77487004Y-100676204D01*
G37*
D18*
X77000000Y-102000000D03*
D10*
G36*
X191487004Y-110176204D02*
G01*
X191511273Y-110179804D01*
X191535071Y-110185765D01*
X191558171Y-110194030D01*
X191580349Y-110204520D01*
X191601393Y-110217133D01*
X191621098Y-110231747D01*
X191639277Y-110248223D01*
X191655753Y-110266402D01*
X191670367Y-110286107D01*
X191682980Y-110307151D01*
X191693470Y-110329329D01*
X191701735Y-110352429D01*
X191707696Y-110376227D01*
X191711296Y-110400496D01*
X191712500Y-110425000D01*
X191712500Y-112575000D01*
X191711296Y-112599504D01*
X191707696Y-112623773D01*
X191701735Y-112647571D01*
X191693470Y-112670671D01*
X191682980Y-112692849D01*
X191670367Y-112713893D01*
X191655753Y-112733598D01*
X191639277Y-112751777D01*
X191621098Y-112768253D01*
X191601393Y-112782867D01*
X191580349Y-112795480D01*
X191558171Y-112805970D01*
X191535071Y-112814235D01*
X191511273Y-112820196D01*
X191487004Y-112823796D01*
X191462500Y-112825000D01*
X190537500Y-112825000D01*
X190512996Y-112823796D01*
X190488727Y-112820196D01*
X190464929Y-112814235D01*
X190441829Y-112805970D01*
X190419651Y-112795480D01*
X190398607Y-112782867D01*
X190378902Y-112768253D01*
X190360723Y-112751777D01*
X190344247Y-112733598D01*
X190329633Y-112713893D01*
X190317020Y-112692849D01*
X190306530Y-112670671D01*
X190298265Y-112647571D01*
X190292304Y-112623773D01*
X190288704Y-112599504D01*
X190287500Y-112575000D01*
X190287500Y-110425000D01*
X190288704Y-110400496D01*
X190292304Y-110376227D01*
X190298265Y-110352429D01*
X190306530Y-110329329D01*
X190317020Y-110307151D01*
X190329633Y-110286107D01*
X190344247Y-110266402D01*
X190360723Y-110248223D01*
X190378902Y-110231747D01*
X190398607Y-110217133D01*
X190419651Y-110204520D01*
X190441829Y-110194030D01*
X190464929Y-110185765D01*
X190488727Y-110179804D01*
X190512996Y-110176204D01*
X190537500Y-110175000D01*
X191462500Y-110175000D01*
X191487004Y-110176204D01*
X191487004Y-110176204D01*
G37*
D18*
X191000000Y-111500000D03*
D10*
G36*
X188512004Y-110176204D02*
G01*
X188536273Y-110179804D01*
X188560071Y-110185765D01*
X188583171Y-110194030D01*
X188605349Y-110204520D01*
X188626393Y-110217133D01*
X188646098Y-110231747D01*
X188664277Y-110248223D01*
X188680753Y-110266402D01*
X188695367Y-110286107D01*
X188707980Y-110307151D01*
X188718470Y-110329329D01*
X188726735Y-110352429D01*
X188732696Y-110376227D01*
X188736296Y-110400496D01*
X188737500Y-110425000D01*
X188737500Y-112575000D01*
X188736296Y-112599504D01*
X188732696Y-112623773D01*
X188726735Y-112647571D01*
X188718470Y-112670671D01*
X188707980Y-112692849D01*
X188695367Y-112713893D01*
X188680753Y-112733598D01*
X188664277Y-112751777D01*
X188646098Y-112768253D01*
X188626393Y-112782867D01*
X188605349Y-112795480D01*
X188583171Y-112805970D01*
X188560071Y-112814235D01*
X188536273Y-112820196D01*
X188512004Y-112823796D01*
X188487500Y-112825000D01*
X187562500Y-112825000D01*
X187537996Y-112823796D01*
X187513727Y-112820196D01*
X187489929Y-112814235D01*
X187466829Y-112805970D01*
X187444651Y-112795480D01*
X187423607Y-112782867D01*
X187403902Y-112768253D01*
X187385723Y-112751777D01*
X187369247Y-112733598D01*
X187354633Y-112713893D01*
X187342020Y-112692849D01*
X187331530Y-112670671D01*
X187323265Y-112647571D01*
X187317304Y-112623773D01*
X187313704Y-112599504D01*
X187312500Y-112575000D01*
X187312500Y-110425000D01*
X187313704Y-110400496D01*
X187317304Y-110376227D01*
X187323265Y-110352429D01*
X187331530Y-110329329D01*
X187342020Y-110307151D01*
X187354633Y-110286107D01*
X187369247Y-110266402D01*
X187385723Y-110248223D01*
X187403902Y-110231747D01*
X187423607Y-110217133D01*
X187444651Y-110204520D01*
X187466829Y-110194030D01*
X187489929Y-110185765D01*
X187513727Y-110179804D01*
X187537996Y-110176204D01*
X187562500Y-110175000D01*
X188487500Y-110175000D01*
X188512004Y-110176204D01*
X188512004Y-110176204D01*
G37*
D18*
X188025000Y-111500000D03*
D10*
G36*
X65974505Y-112476204D02*
G01*
X65998773Y-112479804D01*
X66022572Y-112485765D01*
X66045671Y-112494030D01*
X66067850Y-112504520D01*
X66088893Y-112517132D01*
X66108599Y-112531747D01*
X66126777Y-112548223D01*
X66143253Y-112566401D01*
X66157868Y-112586107D01*
X66170480Y-112607150D01*
X66180970Y-112629329D01*
X66189235Y-112652428D01*
X66195196Y-112676227D01*
X66198796Y-112700495D01*
X66200000Y-112724999D01*
X66200000Y-113375001D01*
X66198796Y-113399505D01*
X66195196Y-113423773D01*
X66189235Y-113447572D01*
X66180970Y-113470671D01*
X66170480Y-113492850D01*
X66157868Y-113513893D01*
X66143253Y-113533599D01*
X66126777Y-113551777D01*
X66108599Y-113568253D01*
X66088893Y-113582868D01*
X66067850Y-113595480D01*
X66045671Y-113605970D01*
X66022572Y-113614235D01*
X65998773Y-113620196D01*
X65974505Y-113623796D01*
X65950001Y-113625000D01*
X65049999Y-113625000D01*
X65025495Y-113623796D01*
X65001227Y-113620196D01*
X64977428Y-113614235D01*
X64954329Y-113605970D01*
X64932150Y-113595480D01*
X64911107Y-113582868D01*
X64891401Y-113568253D01*
X64873223Y-113551777D01*
X64856747Y-113533599D01*
X64842132Y-113513893D01*
X64829520Y-113492850D01*
X64819030Y-113470671D01*
X64810765Y-113447572D01*
X64804804Y-113423773D01*
X64801204Y-113399505D01*
X64800000Y-113375001D01*
X64800000Y-112724999D01*
X64801204Y-112700495D01*
X64804804Y-112676227D01*
X64810765Y-112652428D01*
X64819030Y-112629329D01*
X64829520Y-112607150D01*
X64842132Y-112586107D01*
X64856747Y-112566401D01*
X64873223Y-112548223D01*
X64891401Y-112531747D01*
X64911107Y-112517132D01*
X64932150Y-112504520D01*
X64954329Y-112494030D01*
X64977428Y-112485765D01*
X65001227Y-112479804D01*
X65025495Y-112476204D01*
X65049999Y-112475000D01*
X65950001Y-112475000D01*
X65974505Y-112476204D01*
X65974505Y-112476204D01*
G37*
D12*
X65500000Y-113050000D03*
D10*
G36*
X65974505Y-110426204D02*
G01*
X65998773Y-110429804D01*
X66022572Y-110435765D01*
X66045671Y-110444030D01*
X66067850Y-110454520D01*
X66088893Y-110467132D01*
X66108599Y-110481747D01*
X66126777Y-110498223D01*
X66143253Y-110516401D01*
X66157868Y-110536107D01*
X66170480Y-110557150D01*
X66180970Y-110579329D01*
X66189235Y-110602428D01*
X66195196Y-110626227D01*
X66198796Y-110650495D01*
X66200000Y-110674999D01*
X66200000Y-111325001D01*
X66198796Y-111349505D01*
X66195196Y-111373773D01*
X66189235Y-111397572D01*
X66180970Y-111420671D01*
X66170480Y-111442850D01*
X66157868Y-111463893D01*
X66143253Y-111483599D01*
X66126777Y-111501777D01*
X66108599Y-111518253D01*
X66088893Y-111532868D01*
X66067850Y-111545480D01*
X66045671Y-111555970D01*
X66022572Y-111564235D01*
X65998773Y-111570196D01*
X65974505Y-111573796D01*
X65950001Y-111575000D01*
X65049999Y-111575000D01*
X65025495Y-111573796D01*
X65001227Y-111570196D01*
X64977428Y-111564235D01*
X64954329Y-111555970D01*
X64932150Y-111545480D01*
X64911107Y-111532868D01*
X64891401Y-111518253D01*
X64873223Y-111501777D01*
X64856747Y-111483599D01*
X64842132Y-111463893D01*
X64829520Y-111442850D01*
X64819030Y-111420671D01*
X64810765Y-111397572D01*
X64804804Y-111373773D01*
X64801204Y-111349505D01*
X64800000Y-111325001D01*
X64800000Y-110674999D01*
X64801204Y-110650495D01*
X64804804Y-110626227D01*
X64810765Y-110602428D01*
X64819030Y-110579329D01*
X64829520Y-110557150D01*
X64842132Y-110536107D01*
X64856747Y-110516401D01*
X64873223Y-110498223D01*
X64891401Y-110481747D01*
X64911107Y-110467132D01*
X64932150Y-110454520D01*
X64954329Y-110444030D01*
X64977428Y-110435765D01*
X65001227Y-110429804D01*
X65025495Y-110426204D01*
X65049999Y-110425000D01*
X65950001Y-110425000D01*
X65974505Y-110426204D01*
X65974505Y-110426204D01*
G37*
D12*
X65500000Y-111000000D03*
D10*
G36*
X199974505Y-99876204D02*
G01*
X199998773Y-99879804D01*
X200022572Y-99885765D01*
X200045671Y-99894030D01*
X200067850Y-99904520D01*
X200088893Y-99917132D01*
X200108599Y-99931747D01*
X200126777Y-99948223D01*
X200143253Y-99966401D01*
X200157868Y-99986107D01*
X200170480Y-100007150D01*
X200180970Y-100029329D01*
X200189235Y-100052428D01*
X200195196Y-100076227D01*
X200198796Y-100100495D01*
X200200000Y-100124999D01*
X200200000Y-100775001D01*
X200198796Y-100799505D01*
X200195196Y-100823773D01*
X200189235Y-100847572D01*
X200180970Y-100870671D01*
X200170480Y-100892850D01*
X200157868Y-100913893D01*
X200143253Y-100933599D01*
X200126777Y-100951777D01*
X200108599Y-100968253D01*
X200088893Y-100982868D01*
X200067850Y-100995480D01*
X200045671Y-101005970D01*
X200022572Y-101014235D01*
X199998773Y-101020196D01*
X199974505Y-101023796D01*
X199950001Y-101025000D01*
X199049999Y-101025000D01*
X199025495Y-101023796D01*
X199001227Y-101020196D01*
X198977428Y-101014235D01*
X198954329Y-101005970D01*
X198932150Y-100995480D01*
X198911107Y-100982868D01*
X198891401Y-100968253D01*
X198873223Y-100951777D01*
X198856747Y-100933599D01*
X198842132Y-100913893D01*
X198829520Y-100892850D01*
X198819030Y-100870671D01*
X198810765Y-100847572D01*
X198804804Y-100823773D01*
X198801204Y-100799505D01*
X198800000Y-100775001D01*
X198800000Y-100124999D01*
X198801204Y-100100495D01*
X198804804Y-100076227D01*
X198810765Y-100052428D01*
X198819030Y-100029329D01*
X198829520Y-100007150D01*
X198842132Y-99986107D01*
X198856747Y-99966401D01*
X198873223Y-99948223D01*
X198891401Y-99931747D01*
X198911107Y-99917132D01*
X198932150Y-99904520D01*
X198954329Y-99894030D01*
X198977428Y-99885765D01*
X199001227Y-99879804D01*
X199025495Y-99876204D01*
X199049999Y-99875000D01*
X199950001Y-99875000D01*
X199974505Y-99876204D01*
X199974505Y-99876204D01*
G37*
D12*
X199500000Y-100450000D03*
D10*
G36*
X199974505Y-101926204D02*
G01*
X199998773Y-101929804D01*
X200022572Y-101935765D01*
X200045671Y-101944030D01*
X200067850Y-101954520D01*
X200088893Y-101967132D01*
X200108599Y-101981747D01*
X200126777Y-101998223D01*
X200143253Y-102016401D01*
X200157868Y-102036107D01*
X200170480Y-102057150D01*
X200180970Y-102079329D01*
X200189235Y-102102428D01*
X200195196Y-102126227D01*
X200198796Y-102150495D01*
X200200000Y-102174999D01*
X200200000Y-102825001D01*
X200198796Y-102849505D01*
X200195196Y-102873773D01*
X200189235Y-102897572D01*
X200180970Y-102920671D01*
X200170480Y-102942850D01*
X200157868Y-102963893D01*
X200143253Y-102983599D01*
X200126777Y-103001777D01*
X200108599Y-103018253D01*
X200088893Y-103032868D01*
X200067850Y-103045480D01*
X200045671Y-103055970D01*
X200022572Y-103064235D01*
X199998773Y-103070196D01*
X199974505Y-103073796D01*
X199950001Y-103075000D01*
X199049999Y-103075000D01*
X199025495Y-103073796D01*
X199001227Y-103070196D01*
X198977428Y-103064235D01*
X198954329Y-103055970D01*
X198932150Y-103045480D01*
X198911107Y-103032868D01*
X198891401Y-103018253D01*
X198873223Y-103001777D01*
X198856747Y-102983599D01*
X198842132Y-102963893D01*
X198829520Y-102942850D01*
X198819030Y-102920671D01*
X198810765Y-102897572D01*
X198804804Y-102873773D01*
X198801204Y-102849505D01*
X198800000Y-102825001D01*
X198800000Y-102174999D01*
X198801204Y-102150495D01*
X198804804Y-102126227D01*
X198810765Y-102102428D01*
X198819030Y-102079329D01*
X198829520Y-102057150D01*
X198842132Y-102036107D01*
X198856747Y-102016401D01*
X198873223Y-101998223D01*
X198891401Y-101981747D01*
X198911107Y-101967132D01*
X198932150Y-101954520D01*
X198954329Y-101944030D01*
X198977428Y-101935765D01*
X199001227Y-101929804D01*
X199025495Y-101926204D01*
X199049999Y-101925000D01*
X199950001Y-101925000D01*
X199974505Y-101926204D01*
X199974505Y-101926204D01*
G37*
D12*
X199500000Y-102500000D03*
D10*
G36*
X70474505Y-112476204D02*
G01*
X70498773Y-112479804D01*
X70522572Y-112485765D01*
X70545671Y-112494030D01*
X70567850Y-112504520D01*
X70588893Y-112517132D01*
X70608599Y-112531747D01*
X70626777Y-112548223D01*
X70643253Y-112566401D01*
X70657868Y-112586107D01*
X70670480Y-112607150D01*
X70680970Y-112629329D01*
X70689235Y-112652428D01*
X70695196Y-112676227D01*
X70698796Y-112700495D01*
X70700000Y-112724999D01*
X70700000Y-113375001D01*
X70698796Y-113399505D01*
X70695196Y-113423773D01*
X70689235Y-113447572D01*
X70680970Y-113470671D01*
X70670480Y-113492850D01*
X70657868Y-113513893D01*
X70643253Y-113533599D01*
X70626777Y-113551777D01*
X70608599Y-113568253D01*
X70588893Y-113582868D01*
X70567850Y-113595480D01*
X70545671Y-113605970D01*
X70522572Y-113614235D01*
X70498773Y-113620196D01*
X70474505Y-113623796D01*
X70450001Y-113625000D01*
X69549999Y-113625000D01*
X69525495Y-113623796D01*
X69501227Y-113620196D01*
X69477428Y-113614235D01*
X69454329Y-113605970D01*
X69432150Y-113595480D01*
X69411107Y-113582868D01*
X69391401Y-113568253D01*
X69373223Y-113551777D01*
X69356747Y-113533599D01*
X69342132Y-113513893D01*
X69329520Y-113492850D01*
X69319030Y-113470671D01*
X69310765Y-113447572D01*
X69304804Y-113423773D01*
X69301204Y-113399505D01*
X69300000Y-113375001D01*
X69300000Y-112724999D01*
X69301204Y-112700495D01*
X69304804Y-112676227D01*
X69310765Y-112652428D01*
X69319030Y-112629329D01*
X69329520Y-112607150D01*
X69342132Y-112586107D01*
X69356747Y-112566401D01*
X69373223Y-112548223D01*
X69391401Y-112531747D01*
X69411107Y-112517132D01*
X69432150Y-112504520D01*
X69454329Y-112494030D01*
X69477428Y-112485765D01*
X69501227Y-112479804D01*
X69525495Y-112476204D01*
X69549999Y-112475000D01*
X70450001Y-112475000D01*
X70474505Y-112476204D01*
X70474505Y-112476204D01*
G37*
D12*
X70000000Y-113050000D03*
D10*
G36*
X70474505Y-110426204D02*
G01*
X70498773Y-110429804D01*
X70522572Y-110435765D01*
X70545671Y-110444030D01*
X70567850Y-110454520D01*
X70588893Y-110467132D01*
X70608599Y-110481747D01*
X70626777Y-110498223D01*
X70643253Y-110516401D01*
X70657868Y-110536107D01*
X70670480Y-110557150D01*
X70680970Y-110579329D01*
X70689235Y-110602428D01*
X70695196Y-110626227D01*
X70698796Y-110650495D01*
X70700000Y-110674999D01*
X70700000Y-111325001D01*
X70698796Y-111349505D01*
X70695196Y-111373773D01*
X70689235Y-111397572D01*
X70680970Y-111420671D01*
X70670480Y-111442850D01*
X70657868Y-111463893D01*
X70643253Y-111483599D01*
X70626777Y-111501777D01*
X70608599Y-111518253D01*
X70588893Y-111532868D01*
X70567850Y-111545480D01*
X70545671Y-111555970D01*
X70522572Y-111564235D01*
X70498773Y-111570196D01*
X70474505Y-111573796D01*
X70450001Y-111575000D01*
X69549999Y-111575000D01*
X69525495Y-111573796D01*
X69501227Y-111570196D01*
X69477428Y-111564235D01*
X69454329Y-111555970D01*
X69432150Y-111545480D01*
X69411107Y-111532868D01*
X69391401Y-111518253D01*
X69373223Y-111501777D01*
X69356747Y-111483599D01*
X69342132Y-111463893D01*
X69329520Y-111442850D01*
X69319030Y-111420671D01*
X69310765Y-111397572D01*
X69304804Y-111373773D01*
X69301204Y-111349505D01*
X69300000Y-111325001D01*
X69300000Y-110674999D01*
X69301204Y-110650495D01*
X69304804Y-110626227D01*
X69310765Y-110602428D01*
X69319030Y-110579329D01*
X69329520Y-110557150D01*
X69342132Y-110536107D01*
X69356747Y-110516401D01*
X69373223Y-110498223D01*
X69391401Y-110481747D01*
X69411107Y-110467132D01*
X69432150Y-110454520D01*
X69454329Y-110444030D01*
X69477428Y-110435765D01*
X69501227Y-110429804D01*
X69525495Y-110426204D01*
X69549999Y-110425000D01*
X70450001Y-110425000D01*
X70474505Y-110426204D01*
X70474505Y-110426204D01*
G37*
D12*
X70000000Y-111000000D03*
D10*
G36*
X70474505Y-107476204D02*
G01*
X70498773Y-107479804D01*
X70522572Y-107485765D01*
X70545671Y-107494030D01*
X70567850Y-107504520D01*
X70588893Y-107517132D01*
X70608599Y-107531747D01*
X70626777Y-107548223D01*
X70643253Y-107566401D01*
X70657868Y-107586107D01*
X70670480Y-107607150D01*
X70680970Y-107629329D01*
X70689235Y-107652428D01*
X70695196Y-107676227D01*
X70698796Y-107700495D01*
X70700000Y-107724999D01*
X70700000Y-108375001D01*
X70698796Y-108399505D01*
X70695196Y-108423773D01*
X70689235Y-108447572D01*
X70680970Y-108470671D01*
X70670480Y-108492850D01*
X70657868Y-108513893D01*
X70643253Y-108533599D01*
X70626777Y-108551777D01*
X70608599Y-108568253D01*
X70588893Y-108582868D01*
X70567850Y-108595480D01*
X70545671Y-108605970D01*
X70522572Y-108614235D01*
X70498773Y-108620196D01*
X70474505Y-108623796D01*
X70450001Y-108625000D01*
X69549999Y-108625000D01*
X69525495Y-108623796D01*
X69501227Y-108620196D01*
X69477428Y-108614235D01*
X69454329Y-108605970D01*
X69432150Y-108595480D01*
X69411107Y-108582868D01*
X69391401Y-108568253D01*
X69373223Y-108551777D01*
X69356747Y-108533599D01*
X69342132Y-108513893D01*
X69329520Y-108492850D01*
X69319030Y-108470671D01*
X69310765Y-108447572D01*
X69304804Y-108423773D01*
X69301204Y-108399505D01*
X69300000Y-108375001D01*
X69300000Y-107724999D01*
X69301204Y-107700495D01*
X69304804Y-107676227D01*
X69310765Y-107652428D01*
X69319030Y-107629329D01*
X69329520Y-107607150D01*
X69342132Y-107586107D01*
X69356747Y-107566401D01*
X69373223Y-107548223D01*
X69391401Y-107531747D01*
X69411107Y-107517132D01*
X69432150Y-107504520D01*
X69454329Y-107494030D01*
X69477428Y-107485765D01*
X69501227Y-107479804D01*
X69525495Y-107476204D01*
X69549999Y-107475000D01*
X70450001Y-107475000D01*
X70474505Y-107476204D01*
X70474505Y-107476204D01*
G37*
D12*
X70000000Y-108050000D03*
D10*
G36*
X70474505Y-105426204D02*
G01*
X70498773Y-105429804D01*
X70522572Y-105435765D01*
X70545671Y-105444030D01*
X70567850Y-105454520D01*
X70588893Y-105467132D01*
X70608599Y-105481747D01*
X70626777Y-105498223D01*
X70643253Y-105516401D01*
X70657868Y-105536107D01*
X70670480Y-105557150D01*
X70680970Y-105579329D01*
X70689235Y-105602428D01*
X70695196Y-105626227D01*
X70698796Y-105650495D01*
X70700000Y-105674999D01*
X70700000Y-106325001D01*
X70698796Y-106349505D01*
X70695196Y-106373773D01*
X70689235Y-106397572D01*
X70680970Y-106420671D01*
X70670480Y-106442850D01*
X70657868Y-106463893D01*
X70643253Y-106483599D01*
X70626777Y-106501777D01*
X70608599Y-106518253D01*
X70588893Y-106532868D01*
X70567850Y-106545480D01*
X70545671Y-106555970D01*
X70522572Y-106564235D01*
X70498773Y-106570196D01*
X70474505Y-106573796D01*
X70450001Y-106575000D01*
X69549999Y-106575000D01*
X69525495Y-106573796D01*
X69501227Y-106570196D01*
X69477428Y-106564235D01*
X69454329Y-106555970D01*
X69432150Y-106545480D01*
X69411107Y-106532868D01*
X69391401Y-106518253D01*
X69373223Y-106501777D01*
X69356747Y-106483599D01*
X69342132Y-106463893D01*
X69329520Y-106442850D01*
X69319030Y-106420671D01*
X69310765Y-106397572D01*
X69304804Y-106373773D01*
X69301204Y-106349505D01*
X69300000Y-106325001D01*
X69300000Y-105674999D01*
X69301204Y-105650495D01*
X69304804Y-105626227D01*
X69310765Y-105602428D01*
X69319030Y-105579329D01*
X69329520Y-105557150D01*
X69342132Y-105536107D01*
X69356747Y-105516401D01*
X69373223Y-105498223D01*
X69391401Y-105481747D01*
X69411107Y-105467132D01*
X69432150Y-105454520D01*
X69454329Y-105444030D01*
X69477428Y-105435765D01*
X69501227Y-105429804D01*
X69525495Y-105426204D01*
X69549999Y-105425000D01*
X70450001Y-105425000D01*
X70474505Y-105426204D01*
X70474505Y-105426204D01*
G37*
D12*
X70000000Y-106000000D03*
D10*
G36*
X195474505Y-99876204D02*
G01*
X195498773Y-99879804D01*
X195522572Y-99885765D01*
X195545671Y-99894030D01*
X195567850Y-99904520D01*
X195588893Y-99917132D01*
X195608599Y-99931747D01*
X195626777Y-99948223D01*
X195643253Y-99966401D01*
X195657868Y-99986107D01*
X195670480Y-100007150D01*
X195680970Y-100029329D01*
X195689235Y-100052428D01*
X195695196Y-100076227D01*
X195698796Y-100100495D01*
X195700000Y-100124999D01*
X195700000Y-100775001D01*
X195698796Y-100799505D01*
X195695196Y-100823773D01*
X195689235Y-100847572D01*
X195680970Y-100870671D01*
X195670480Y-100892850D01*
X195657868Y-100913893D01*
X195643253Y-100933599D01*
X195626777Y-100951777D01*
X195608599Y-100968253D01*
X195588893Y-100982868D01*
X195567850Y-100995480D01*
X195545671Y-101005970D01*
X195522572Y-101014235D01*
X195498773Y-101020196D01*
X195474505Y-101023796D01*
X195450001Y-101025000D01*
X194549999Y-101025000D01*
X194525495Y-101023796D01*
X194501227Y-101020196D01*
X194477428Y-101014235D01*
X194454329Y-101005970D01*
X194432150Y-100995480D01*
X194411107Y-100982868D01*
X194391401Y-100968253D01*
X194373223Y-100951777D01*
X194356747Y-100933599D01*
X194342132Y-100913893D01*
X194329520Y-100892850D01*
X194319030Y-100870671D01*
X194310765Y-100847572D01*
X194304804Y-100823773D01*
X194301204Y-100799505D01*
X194300000Y-100775001D01*
X194300000Y-100124999D01*
X194301204Y-100100495D01*
X194304804Y-100076227D01*
X194310765Y-100052428D01*
X194319030Y-100029329D01*
X194329520Y-100007150D01*
X194342132Y-99986107D01*
X194356747Y-99966401D01*
X194373223Y-99948223D01*
X194391401Y-99931747D01*
X194411107Y-99917132D01*
X194432150Y-99904520D01*
X194454329Y-99894030D01*
X194477428Y-99885765D01*
X194501227Y-99879804D01*
X194525495Y-99876204D01*
X194549999Y-99875000D01*
X195450001Y-99875000D01*
X195474505Y-99876204D01*
X195474505Y-99876204D01*
G37*
D12*
X195000000Y-100450000D03*
D10*
G36*
X195474505Y-101926204D02*
G01*
X195498773Y-101929804D01*
X195522572Y-101935765D01*
X195545671Y-101944030D01*
X195567850Y-101954520D01*
X195588893Y-101967132D01*
X195608599Y-101981747D01*
X195626777Y-101998223D01*
X195643253Y-102016401D01*
X195657868Y-102036107D01*
X195670480Y-102057150D01*
X195680970Y-102079329D01*
X195689235Y-102102428D01*
X195695196Y-102126227D01*
X195698796Y-102150495D01*
X195700000Y-102174999D01*
X195700000Y-102825001D01*
X195698796Y-102849505D01*
X195695196Y-102873773D01*
X195689235Y-102897572D01*
X195680970Y-102920671D01*
X195670480Y-102942850D01*
X195657868Y-102963893D01*
X195643253Y-102983599D01*
X195626777Y-103001777D01*
X195608599Y-103018253D01*
X195588893Y-103032868D01*
X195567850Y-103045480D01*
X195545671Y-103055970D01*
X195522572Y-103064235D01*
X195498773Y-103070196D01*
X195474505Y-103073796D01*
X195450001Y-103075000D01*
X194549999Y-103075000D01*
X194525495Y-103073796D01*
X194501227Y-103070196D01*
X194477428Y-103064235D01*
X194454329Y-103055970D01*
X194432150Y-103045480D01*
X194411107Y-103032868D01*
X194391401Y-103018253D01*
X194373223Y-103001777D01*
X194356747Y-102983599D01*
X194342132Y-102963893D01*
X194329520Y-102942850D01*
X194319030Y-102920671D01*
X194310765Y-102897572D01*
X194304804Y-102873773D01*
X194301204Y-102849505D01*
X194300000Y-102825001D01*
X194300000Y-102174999D01*
X194301204Y-102150495D01*
X194304804Y-102126227D01*
X194310765Y-102102428D01*
X194319030Y-102079329D01*
X194329520Y-102057150D01*
X194342132Y-102036107D01*
X194356747Y-102016401D01*
X194373223Y-101998223D01*
X194391401Y-101981747D01*
X194411107Y-101967132D01*
X194432150Y-101954520D01*
X194454329Y-101944030D01*
X194477428Y-101935765D01*
X194501227Y-101929804D01*
X194525495Y-101926204D01*
X194549999Y-101925000D01*
X195450001Y-101925000D01*
X195474505Y-101926204D01*
X195474505Y-101926204D01*
G37*
D12*
X195000000Y-102500000D03*
D10*
G36*
X195474505Y-104901204D02*
G01*
X195498773Y-104904804D01*
X195522572Y-104910765D01*
X195545671Y-104919030D01*
X195567850Y-104929520D01*
X195588893Y-104942132D01*
X195608599Y-104956747D01*
X195626777Y-104973223D01*
X195643253Y-104991401D01*
X195657868Y-105011107D01*
X195670480Y-105032150D01*
X195680970Y-105054329D01*
X195689235Y-105077428D01*
X195695196Y-105101227D01*
X195698796Y-105125495D01*
X195700000Y-105149999D01*
X195700000Y-105800001D01*
X195698796Y-105824505D01*
X195695196Y-105848773D01*
X195689235Y-105872572D01*
X195680970Y-105895671D01*
X195670480Y-105917850D01*
X195657868Y-105938893D01*
X195643253Y-105958599D01*
X195626777Y-105976777D01*
X195608599Y-105993253D01*
X195588893Y-106007868D01*
X195567850Y-106020480D01*
X195545671Y-106030970D01*
X195522572Y-106039235D01*
X195498773Y-106045196D01*
X195474505Y-106048796D01*
X195450001Y-106050000D01*
X194549999Y-106050000D01*
X194525495Y-106048796D01*
X194501227Y-106045196D01*
X194477428Y-106039235D01*
X194454329Y-106030970D01*
X194432150Y-106020480D01*
X194411107Y-106007868D01*
X194391401Y-105993253D01*
X194373223Y-105976777D01*
X194356747Y-105958599D01*
X194342132Y-105938893D01*
X194329520Y-105917850D01*
X194319030Y-105895671D01*
X194310765Y-105872572D01*
X194304804Y-105848773D01*
X194301204Y-105824505D01*
X194300000Y-105800001D01*
X194300000Y-105149999D01*
X194301204Y-105125495D01*
X194304804Y-105101227D01*
X194310765Y-105077428D01*
X194319030Y-105054329D01*
X194329520Y-105032150D01*
X194342132Y-105011107D01*
X194356747Y-104991401D01*
X194373223Y-104973223D01*
X194391401Y-104956747D01*
X194411107Y-104942132D01*
X194432150Y-104929520D01*
X194454329Y-104919030D01*
X194477428Y-104910765D01*
X194501227Y-104904804D01*
X194525495Y-104901204D01*
X194549999Y-104900000D01*
X195450001Y-104900000D01*
X195474505Y-104901204D01*
X195474505Y-104901204D01*
G37*
D12*
X195000000Y-105475000D03*
D10*
G36*
X195474505Y-106951204D02*
G01*
X195498773Y-106954804D01*
X195522572Y-106960765D01*
X195545671Y-106969030D01*
X195567850Y-106979520D01*
X195588893Y-106992132D01*
X195608599Y-107006747D01*
X195626777Y-107023223D01*
X195643253Y-107041401D01*
X195657868Y-107061107D01*
X195670480Y-107082150D01*
X195680970Y-107104329D01*
X195689235Y-107127428D01*
X195695196Y-107151227D01*
X195698796Y-107175495D01*
X195700000Y-107199999D01*
X195700000Y-107850001D01*
X195698796Y-107874505D01*
X195695196Y-107898773D01*
X195689235Y-107922572D01*
X195680970Y-107945671D01*
X195670480Y-107967850D01*
X195657868Y-107988893D01*
X195643253Y-108008599D01*
X195626777Y-108026777D01*
X195608599Y-108043253D01*
X195588893Y-108057868D01*
X195567850Y-108070480D01*
X195545671Y-108080970D01*
X195522572Y-108089235D01*
X195498773Y-108095196D01*
X195474505Y-108098796D01*
X195450001Y-108100000D01*
X194549999Y-108100000D01*
X194525495Y-108098796D01*
X194501227Y-108095196D01*
X194477428Y-108089235D01*
X194454329Y-108080970D01*
X194432150Y-108070480D01*
X194411107Y-108057868D01*
X194391401Y-108043253D01*
X194373223Y-108026777D01*
X194356747Y-108008599D01*
X194342132Y-107988893D01*
X194329520Y-107967850D01*
X194319030Y-107945671D01*
X194310765Y-107922572D01*
X194304804Y-107898773D01*
X194301204Y-107874505D01*
X194300000Y-107850001D01*
X194300000Y-107199999D01*
X194301204Y-107175495D01*
X194304804Y-107151227D01*
X194310765Y-107127428D01*
X194319030Y-107104329D01*
X194329520Y-107082150D01*
X194342132Y-107061107D01*
X194356747Y-107041401D01*
X194373223Y-107023223D01*
X194391401Y-107006747D01*
X194411107Y-106992132D01*
X194432150Y-106979520D01*
X194454329Y-106969030D01*
X194477428Y-106960765D01*
X194501227Y-106954804D01*
X194525495Y-106951204D01*
X194549999Y-106950000D01*
X195450001Y-106950000D01*
X195474505Y-106951204D01*
X195474505Y-106951204D01*
G37*
D12*
X195000000Y-107525000D03*
D10*
G36*
X65974505Y-107451204D02*
G01*
X65998773Y-107454804D01*
X66022572Y-107460765D01*
X66045671Y-107469030D01*
X66067850Y-107479520D01*
X66088893Y-107492132D01*
X66108599Y-107506747D01*
X66126777Y-107523223D01*
X66143253Y-107541401D01*
X66157868Y-107561107D01*
X66170480Y-107582150D01*
X66180970Y-107604329D01*
X66189235Y-107627428D01*
X66195196Y-107651227D01*
X66198796Y-107675495D01*
X66200000Y-107699999D01*
X66200000Y-108350001D01*
X66198796Y-108374505D01*
X66195196Y-108398773D01*
X66189235Y-108422572D01*
X66180970Y-108445671D01*
X66170480Y-108467850D01*
X66157868Y-108488893D01*
X66143253Y-108508599D01*
X66126777Y-108526777D01*
X66108599Y-108543253D01*
X66088893Y-108557868D01*
X66067850Y-108570480D01*
X66045671Y-108580970D01*
X66022572Y-108589235D01*
X65998773Y-108595196D01*
X65974505Y-108598796D01*
X65950001Y-108600000D01*
X65049999Y-108600000D01*
X65025495Y-108598796D01*
X65001227Y-108595196D01*
X64977428Y-108589235D01*
X64954329Y-108580970D01*
X64932150Y-108570480D01*
X64911107Y-108557868D01*
X64891401Y-108543253D01*
X64873223Y-108526777D01*
X64856747Y-108508599D01*
X64842132Y-108488893D01*
X64829520Y-108467850D01*
X64819030Y-108445671D01*
X64810765Y-108422572D01*
X64804804Y-108398773D01*
X64801204Y-108374505D01*
X64800000Y-108350001D01*
X64800000Y-107699999D01*
X64801204Y-107675495D01*
X64804804Y-107651227D01*
X64810765Y-107627428D01*
X64819030Y-107604329D01*
X64829520Y-107582150D01*
X64842132Y-107561107D01*
X64856747Y-107541401D01*
X64873223Y-107523223D01*
X64891401Y-107506747D01*
X64911107Y-107492132D01*
X64932150Y-107479520D01*
X64954329Y-107469030D01*
X64977428Y-107460765D01*
X65001227Y-107454804D01*
X65025495Y-107451204D01*
X65049999Y-107450000D01*
X65950001Y-107450000D01*
X65974505Y-107451204D01*
X65974505Y-107451204D01*
G37*
D12*
X65500000Y-108025000D03*
D10*
G36*
X65974505Y-105401204D02*
G01*
X65998773Y-105404804D01*
X66022572Y-105410765D01*
X66045671Y-105419030D01*
X66067850Y-105429520D01*
X66088893Y-105442132D01*
X66108599Y-105456747D01*
X66126777Y-105473223D01*
X66143253Y-105491401D01*
X66157868Y-105511107D01*
X66170480Y-105532150D01*
X66180970Y-105554329D01*
X66189235Y-105577428D01*
X66195196Y-105601227D01*
X66198796Y-105625495D01*
X66200000Y-105649999D01*
X66200000Y-106300001D01*
X66198796Y-106324505D01*
X66195196Y-106348773D01*
X66189235Y-106372572D01*
X66180970Y-106395671D01*
X66170480Y-106417850D01*
X66157868Y-106438893D01*
X66143253Y-106458599D01*
X66126777Y-106476777D01*
X66108599Y-106493253D01*
X66088893Y-106507868D01*
X66067850Y-106520480D01*
X66045671Y-106530970D01*
X66022572Y-106539235D01*
X65998773Y-106545196D01*
X65974505Y-106548796D01*
X65950001Y-106550000D01*
X65049999Y-106550000D01*
X65025495Y-106548796D01*
X65001227Y-106545196D01*
X64977428Y-106539235D01*
X64954329Y-106530970D01*
X64932150Y-106520480D01*
X64911107Y-106507868D01*
X64891401Y-106493253D01*
X64873223Y-106476777D01*
X64856747Y-106458599D01*
X64842132Y-106438893D01*
X64829520Y-106417850D01*
X64819030Y-106395671D01*
X64810765Y-106372572D01*
X64804804Y-106348773D01*
X64801204Y-106324505D01*
X64800000Y-106300001D01*
X64800000Y-105649999D01*
X64801204Y-105625495D01*
X64804804Y-105601227D01*
X64810765Y-105577428D01*
X64819030Y-105554329D01*
X64829520Y-105532150D01*
X64842132Y-105511107D01*
X64856747Y-105491401D01*
X64873223Y-105473223D01*
X64891401Y-105456747D01*
X64911107Y-105442132D01*
X64932150Y-105429520D01*
X64954329Y-105419030D01*
X64977428Y-105410765D01*
X65001227Y-105404804D01*
X65025495Y-105401204D01*
X65049999Y-105400000D01*
X65950001Y-105400000D01*
X65974505Y-105401204D01*
X65974505Y-105401204D01*
G37*
D12*
X65500000Y-105975000D03*
D10*
G36*
X199974505Y-104876204D02*
G01*
X199998773Y-104879804D01*
X200022572Y-104885765D01*
X200045671Y-104894030D01*
X200067850Y-104904520D01*
X200088893Y-104917132D01*
X200108599Y-104931747D01*
X200126777Y-104948223D01*
X200143253Y-104966401D01*
X200157868Y-104986107D01*
X200170480Y-105007150D01*
X200180970Y-105029329D01*
X200189235Y-105052428D01*
X200195196Y-105076227D01*
X200198796Y-105100495D01*
X200200000Y-105124999D01*
X200200000Y-105775001D01*
X200198796Y-105799505D01*
X200195196Y-105823773D01*
X200189235Y-105847572D01*
X200180970Y-105870671D01*
X200170480Y-105892850D01*
X200157868Y-105913893D01*
X200143253Y-105933599D01*
X200126777Y-105951777D01*
X200108599Y-105968253D01*
X200088893Y-105982868D01*
X200067850Y-105995480D01*
X200045671Y-106005970D01*
X200022572Y-106014235D01*
X199998773Y-106020196D01*
X199974505Y-106023796D01*
X199950001Y-106025000D01*
X199049999Y-106025000D01*
X199025495Y-106023796D01*
X199001227Y-106020196D01*
X198977428Y-106014235D01*
X198954329Y-106005970D01*
X198932150Y-105995480D01*
X198911107Y-105982868D01*
X198891401Y-105968253D01*
X198873223Y-105951777D01*
X198856747Y-105933599D01*
X198842132Y-105913893D01*
X198829520Y-105892850D01*
X198819030Y-105870671D01*
X198810765Y-105847572D01*
X198804804Y-105823773D01*
X198801204Y-105799505D01*
X198800000Y-105775001D01*
X198800000Y-105124999D01*
X198801204Y-105100495D01*
X198804804Y-105076227D01*
X198810765Y-105052428D01*
X198819030Y-105029329D01*
X198829520Y-105007150D01*
X198842132Y-104986107D01*
X198856747Y-104966401D01*
X198873223Y-104948223D01*
X198891401Y-104931747D01*
X198911107Y-104917132D01*
X198932150Y-104904520D01*
X198954329Y-104894030D01*
X198977428Y-104885765D01*
X199001227Y-104879804D01*
X199025495Y-104876204D01*
X199049999Y-104875000D01*
X199950001Y-104875000D01*
X199974505Y-104876204D01*
X199974505Y-104876204D01*
G37*
D12*
X199500000Y-105450000D03*
D10*
G36*
X199974505Y-106926204D02*
G01*
X199998773Y-106929804D01*
X200022572Y-106935765D01*
X200045671Y-106944030D01*
X200067850Y-106954520D01*
X200088893Y-106967132D01*
X200108599Y-106981747D01*
X200126777Y-106998223D01*
X200143253Y-107016401D01*
X200157868Y-107036107D01*
X200170480Y-107057150D01*
X200180970Y-107079329D01*
X200189235Y-107102428D01*
X200195196Y-107126227D01*
X200198796Y-107150495D01*
X200200000Y-107174999D01*
X200200000Y-107825001D01*
X200198796Y-107849505D01*
X200195196Y-107873773D01*
X200189235Y-107897572D01*
X200180970Y-107920671D01*
X200170480Y-107942850D01*
X200157868Y-107963893D01*
X200143253Y-107983599D01*
X200126777Y-108001777D01*
X200108599Y-108018253D01*
X200088893Y-108032868D01*
X200067850Y-108045480D01*
X200045671Y-108055970D01*
X200022572Y-108064235D01*
X199998773Y-108070196D01*
X199974505Y-108073796D01*
X199950001Y-108075000D01*
X199049999Y-108075000D01*
X199025495Y-108073796D01*
X199001227Y-108070196D01*
X198977428Y-108064235D01*
X198954329Y-108055970D01*
X198932150Y-108045480D01*
X198911107Y-108032868D01*
X198891401Y-108018253D01*
X198873223Y-108001777D01*
X198856747Y-107983599D01*
X198842132Y-107963893D01*
X198829520Y-107942850D01*
X198819030Y-107920671D01*
X198810765Y-107897572D01*
X198804804Y-107873773D01*
X198801204Y-107849505D01*
X198800000Y-107825001D01*
X198800000Y-107174999D01*
X198801204Y-107150495D01*
X198804804Y-107126227D01*
X198810765Y-107102428D01*
X198819030Y-107079329D01*
X198829520Y-107057150D01*
X198842132Y-107036107D01*
X198856747Y-107016401D01*
X198873223Y-106998223D01*
X198891401Y-106981747D01*
X198911107Y-106967132D01*
X198932150Y-106954520D01*
X198954329Y-106944030D01*
X198977428Y-106935765D01*
X199001227Y-106929804D01*
X199025495Y-106926204D01*
X199049999Y-106925000D01*
X199950001Y-106925000D01*
X199974505Y-106926204D01*
X199974505Y-106926204D01*
G37*
D12*
X199500000Y-107500000D03*
D10*
G36*
X95669694Y-96626363D02*
G01*
X95697170Y-96630439D01*
X95724115Y-96637188D01*
X95750269Y-96646546D01*
X95775379Y-96658422D01*
X95799204Y-96672703D01*
X95821515Y-96689249D01*
X95842097Y-96707903D01*
X95860751Y-96728485D01*
X95877297Y-96750796D01*
X95891578Y-96774621D01*
X95903454Y-96799731D01*
X95912812Y-96825885D01*
X95919561Y-96852830D01*
X95923637Y-96880306D01*
X95925000Y-96908050D01*
X95925000Y-98891950D01*
X95923637Y-98919694D01*
X95919561Y-98947170D01*
X95912812Y-98974115D01*
X95903454Y-99000269D01*
X95891578Y-99025379D01*
X95877297Y-99049204D01*
X95860751Y-99071515D01*
X95842097Y-99092097D01*
X95821515Y-99110751D01*
X95799204Y-99127297D01*
X95775379Y-99141578D01*
X95750269Y-99153454D01*
X95724115Y-99162812D01*
X95697170Y-99169561D01*
X95669694Y-99173637D01*
X95641950Y-99175000D01*
X93358050Y-99175000D01*
X93330306Y-99173637D01*
X93302830Y-99169561D01*
X93275885Y-99162812D01*
X93249731Y-99153454D01*
X93224621Y-99141578D01*
X93200796Y-99127297D01*
X93178485Y-99110751D01*
X93157903Y-99092097D01*
X93139249Y-99071515D01*
X93122703Y-99049204D01*
X93108422Y-99025379D01*
X93096546Y-99000269D01*
X93087188Y-98974115D01*
X93080439Y-98947170D01*
X93076363Y-98919694D01*
X93075000Y-98891950D01*
X93075000Y-96908050D01*
X93076363Y-96880306D01*
X93080439Y-96852830D01*
X93087188Y-96825885D01*
X93096546Y-96799731D01*
X93108422Y-96774621D01*
X93122703Y-96750796D01*
X93139249Y-96728485D01*
X93157903Y-96707903D01*
X93178485Y-96689249D01*
X93200796Y-96672703D01*
X93224621Y-96658422D01*
X93249731Y-96646546D01*
X93275885Y-96637188D01*
X93302830Y-96630439D01*
X93330306Y-96626363D01*
X93358050Y-96625000D01*
X95641950Y-96625000D01*
X95669694Y-96626363D01*
X95669694Y-96626363D01*
G37*
D19*
X94500000Y-97900000D03*
D10*
G36*
X95669694Y-90226363D02*
G01*
X95697170Y-90230439D01*
X95724115Y-90237188D01*
X95750269Y-90246546D01*
X95775379Y-90258422D01*
X95799204Y-90272703D01*
X95821515Y-90289249D01*
X95842097Y-90307903D01*
X95860751Y-90328485D01*
X95877297Y-90350796D01*
X95891578Y-90374621D01*
X95903454Y-90399731D01*
X95912812Y-90425885D01*
X95919561Y-90452830D01*
X95923637Y-90480306D01*
X95925000Y-90508050D01*
X95925000Y-92491950D01*
X95923637Y-92519694D01*
X95919561Y-92547170D01*
X95912812Y-92574115D01*
X95903454Y-92600269D01*
X95891578Y-92625379D01*
X95877297Y-92649204D01*
X95860751Y-92671515D01*
X95842097Y-92692097D01*
X95821515Y-92710751D01*
X95799204Y-92727297D01*
X95775379Y-92741578D01*
X95750269Y-92753454D01*
X95724115Y-92762812D01*
X95697170Y-92769561D01*
X95669694Y-92773637D01*
X95641950Y-92775000D01*
X93358050Y-92775000D01*
X93330306Y-92773637D01*
X93302830Y-92769561D01*
X93275885Y-92762812D01*
X93249731Y-92753454D01*
X93224621Y-92741578D01*
X93200796Y-92727297D01*
X93178485Y-92710751D01*
X93157903Y-92692097D01*
X93139249Y-92671515D01*
X93122703Y-92649204D01*
X93108422Y-92625379D01*
X93096546Y-92600269D01*
X93087188Y-92574115D01*
X93080439Y-92547170D01*
X93076363Y-92519694D01*
X93075000Y-92491950D01*
X93075000Y-90508050D01*
X93076363Y-90480306D01*
X93080439Y-90452830D01*
X93087188Y-90425885D01*
X93096546Y-90399731D01*
X93108422Y-90374621D01*
X93122703Y-90350796D01*
X93139249Y-90328485D01*
X93157903Y-90307903D01*
X93178485Y-90289249D01*
X93200796Y-90272703D01*
X93224621Y-90258422D01*
X93249731Y-90246546D01*
X93275885Y-90237188D01*
X93302830Y-90230439D01*
X93330306Y-90226363D01*
X93358050Y-90225000D01*
X95641950Y-90225000D01*
X95669694Y-90226363D01*
X95669694Y-90226363D01*
G37*
D19*
X94500000Y-91500000D03*
D10*
G36*
X70019694Y-80576363D02*
G01*
X70047170Y-80580439D01*
X70074115Y-80587188D01*
X70100269Y-80596546D01*
X70125379Y-80608422D01*
X70149204Y-80622703D01*
X70171515Y-80639249D01*
X70192097Y-80657903D01*
X70210751Y-80678485D01*
X70227297Y-80700796D01*
X70241578Y-80724621D01*
X70253454Y-80749731D01*
X70262812Y-80775885D01*
X70269561Y-80802830D01*
X70273637Y-80830306D01*
X70275000Y-80858050D01*
X70275000Y-83141950D01*
X70273637Y-83169694D01*
X70269561Y-83197170D01*
X70262812Y-83224115D01*
X70253454Y-83250269D01*
X70241578Y-83275379D01*
X70227297Y-83299204D01*
X70210751Y-83321515D01*
X70192097Y-83342097D01*
X70171515Y-83360751D01*
X70149204Y-83377297D01*
X70125379Y-83391578D01*
X70100269Y-83403454D01*
X70074115Y-83412812D01*
X70047170Y-83419561D01*
X70019694Y-83423637D01*
X69991950Y-83425000D01*
X68008050Y-83425000D01*
X67980306Y-83423637D01*
X67952830Y-83419561D01*
X67925885Y-83412812D01*
X67899731Y-83403454D01*
X67874621Y-83391578D01*
X67850796Y-83377297D01*
X67828485Y-83360751D01*
X67807903Y-83342097D01*
X67789249Y-83321515D01*
X67772703Y-83299204D01*
X67758422Y-83275379D01*
X67746546Y-83250269D01*
X67737188Y-83224115D01*
X67730439Y-83197170D01*
X67726363Y-83169694D01*
X67725000Y-83141950D01*
X67725000Y-80858050D01*
X67726363Y-80830306D01*
X67730439Y-80802830D01*
X67737188Y-80775885D01*
X67746546Y-80749731D01*
X67758422Y-80724621D01*
X67772703Y-80700796D01*
X67789249Y-80678485D01*
X67807903Y-80657903D01*
X67828485Y-80639249D01*
X67850796Y-80622703D01*
X67874621Y-80608422D01*
X67899731Y-80596546D01*
X67925885Y-80587188D01*
X67952830Y-80580439D01*
X67980306Y-80576363D01*
X68008050Y-80575000D01*
X69991950Y-80575000D01*
X70019694Y-80576363D01*
X70019694Y-80576363D01*
G37*
D19*
X69000000Y-82000000D03*
D10*
G36*
X76419694Y-80576363D02*
G01*
X76447170Y-80580439D01*
X76474115Y-80587188D01*
X76500269Y-80596546D01*
X76525379Y-80608422D01*
X76549204Y-80622703D01*
X76571515Y-80639249D01*
X76592097Y-80657903D01*
X76610751Y-80678485D01*
X76627297Y-80700796D01*
X76641578Y-80724621D01*
X76653454Y-80749731D01*
X76662812Y-80775885D01*
X76669561Y-80802830D01*
X76673637Y-80830306D01*
X76675000Y-80858050D01*
X76675000Y-83141950D01*
X76673637Y-83169694D01*
X76669561Y-83197170D01*
X76662812Y-83224115D01*
X76653454Y-83250269D01*
X76641578Y-83275379D01*
X76627297Y-83299204D01*
X76610751Y-83321515D01*
X76592097Y-83342097D01*
X76571515Y-83360751D01*
X76549204Y-83377297D01*
X76525379Y-83391578D01*
X76500269Y-83403454D01*
X76474115Y-83412812D01*
X76447170Y-83419561D01*
X76419694Y-83423637D01*
X76391950Y-83425000D01*
X74408050Y-83425000D01*
X74380306Y-83423637D01*
X74352830Y-83419561D01*
X74325885Y-83412812D01*
X74299731Y-83403454D01*
X74274621Y-83391578D01*
X74250796Y-83377297D01*
X74228485Y-83360751D01*
X74207903Y-83342097D01*
X74189249Y-83321515D01*
X74172703Y-83299204D01*
X74158422Y-83275379D01*
X74146546Y-83250269D01*
X74137188Y-83224115D01*
X74130439Y-83197170D01*
X74126363Y-83169694D01*
X74125000Y-83141950D01*
X74125000Y-80858050D01*
X74126363Y-80830306D01*
X74130439Y-80802830D01*
X74137188Y-80775885D01*
X74146546Y-80749731D01*
X74158422Y-80724621D01*
X74172703Y-80700796D01*
X74189249Y-80678485D01*
X74207903Y-80657903D01*
X74228485Y-80639249D01*
X74250796Y-80622703D01*
X74274621Y-80608422D01*
X74299731Y-80596546D01*
X74325885Y-80587188D01*
X74352830Y-80580439D01*
X74380306Y-80576363D01*
X74408050Y-80575000D01*
X76391950Y-80575000D01*
X76419694Y-80576363D01*
X76419694Y-80576363D01*
G37*
D19*
X75400000Y-82000000D03*
M02*
