G04 #@! TF.GenerationSoftware,KiCad,Pcbnew,(5.1.4)-1*
G04 #@! TF.CreationDate,2020-04-08T10:51:13+02:00*
G04 #@! TF.ProjectId,PCB_Theremin,5043425f-5468-4657-9265-6d696e2e6b69,rev?*
G04 #@! TF.SameCoordinates,Original*
G04 #@! TF.FileFunction,Legend,Top*
G04 #@! TF.FilePolarity,Positive*
%FSLAX46Y46*%
G04 Gerber Fmt 4.6, Leading zero omitted, Abs format (unit mm)*
G04 Created by KiCad (PCBNEW (5.1.4)-1) date 2020-04-08 10:51:13*
%MOMM*%
%LPD*%
G04 APERTURE LIST*
%ADD10C,0.300000*%
%ADD11C,0.150000*%
%ADD12C,0.120000*%
G04 APERTURE END LIST*
D10*
X203000000Y-88035714D02*
X203071428Y-88107142D01*
X203000000Y-88178571D01*
X202928571Y-88107142D01*
X203000000Y-88035714D01*
X203000000Y-88178571D01*
X87800000Y-108035714D02*
X87871428Y-108107142D01*
X87800000Y-108178571D01*
X87728571Y-108107142D01*
X87800000Y-108035714D01*
X87800000Y-108178571D01*
D11*
X174461904Y-63285714D02*
X174700000Y-63952380D01*
X174938095Y-63285714D01*
X175461904Y-63952380D02*
X175366666Y-63904761D01*
X175319047Y-63857142D01*
X175271428Y-63761904D01*
X175271428Y-63476190D01*
X175319047Y-63380952D01*
X175366666Y-63333333D01*
X175461904Y-63285714D01*
X175604761Y-63285714D01*
X175700000Y-63333333D01*
X175747619Y-63380952D01*
X175795238Y-63476190D01*
X175795238Y-63761904D01*
X175747619Y-63857142D01*
X175700000Y-63904761D01*
X175604761Y-63952380D01*
X175461904Y-63952380D01*
X176366666Y-63952380D02*
X176271428Y-63904761D01*
X176223809Y-63809523D01*
X176223809Y-62952380D01*
X177176190Y-63285714D02*
X177176190Y-63952380D01*
X176747619Y-63285714D02*
X176747619Y-63809523D01*
X176795238Y-63904761D01*
X176890476Y-63952380D01*
X177033333Y-63952380D01*
X177128571Y-63904761D01*
X177176190Y-63857142D01*
X177652380Y-63952380D02*
X177652380Y-63285714D01*
X177652380Y-63380952D02*
X177700000Y-63333333D01*
X177795238Y-63285714D01*
X177938095Y-63285714D01*
X178033333Y-63333333D01*
X178080952Y-63428571D01*
X178080952Y-63952380D01*
X178080952Y-63428571D02*
X178128571Y-63333333D01*
X178223809Y-63285714D01*
X178366666Y-63285714D01*
X178461904Y-63333333D01*
X178509523Y-63428571D01*
X178509523Y-63952380D01*
X179366666Y-63904761D02*
X179271428Y-63952380D01*
X179080952Y-63952380D01*
X178985714Y-63904761D01*
X178938095Y-63809523D01*
X178938095Y-63428571D01*
X178985714Y-63333333D01*
X179080952Y-63285714D01*
X179271428Y-63285714D01*
X179366666Y-63333333D01*
X179414285Y-63428571D01*
X179414285Y-63523809D01*
X178938095Y-63619047D01*
X179604761Y-64047619D02*
X180366666Y-64047619D01*
X180747619Y-63952380D02*
X180652380Y-63904761D01*
X180604761Y-63857142D01*
X180557142Y-63761904D01*
X180557142Y-63476190D01*
X180604761Y-63380952D01*
X180652380Y-63333333D01*
X180747619Y-63285714D01*
X180890476Y-63285714D01*
X180985714Y-63333333D01*
X181033333Y-63380952D01*
X181080952Y-63476190D01*
X181080952Y-63761904D01*
X181033333Y-63857142D01*
X180985714Y-63904761D01*
X180890476Y-63952380D01*
X180747619Y-63952380D01*
X181461904Y-63904761D02*
X181557142Y-63952380D01*
X181747619Y-63952380D01*
X181842857Y-63904761D01*
X181890476Y-63809523D01*
X181890476Y-63761904D01*
X181842857Y-63666666D01*
X181747619Y-63619047D01*
X181604761Y-63619047D01*
X181509523Y-63571428D01*
X181461904Y-63476190D01*
X181461904Y-63428571D01*
X181509523Y-63333333D01*
X181604761Y-63285714D01*
X181747619Y-63285714D01*
X181842857Y-63333333D01*
X182747619Y-63904761D02*
X182652380Y-63952380D01*
X182461904Y-63952380D01*
X182366666Y-63904761D01*
X182319047Y-63857142D01*
X182271428Y-63761904D01*
X182271428Y-63476190D01*
X182319047Y-63380952D01*
X182366666Y-63333333D01*
X182461904Y-63285714D01*
X182652380Y-63285714D01*
X182747619Y-63333333D01*
X182938095Y-64047619D02*
X183700000Y-64047619D01*
X184080952Y-63952380D02*
X183985714Y-63904761D01*
X183938095Y-63857142D01*
X183890476Y-63761904D01*
X183890476Y-63476190D01*
X183938095Y-63380952D01*
X183985714Y-63333333D01*
X184080952Y-63285714D01*
X184223809Y-63285714D01*
X184319047Y-63333333D01*
X184366666Y-63380952D01*
X184414285Y-63476190D01*
X184414285Y-63761904D01*
X184366666Y-63857142D01*
X184319047Y-63904761D01*
X184223809Y-63952380D01*
X184080952Y-63952380D01*
X185271428Y-63285714D02*
X185271428Y-63952380D01*
X184842857Y-63285714D02*
X184842857Y-63809523D01*
X184890476Y-63904761D01*
X184985714Y-63952380D01*
X185128571Y-63952380D01*
X185223809Y-63904761D01*
X185271428Y-63857142D01*
X185604761Y-63285714D02*
X185985714Y-63285714D01*
X185747619Y-62952380D02*
X185747619Y-63809523D01*
X185795238Y-63904761D01*
X185890476Y-63952380D01*
X185985714Y-63952380D01*
X193042857Y-63285714D02*
X193042857Y-64285714D01*
X193042857Y-63333333D02*
X193138095Y-63285714D01*
X193328571Y-63285714D01*
X193423809Y-63333333D01*
X193471428Y-63380952D01*
X193519047Y-63476190D01*
X193519047Y-63761904D01*
X193471428Y-63857142D01*
X193423809Y-63904761D01*
X193328571Y-63952380D01*
X193138095Y-63952380D01*
X193042857Y-63904761D01*
X193947619Y-63952380D02*
X193947619Y-63285714D01*
X193947619Y-62952380D02*
X193900000Y-63000000D01*
X193947619Y-63047619D01*
X193995238Y-63000000D01*
X193947619Y-62952380D01*
X193947619Y-63047619D01*
X194280952Y-63285714D02*
X194661904Y-63285714D01*
X194423809Y-62952380D02*
X194423809Y-63809523D01*
X194471428Y-63904761D01*
X194566666Y-63952380D01*
X194661904Y-63952380D01*
X195423809Y-63904761D02*
X195328571Y-63952380D01*
X195138095Y-63952380D01*
X195042857Y-63904761D01*
X194995238Y-63857142D01*
X194947619Y-63761904D01*
X194947619Y-63476190D01*
X194995238Y-63380952D01*
X195042857Y-63333333D01*
X195138095Y-63285714D01*
X195328571Y-63285714D01*
X195423809Y-63333333D01*
X195852380Y-63952380D02*
X195852380Y-62952380D01*
X196280952Y-63952380D02*
X196280952Y-63428571D01*
X196233333Y-63333333D01*
X196138095Y-63285714D01*
X195995238Y-63285714D01*
X195900000Y-63333333D01*
X195852380Y-63380952D01*
X196519047Y-64047619D02*
X197280952Y-64047619D01*
X197661904Y-63952380D02*
X197566666Y-63904761D01*
X197519047Y-63857142D01*
X197471428Y-63761904D01*
X197471428Y-63476190D01*
X197519047Y-63380952D01*
X197566666Y-63333333D01*
X197661904Y-63285714D01*
X197804761Y-63285714D01*
X197900000Y-63333333D01*
X197947619Y-63380952D01*
X197995238Y-63476190D01*
X197995238Y-63761904D01*
X197947619Y-63857142D01*
X197900000Y-63904761D01*
X197804761Y-63952380D01*
X197661904Y-63952380D01*
X198376190Y-63904761D02*
X198471428Y-63952380D01*
X198661904Y-63952380D01*
X198757142Y-63904761D01*
X198804761Y-63809523D01*
X198804761Y-63761904D01*
X198757142Y-63666666D01*
X198661904Y-63619047D01*
X198519047Y-63619047D01*
X198423809Y-63571428D01*
X198376190Y-63476190D01*
X198376190Y-63428571D01*
X198423809Y-63333333D01*
X198519047Y-63285714D01*
X198661904Y-63285714D01*
X198757142Y-63333333D01*
X199661904Y-63904761D02*
X199566666Y-63952380D01*
X199376190Y-63952380D01*
X199280952Y-63904761D01*
X199233333Y-63857142D01*
X199185714Y-63761904D01*
X199185714Y-63476190D01*
X199233333Y-63380952D01*
X199280952Y-63333333D01*
X199376190Y-63285714D01*
X199566666Y-63285714D01*
X199661904Y-63333333D01*
X199852380Y-64047619D02*
X200614285Y-64047619D01*
X200995238Y-63952380D02*
X200900000Y-63904761D01*
X200852380Y-63857142D01*
X200804761Y-63761904D01*
X200804761Y-63476190D01*
X200852380Y-63380952D01*
X200900000Y-63333333D01*
X200995238Y-63285714D01*
X201138095Y-63285714D01*
X201233333Y-63333333D01*
X201280952Y-63380952D01*
X201328571Y-63476190D01*
X201328571Y-63761904D01*
X201280952Y-63857142D01*
X201233333Y-63904761D01*
X201138095Y-63952380D01*
X200995238Y-63952380D01*
X202185714Y-63285714D02*
X202185714Y-63952380D01*
X201757142Y-63285714D02*
X201757142Y-63809523D01*
X201804761Y-63904761D01*
X201900000Y-63952380D01*
X202042857Y-63952380D01*
X202138095Y-63904761D01*
X202185714Y-63857142D01*
X202519047Y-63285714D02*
X202900000Y-63285714D01*
X202661904Y-62952380D02*
X202661904Y-63809523D01*
X202709523Y-63904761D01*
X202804761Y-63952380D01*
X202900000Y-63952380D01*
D12*
X191930000Y-62470000D02*
X191930000Y-63800000D01*
X190600000Y-62470000D02*
X191930000Y-62470000D01*
X189330000Y-62470000D02*
X189330000Y-65130000D01*
X189330000Y-65130000D02*
X186730000Y-65130000D01*
X189330000Y-62470000D02*
X186730000Y-62470000D01*
X186730000Y-62470000D02*
X186730000Y-65130000D01*
X81602500Y-99710000D02*
X85812500Y-99710000D01*
X81602500Y-96690000D02*
X81602500Y-99710000D01*
X85812500Y-96690000D02*
X81602500Y-96690000D01*
X73397500Y-63490000D02*
X69187500Y-63490000D01*
X73397500Y-66510000D02*
X73397500Y-63490000D01*
X69187500Y-66510000D02*
X73397500Y-66510000D01*
X189186252Y-114790000D02*
X188663748Y-114790000D01*
X189186252Y-116210000D02*
X188663748Y-116210000D01*
X75913748Y-98710000D02*
X76436252Y-98710000D01*
X75913748Y-97290000D02*
X76436252Y-97290000D01*
X79625000Y-75350000D02*
X78525000Y-75350000D01*
X79625000Y-77160000D02*
X79625000Y-75350000D01*
X81125000Y-77160000D02*
X79625000Y-77160000D01*
X79625000Y-68570000D02*
X74500000Y-68570000D01*
X79625000Y-66760000D02*
X79625000Y-68570000D01*
X81125000Y-66760000D02*
X79625000Y-66760000D01*
X91613748Y-106710000D02*
X92136252Y-106710000D01*
X91613748Y-105290000D02*
X92136252Y-105290000D01*
X201710000Y-84286252D02*
X201710000Y-83763748D01*
X200290000Y-84286252D02*
X200290000Y-83763748D01*
X81550000Y-87890000D02*
X87560000Y-87890000D01*
X83800000Y-94710000D02*
X87560000Y-94710000D01*
X87560000Y-87890000D02*
X87560000Y-89150000D01*
X87560000Y-94710000D02*
X87560000Y-93450000D01*
X95290000Y-111713748D02*
X95290000Y-112236252D01*
X96710000Y-111713748D02*
X96710000Y-112236252D01*
X95290000Y-105763748D02*
X95290000Y-106286252D01*
X96710000Y-105763748D02*
X96710000Y-106286252D01*
X206763748Y-80710000D02*
X207286252Y-80710000D01*
X206763748Y-79290000D02*
X207286252Y-79290000D01*
X200763748Y-80710000D02*
X201286252Y-80710000D01*
X200763748Y-79290000D02*
X201286252Y-79290000D01*
X84390000Y-111713748D02*
X84390000Y-112236252D01*
X85810000Y-111713748D02*
X85810000Y-112236252D01*
X84390000Y-105713748D02*
X84390000Y-106236252D01*
X85810000Y-105713748D02*
X85810000Y-106236252D01*
X206713748Y-91710000D02*
X207236252Y-91710000D01*
X206713748Y-90290000D02*
X207236252Y-90290000D01*
X200713748Y-91710000D02*
X201236252Y-91710000D01*
X200713748Y-90290000D02*
X201236252Y-90290000D01*
X74763748Y-111710000D02*
X75286252Y-111710000D01*
X74763748Y-110290000D02*
X75286252Y-110290000D01*
X190286252Y-101790000D02*
X189763748Y-101790000D01*
X190286252Y-103210000D02*
X189763748Y-103210000D01*
X75760000Y-108580000D02*
X74300000Y-108580000D01*
X75760000Y-105420000D02*
X73600000Y-105420000D01*
X75760000Y-105420000D02*
X75760000Y-106350000D01*
X75760000Y-108580000D02*
X75760000Y-107650000D01*
X189240000Y-104920000D02*
X190700000Y-104920000D01*
X189240000Y-108080000D02*
X191400000Y-108080000D01*
X189240000Y-108080000D02*
X189240000Y-107150000D01*
X189240000Y-104920000D02*
X189240000Y-105850000D01*
X76114564Y-100640000D02*
X74910436Y-100640000D01*
X76114564Y-103360000D02*
X74910436Y-103360000D01*
X188910436Y-112860000D02*
X190114564Y-112860000D01*
X188910436Y-110140000D02*
X190114564Y-110140000D01*
X210900000Y-99050000D02*
X209050000Y-99050000D01*
X210900000Y-99100000D02*
X210900000Y-99050000D01*
X210900000Y-100950000D02*
X210900000Y-99100000D01*
X209050000Y-100950000D02*
X210900000Y-100950000D01*
X209050000Y-99050000D02*
X209050000Y-100950000D01*
X56900000Y-99050000D02*
X55050000Y-99050000D01*
X56900000Y-99100000D02*
X56900000Y-99050000D01*
X56900000Y-100950000D02*
X56900000Y-99100000D01*
X55050000Y-100950000D02*
X56900000Y-100950000D01*
X55050000Y-99050000D02*
X55050000Y-100950000D01*
X64900000Y-69400000D02*
X64900000Y-72000000D01*
X50200000Y-69400000D02*
X64900000Y-69400000D01*
X64900000Y-78600000D02*
X63000000Y-78600000D01*
X64900000Y-75900000D02*
X64900000Y-78600000D01*
X50200000Y-78600000D02*
X50200000Y-69400000D01*
X59000000Y-78600000D02*
X50200000Y-78600000D01*
X64050000Y-69200000D02*
X65100000Y-69200000D01*
X65100000Y-70250000D02*
X65100000Y-69200000D01*
X64790000Y-111763748D02*
X64790000Y-112286252D01*
X66210000Y-111763748D02*
X66210000Y-112286252D01*
X200210000Y-101736252D02*
X200210000Y-101213748D01*
X198790000Y-101736252D02*
X198790000Y-101213748D01*
X69290000Y-111763748D02*
X69290000Y-112286252D01*
X70710000Y-111763748D02*
X70710000Y-112286252D01*
X69290000Y-106763748D02*
X69290000Y-107286252D01*
X70710000Y-106763748D02*
X70710000Y-107286252D01*
X195710000Y-101736252D02*
X195710000Y-101213748D01*
X194290000Y-101736252D02*
X194290000Y-101213748D01*
X195710000Y-106761252D02*
X195710000Y-106238748D01*
X194290000Y-106761252D02*
X194290000Y-106238748D01*
X64790000Y-106738748D02*
X64790000Y-107261252D01*
X66210000Y-106738748D02*
X66210000Y-107261252D01*
X200210000Y-106736252D02*
X200210000Y-106213748D01*
X198790000Y-106736252D02*
X198790000Y-106213748D01*
X92240000Y-90115000D02*
X92240000Y-98350000D01*
X96760000Y-90115000D02*
X92240000Y-90115000D01*
X96760000Y-98350000D02*
X96760000Y-90115000D01*
X76785000Y-79740000D02*
X68550000Y-79740000D01*
X76785000Y-84260000D02*
X76785000Y-79740000D01*
X68550000Y-84260000D02*
X76785000Y-84260000D01*
D11*
X188966666Y-66052380D02*
X188966666Y-66766666D01*
X188919047Y-66909523D01*
X188823809Y-67004761D01*
X188680952Y-67052380D01*
X188585714Y-67052380D01*
X189395238Y-66147619D02*
X189442857Y-66100000D01*
X189538095Y-66052380D01*
X189776190Y-66052380D01*
X189871428Y-66100000D01*
X189919047Y-66147619D01*
X189966666Y-66242857D01*
X189966666Y-66338095D01*
X189919047Y-66480952D01*
X189347619Y-67052380D01*
X189966666Y-67052380D01*
X83895833Y-96207142D02*
X83848214Y-96254761D01*
X83705357Y-96302380D01*
X83610119Y-96302380D01*
X83467261Y-96254761D01*
X83372023Y-96159523D01*
X83324404Y-96064285D01*
X83276785Y-95873809D01*
X83276785Y-95730952D01*
X83324404Y-95540476D01*
X83372023Y-95445238D01*
X83467261Y-95350000D01*
X83610119Y-95302380D01*
X83705357Y-95302380D01*
X83848214Y-95350000D01*
X83895833Y-95397619D01*
X84276785Y-95397619D02*
X84324404Y-95350000D01*
X84419642Y-95302380D01*
X84657738Y-95302380D01*
X84752976Y-95350000D01*
X84800595Y-95397619D01*
X84848214Y-95492857D01*
X84848214Y-95588095D01*
X84800595Y-95730952D01*
X84229166Y-96302380D01*
X84848214Y-96302380D01*
X70770833Y-67707142D02*
X70723214Y-67754761D01*
X70580357Y-67802380D01*
X70485119Y-67802380D01*
X70342261Y-67754761D01*
X70247023Y-67659523D01*
X70199404Y-67564285D01*
X70151785Y-67373809D01*
X70151785Y-67230952D01*
X70199404Y-67040476D01*
X70247023Y-66945238D01*
X70342261Y-66850000D01*
X70485119Y-66802380D01*
X70580357Y-66802380D01*
X70723214Y-66850000D01*
X70770833Y-66897619D01*
X71723214Y-67802380D02*
X71151785Y-67802380D01*
X71437500Y-67802380D02*
X71437500Y-66802380D01*
X71342261Y-66945238D01*
X71247023Y-67040476D01*
X71151785Y-67088095D01*
X205552380Y-87011904D02*
X206361904Y-87011904D01*
X206457142Y-86964285D01*
X206504761Y-86916666D01*
X206552380Y-86821428D01*
X206552380Y-86630952D01*
X206504761Y-86535714D01*
X206457142Y-86488095D01*
X206361904Y-86440476D01*
X205552380Y-86440476D01*
X205552380Y-86059523D02*
X205552380Y-85440476D01*
X205933333Y-85773809D01*
X205933333Y-85630952D01*
X205980952Y-85535714D01*
X206028571Y-85488095D01*
X206123809Y-85440476D01*
X206361904Y-85440476D01*
X206457142Y-85488095D01*
X206504761Y-85535714D01*
X206552380Y-85630952D01*
X206552380Y-85916666D01*
X206504761Y-86011904D01*
X206457142Y-86059523D01*
X88818095Y-111262380D02*
X88818095Y-112071904D01*
X88865714Y-112167142D01*
X88913333Y-112214761D01*
X89008571Y-112262380D01*
X89199047Y-112262380D01*
X89294285Y-112214761D01*
X89341904Y-112167142D01*
X89389523Y-112071904D01*
X89389523Y-111262380D01*
X90294285Y-111595714D02*
X90294285Y-112262380D01*
X90056190Y-111214761D02*
X89818095Y-111929047D01*
X90437142Y-111929047D01*
X188282142Y-117507142D02*
X188234523Y-117554761D01*
X188091666Y-117602380D01*
X187996428Y-117602380D01*
X187853571Y-117554761D01*
X187758333Y-117459523D01*
X187710714Y-117364285D01*
X187663095Y-117173809D01*
X187663095Y-117030952D01*
X187710714Y-116840476D01*
X187758333Y-116745238D01*
X187853571Y-116650000D01*
X187996428Y-116602380D01*
X188091666Y-116602380D01*
X188234523Y-116650000D01*
X188282142Y-116697619D01*
X189234523Y-117602380D02*
X188663095Y-117602380D01*
X188948809Y-117602380D02*
X188948809Y-116602380D01*
X188853571Y-116745238D01*
X188758333Y-116840476D01*
X188663095Y-116888095D01*
X190091666Y-116602380D02*
X189901190Y-116602380D01*
X189805952Y-116650000D01*
X189758333Y-116697619D01*
X189663095Y-116840476D01*
X189615476Y-117030952D01*
X189615476Y-117411904D01*
X189663095Y-117507142D01*
X189710714Y-117554761D01*
X189805952Y-117602380D01*
X189996428Y-117602380D01*
X190091666Y-117554761D01*
X190139285Y-117507142D01*
X190186904Y-117411904D01*
X190186904Y-117173809D01*
X190139285Y-117078571D01*
X190091666Y-117030952D01*
X189996428Y-116983333D01*
X189805952Y-116983333D01*
X189710714Y-117030952D01*
X189663095Y-117078571D01*
X189615476Y-117173809D01*
X72627142Y-96607142D02*
X72579523Y-96654761D01*
X72436666Y-96702380D01*
X72341428Y-96702380D01*
X72198571Y-96654761D01*
X72103333Y-96559523D01*
X72055714Y-96464285D01*
X72008095Y-96273809D01*
X72008095Y-96130952D01*
X72055714Y-95940476D01*
X72103333Y-95845238D01*
X72198571Y-95750000D01*
X72341428Y-95702380D01*
X72436666Y-95702380D01*
X72579523Y-95750000D01*
X72627142Y-95797619D01*
X73579523Y-96702380D02*
X73008095Y-96702380D01*
X73293809Y-96702380D02*
X73293809Y-95702380D01*
X73198571Y-95845238D01*
X73103333Y-95940476D01*
X73008095Y-95988095D01*
X74484285Y-95702380D02*
X74008095Y-95702380D01*
X73960476Y-96178571D01*
X74008095Y-96130952D01*
X74103333Y-96083333D01*
X74341428Y-96083333D01*
X74436666Y-96130952D01*
X74484285Y-96178571D01*
X74531904Y-96273809D01*
X74531904Y-96511904D01*
X74484285Y-96607142D01*
X74436666Y-96654761D01*
X74341428Y-96702380D01*
X74103333Y-96702380D01*
X74008095Y-96654761D01*
X73960476Y-96607142D01*
X78038095Y-64922380D02*
X78038095Y-65731904D01*
X78085714Y-65827142D01*
X78133333Y-65874761D01*
X78228571Y-65922380D01*
X78419047Y-65922380D01*
X78514285Y-65874761D01*
X78561904Y-65827142D01*
X78609523Y-65731904D01*
X78609523Y-64922380D01*
X79038095Y-65017619D02*
X79085714Y-64970000D01*
X79180952Y-64922380D01*
X79419047Y-64922380D01*
X79514285Y-64970000D01*
X79561904Y-65017619D01*
X79609523Y-65112857D01*
X79609523Y-65208095D01*
X79561904Y-65350952D01*
X78990476Y-65922380D01*
X79609523Y-65922380D01*
X91977142Y-104737142D02*
X91929523Y-104784761D01*
X91786666Y-104832380D01*
X91691428Y-104832380D01*
X91548571Y-104784761D01*
X91453333Y-104689523D01*
X91405714Y-104594285D01*
X91358095Y-104403809D01*
X91358095Y-104260952D01*
X91405714Y-104070476D01*
X91453333Y-103975238D01*
X91548571Y-103880000D01*
X91691428Y-103832380D01*
X91786666Y-103832380D01*
X91929523Y-103880000D01*
X91977142Y-103927619D01*
X92929523Y-104832380D02*
X92358095Y-104832380D01*
X92643809Y-104832380D02*
X92643809Y-103832380D01*
X92548571Y-103975238D01*
X92453333Y-104070476D01*
X92358095Y-104118095D01*
X93786666Y-104165714D02*
X93786666Y-104832380D01*
X93548571Y-103784761D02*
X93310476Y-104499047D01*
X93929523Y-104499047D01*
X199587142Y-84032857D02*
X199634761Y-84080476D01*
X199682380Y-84223333D01*
X199682380Y-84318571D01*
X199634761Y-84461428D01*
X199539523Y-84556666D01*
X199444285Y-84604285D01*
X199253809Y-84651904D01*
X199110952Y-84651904D01*
X198920476Y-84604285D01*
X198825238Y-84556666D01*
X198730000Y-84461428D01*
X198682380Y-84318571D01*
X198682380Y-84223333D01*
X198730000Y-84080476D01*
X198777619Y-84032857D01*
X199682380Y-83080476D02*
X199682380Y-83651904D01*
X199682380Y-83366190D02*
X198682380Y-83366190D01*
X198825238Y-83461428D01*
X198920476Y-83556666D01*
X198968095Y-83651904D01*
X198682380Y-82747142D02*
X198682380Y-82128095D01*
X199063333Y-82461428D01*
X199063333Y-82318571D01*
X199110952Y-82223333D01*
X199158571Y-82175714D01*
X199253809Y-82128095D01*
X199491904Y-82128095D01*
X199587142Y-82175714D01*
X199634761Y-82223333D01*
X199682380Y-82318571D01*
X199682380Y-82604285D01*
X199634761Y-82699523D01*
X199587142Y-82747142D01*
X84888095Y-86252380D02*
X84888095Y-87061904D01*
X84935714Y-87157142D01*
X84983333Y-87204761D01*
X85078571Y-87252380D01*
X85269047Y-87252380D01*
X85364285Y-87204761D01*
X85411904Y-87157142D01*
X85459523Y-87061904D01*
X85459523Y-86252380D01*
X86459523Y-87252380D02*
X85888095Y-87252380D01*
X86173809Y-87252380D02*
X86173809Y-86252380D01*
X86078571Y-86395238D01*
X85983333Y-86490476D01*
X85888095Y-86538095D01*
X98102380Y-112617857D02*
X97626190Y-112951190D01*
X98102380Y-113189285D02*
X97102380Y-113189285D01*
X97102380Y-112808333D01*
X97150000Y-112713095D01*
X97197619Y-112665476D01*
X97292857Y-112617857D01*
X97435714Y-112617857D01*
X97530952Y-112665476D01*
X97578571Y-112713095D01*
X97626190Y-112808333D01*
X97626190Y-113189285D01*
X98102380Y-111665476D02*
X98102380Y-112236904D01*
X98102380Y-111951190D02*
X97102380Y-111951190D01*
X97245238Y-112046428D01*
X97340476Y-112141666D01*
X97388095Y-112236904D01*
X97102380Y-111046428D02*
X97102380Y-110951190D01*
X97150000Y-110855952D01*
X97197619Y-110808333D01*
X97292857Y-110760714D01*
X97483333Y-110713095D01*
X97721428Y-110713095D01*
X97911904Y-110760714D01*
X98007142Y-110808333D01*
X98054761Y-110855952D01*
X98102380Y-110951190D01*
X98102380Y-111046428D01*
X98054761Y-111141666D01*
X98007142Y-111189285D01*
X97911904Y-111236904D01*
X97721428Y-111284523D01*
X97483333Y-111284523D01*
X97292857Y-111236904D01*
X97197619Y-111189285D01*
X97150000Y-111141666D01*
X97102380Y-111046428D01*
X98062380Y-106626666D02*
X97586190Y-106960000D01*
X98062380Y-107198095D02*
X97062380Y-107198095D01*
X97062380Y-106817142D01*
X97110000Y-106721904D01*
X97157619Y-106674285D01*
X97252857Y-106626666D01*
X97395714Y-106626666D01*
X97490952Y-106674285D01*
X97538571Y-106721904D01*
X97586190Y-106817142D01*
X97586190Y-107198095D01*
X98062380Y-106150476D02*
X98062380Y-105960000D01*
X98014761Y-105864761D01*
X97967142Y-105817142D01*
X97824285Y-105721904D01*
X97633809Y-105674285D01*
X97252857Y-105674285D01*
X97157619Y-105721904D01*
X97110000Y-105769523D01*
X97062380Y-105864761D01*
X97062380Y-106055238D01*
X97110000Y-106150476D01*
X97157619Y-106198095D01*
X97252857Y-106245714D01*
X97490952Y-106245714D01*
X97586190Y-106198095D01*
X97633809Y-106150476D01*
X97681428Y-106055238D01*
X97681428Y-105864761D01*
X97633809Y-105769523D01*
X97586190Y-105721904D01*
X97490952Y-105674285D01*
X206858333Y-78802380D02*
X206525000Y-78326190D01*
X206286904Y-78802380D02*
X206286904Y-77802380D01*
X206667857Y-77802380D01*
X206763095Y-77850000D01*
X206810714Y-77897619D01*
X206858333Y-77992857D01*
X206858333Y-78135714D01*
X206810714Y-78230952D01*
X206763095Y-78278571D01*
X206667857Y-78326190D01*
X206286904Y-78326190D01*
X207429761Y-78230952D02*
X207334523Y-78183333D01*
X207286904Y-78135714D01*
X207239285Y-78040476D01*
X207239285Y-77992857D01*
X207286904Y-77897619D01*
X207334523Y-77850000D01*
X207429761Y-77802380D01*
X207620238Y-77802380D01*
X207715476Y-77850000D01*
X207763095Y-77897619D01*
X207810714Y-77992857D01*
X207810714Y-78040476D01*
X207763095Y-78135714D01*
X207715476Y-78183333D01*
X207620238Y-78230952D01*
X207429761Y-78230952D01*
X207334523Y-78278571D01*
X207286904Y-78326190D01*
X207239285Y-78421428D01*
X207239285Y-78611904D01*
X207286904Y-78707142D01*
X207334523Y-78754761D01*
X207429761Y-78802380D01*
X207620238Y-78802380D01*
X207715476Y-78754761D01*
X207763095Y-78707142D01*
X207810714Y-78611904D01*
X207810714Y-78421428D01*
X207763095Y-78326190D01*
X207715476Y-78278571D01*
X207620238Y-78230952D01*
X200858333Y-78802380D02*
X200525000Y-78326190D01*
X200286904Y-78802380D02*
X200286904Y-77802380D01*
X200667857Y-77802380D01*
X200763095Y-77850000D01*
X200810714Y-77897619D01*
X200858333Y-77992857D01*
X200858333Y-78135714D01*
X200810714Y-78230952D01*
X200763095Y-78278571D01*
X200667857Y-78326190D01*
X200286904Y-78326190D01*
X201191666Y-77802380D02*
X201858333Y-77802380D01*
X201429761Y-78802380D01*
X87272380Y-112666666D02*
X86796190Y-113000000D01*
X87272380Y-113238095D02*
X86272380Y-113238095D01*
X86272380Y-112857142D01*
X86320000Y-112761904D01*
X86367619Y-112714285D01*
X86462857Y-112666666D01*
X86605714Y-112666666D01*
X86700952Y-112714285D01*
X86748571Y-112761904D01*
X86796190Y-112857142D01*
X86796190Y-113238095D01*
X86272380Y-111809523D02*
X86272380Y-112000000D01*
X86320000Y-112095238D01*
X86367619Y-112142857D01*
X86510476Y-112238095D01*
X86700952Y-112285714D01*
X87081904Y-112285714D01*
X87177142Y-112238095D01*
X87224761Y-112190476D01*
X87272380Y-112095238D01*
X87272380Y-111904761D01*
X87224761Y-111809523D01*
X87177142Y-111761904D01*
X87081904Y-111714285D01*
X86843809Y-111714285D01*
X86748571Y-111761904D01*
X86700952Y-111809523D01*
X86653333Y-111904761D01*
X86653333Y-112095238D01*
X86700952Y-112190476D01*
X86748571Y-112238095D01*
X86843809Y-112285714D01*
X87202380Y-106141666D02*
X86726190Y-106475000D01*
X87202380Y-106713095D02*
X86202380Y-106713095D01*
X86202380Y-106332142D01*
X86250000Y-106236904D01*
X86297619Y-106189285D01*
X86392857Y-106141666D01*
X86535714Y-106141666D01*
X86630952Y-106189285D01*
X86678571Y-106236904D01*
X86726190Y-106332142D01*
X86726190Y-106713095D01*
X86202380Y-105236904D02*
X86202380Y-105713095D01*
X86678571Y-105760714D01*
X86630952Y-105713095D01*
X86583333Y-105617857D01*
X86583333Y-105379761D01*
X86630952Y-105284523D01*
X86678571Y-105236904D01*
X86773809Y-105189285D01*
X87011904Y-105189285D01*
X87107142Y-105236904D01*
X87154761Y-105284523D01*
X87202380Y-105379761D01*
X87202380Y-105617857D01*
X87154761Y-105713095D01*
X87107142Y-105760714D01*
X206808333Y-89802380D02*
X206475000Y-89326190D01*
X206236904Y-89802380D02*
X206236904Y-88802380D01*
X206617857Y-88802380D01*
X206713095Y-88850000D01*
X206760714Y-88897619D01*
X206808333Y-88992857D01*
X206808333Y-89135714D01*
X206760714Y-89230952D01*
X206713095Y-89278571D01*
X206617857Y-89326190D01*
X206236904Y-89326190D01*
X207665476Y-89135714D02*
X207665476Y-89802380D01*
X207427380Y-88754761D02*
X207189285Y-89469047D01*
X207808333Y-89469047D01*
X200808333Y-89802380D02*
X200475000Y-89326190D01*
X200236904Y-89802380D02*
X200236904Y-88802380D01*
X200617857Y-88802380D01*
X200713095Y-88850000D01*
X200760714Y-88897619D01*
X200808333Y-88992857D01*
X200808333Y-89135714D01*
X200760714Y-89230952D01*
X200713095Y-89278571D01*
X200617857Y-89326190D01*
X200236904Y-89326190D01*
X201141666Y-88802380D02*
X201760714Y-88802380D01*
X201427380Y-89183333D01*
X201570238Y-89183333D01*
X201665476Y-89230952D01*
X201713095Y-89278571D01*
X201760714Y-89373809D01*
X201760714Y-89611904D01*
X201713095Y-89707142D01*
X201665476Y-89754761D01*
X201570238Y-89802380D01*
X201284523Y-89802380D01*
X201189285Y-89754761D01*
X201141666Y-89707142D01*
X74833333Y-113452380D02*
X74500000Y-112976190D01*
X74261904Y-113452380D02*
X74261904Y-112452380D01*
X74642857Y-112452380D01*
X74738095Y-112500000D01*
X74785714Y-112547619D01*
X74833333Y-112642857D01*
X74833333Y-112785714D01*
X74785714Y-112880952D01*
X74738095Y-112928571D01*
X74642857Y-112976190D01*
X74261904Y-112976190D01*
X75214285Y-112547619D02*
X75261904Y-112500000D01*
X75357142Y-112452380D01*
X75595238Y-112452380D01*
X75690476Y-112500000D01*
X75738095Y-112547619D01*
X75785714Y-112642857D01*
X75785714Y-112738095D01*
X75738095Y-112880952D01*
X75166666Y-113452380D01*
X75785714Y-113452380D01*
X189833333Y-100952380D02*
X189500000Y-100476190D01*
X189261904Y-100952380D02*
X189261904Y-99952380D01*
X189642857Y-99952380D01*
X189738095Y-100000000D01*
X189785714Y-100047619D01*
X189833333Y-100142857D01*
X189833333Y-100285714D01*
X189785714Y-100380952D01*
X189738095Y-100428571D01*
X189642857Y-100476190D01*
X189261904Y-100476190D01*
X190785714Y-100952380D02*
X190214285Y-100952380D01*
X190500000Y-100952380D02*
X190500000Y-99952380D01*
X190404761Y-100095238D01*
X190309523Y-100190476D01*
X190214285Y-100238095D01*
X77834761Y-106137619D02*
X77739523Y-106090000D01*
X77644285Y-105994761D01*
X77501428Y-105851904D01*
X77406190Y-105804285D01*
X77310952Y-105804285D01*
X77358571Y-106042380D02*
X77263333Y-105994761D01*
X77168095Y-105899523D01*
X77120476Y-105709047D01*
X77120476Y-105375714D01*
X77168095Y-105185238D01*
X77263333Y-105090000D01*
X77358571Y-105042380D01*
X77549047Y-105042380D01*
X77644285Y-105090000D01*
X77739523Y-105185238D01*
X77787142Y-105375714D01*
X77787142Y-105709047D01*
X77739523Y-105899523D01*
X77644285Y-105994761D01*
X77549047Y-106042380D01*
X77358571Y-106042380D01*
X78168095Y-105137619D02*
X78215714Y-105090000D01*
X78310952Y-105042380D01*
X78549047Y-105042380D01*
X78644285Y-105090000D01*
X78691904Y-105137619D01*
X78739523Y-105232857D01*
X78739523Y-105328095D01*
X78691904Y-105470952D01*
X78120476Y-106042380D01*
X78739523Y-106042380D01*
X186804761Y-108157619D02*
X186709523Y-108110000D01*
X186614285Y-108014761D01*
X186471428Y-107871904D01*
X186376190Y-107824285D01*
X186280952Y-107824285D01*
X186328571Y-108062380D02*
X186233333Y-108014761D01*
X186138095Y-107919523D01*
X186090476Y-107729047D01*
X186090476Y-107395714D01*
X186138095Y-107205238D01*
X186233333Y-107110000D01*
X186328571Y-107062380D01*
X186519047Y-107062380D01*
X186614285Y-107110000D01*
X186709523Y-107205238D01*
X186757142Y-107395714D01*
X186757142Y-107729047D01*
X186709523Y-107919523D01*
X186614285Y-108014761D01*
X186519047Y-108062380D01*
X186328571Y-108062380D01*
X187709523Y-108062380D02*
X187138095Y-108062380D01*
X187423809Y-108062380D02*
X187423809Y-107062380D01*
X187328571Y-107205238D01*
X187233333Y-107300476D01*
X187138095Y-107348095D01*
X71213333Y-101412380D02*
X70737142Y-101412380D01*
X70737142Y-100412380D01*
X71499047Y-100507619D02*
X71546666Y-100460000D01*
X71641904Y-100412380D01*
X71880000Y-100412380D01*
X71975238Y-100460000D01*
X72022857Y-100507619D01*
X72070476Y-100602857D01*
X72070476Y-100698095D01*
X72022857Y-100840952D01*
X71451428Y-101412380D01*
X72070476Y-101412380D01*
X192773333Y-111352380D02*
X192297142Y-111352380D01*
X192297142Y-110352380D01*
X193630476Y-111352380D02*
X193059047Y-111352380D01*
X193344761Y-111352380D02*
X193344761Y-110352380D01*
X193249523Y-110495238D01*
X193154285Y-110590476D01*
X193059047Y-110638095D01*
X203643809Y-97335714D02*
X203643809Y-98335714D01*
X203643809Y-97383333D02*
X203739047Y-97335714D01*
X203929523Y-97335714D01*
X204024761Y-97383333D01*
X204072380Y-97430952D01*
X204120000Y-97526190D01*
X204120000Y-97811904D01*
X204072380Y-97907142D01*
X204024761Y-97954761D01*
X203929523Y-98002380D01*
X203739047Y-98002380D01*
X203643809Y-97954761D01*
X204548571Y-98002380D02*
X204548571Y-97335714D01*
X204548571Y-97002380D02*
X204500952Y-97050000D01*
X204548571Y-97097619D01*
X204596190Y-97050000D01*
X204548571Y-97002380D01*
X204548571Y-97097619D01*
X204881904Y-97335714D02*
X205262857Y-97335714D01*
X205024761Y-97002380D02*
X205024761Y-97859523D01*
X205072380Y-97954761D01*
X205167619Y-98002380D01*
X205262857Y-98002380D01*
X206024761Y-97954761D02*
X205929523Y-98002380D01*
X205739047Y-98002380D01*
X205643809Y-97954761D01*
X205596190Y-97907142D01*
X205548571Y-97811904D01*
X205548571Y-97526190D01*
X205596190Y-97430952D01*
X205643809Y-97383333D01*
X205739047Y-97335714D01*
X205929523Y-97335714D01*
X206024761Y-97383333D01*
X206453333Y-98002380D02*
X206453333Y-97002380D01*
X206881904Y-98002380D02*
X206881904Y-97478571D01*
X206834285Y-97383333D01*
X206739047Y-97335714D01*
X206596190Y-97335714D01*
X206500952Y-97383333D01*
X206453333Y-97430952D01*
X207120000Y-98097619D02*
X207881904Y-98097619D01*
X208548571Y-98002380D02*
X208548571Y-97478571D01*
X208500952Y-97383333D01*
X208405714Y-97335714D01*
X208215238Y-97335714D01*
X208120000Y-97383333D01*
X208548571Y-97954761D02*
X208453333Y-98002380D01*
X208215238Y-98002380D01*
X208120000Y-97954761D01*
X208072380Y-97859523D01*
X208072380Y-97764285D01*
X208120000Y-97669047D01*
X208215238Y-97621428D01*
X208453333Y-97621428D01*
X208548571Y-97573809D01*
X209024761Y-97335714D02*
X209024761Y-98002380D01*
X209024761Y-97430952D02*
X209072380Y-97383333D01*
X209167619Y-97335714D01*
X209310476Y-97335714D01*
X209405714Y-97383333D01*
X209453333Y-97478571D01*
X209453333Y-98002380D01*
X209786666Y-97335714D02*
X210167619Y-97335714D01*
X209929523Y-97002380D02*
X209929523Y-97859523D01*
X209977142Y-97954761D01*
X210072380Y-98002380D01*
X210167619Y-98002380D01*
X210881904Y-97954761D02*
X210786666Y-98002380D01*
X210596190Y-98002380D01*
X210500952Y-97954761D01*
X210453333Y-97859523D01*
X210453333Y-97478571D01*
X210500952Y-97383333D01*
X210596190Y-97335714D01*
X210786666Y-97335714D01*
X210881904Y-97383333D01*
X210929523Y-97478571D01*
X210929523Y-97573809D01*
X210453333Y-97669047D01*
X211358095Y-97335714D02*
X211358095Y-98002380D01*
X211358095Y-97430952D02*
X211405714Y-97383333D01*
X211500952Y-97335714D01*
X211643809Y-97335714D01*
X211739047Y-97383333D01*
X211786666Y-97478571D01*
X211786666Y-98002380D01*
X212262857Y-97335714D02*
X212262857Y-98002380D01*
X212262857Y-97430952D02*
X212310476Y-97383333D01*
X212405714Y-97335714D01*
X212548571Y-97335714D01*
X212643809Y-97383333D01*
X212691428Y-97478571D01*
X212691428Y-98002380D01*
X213596190Y-98002380D02*
X213596190Y-97478571D01*
X213548571Y-97383333D01*
X213453333Y-97335714D01*
X213262857Y-97335714D01*
X213167619Y-97383333D01*
X213596190Y-97954761D02*
X213500952Y-98002380D01*
X213262857Y-98002380D01*
X213167619Y-97954761D01*
X213120000Y-97859523D01*
X213120000Y-97764285D01*
X213167619Y-97669047D01*
X213262857Y-97621428D01*
X213500952Y-97621428D01*
X213596190Y-97573809D01*
X52602857Y-97335714D02*
X52840952Y-98002380D01*
X53079047Y-97335714D01*
X53602857Y-98002380D02*
X53507619Y-97954761D01*
X53460000Y-97907142D01*
X53412380Y-97811904D01*
X53412380Y-97526190D01*
X53460000Y-97430952D01*
X53507619Y-97383333D01*
X53602857Y-97335714D01*
X53745714Y-97335714D01*
X53840952Y-97383333D01*
X53888571Y-97430952D01*
X53936190Y-97526190D01*
X53936190Y-97811904D01*
X53888571Y-97907142D01*
X53840952Y-97954761D01*
X53745714Y-98002380D01*
X53602857Y-98002380D01*
X54507619Y-98002380D02*
X54412380Y-97954761D01*
X54364761Y-97859523D01*
X54364761Y-97002380D01*
X55317142Y-97335714D02*
X55317142Y-98002380D01*
X54888571Y-97335714D02*
X54888571Y-97859523D01*
X54936190Y-97954761D01*
X55031428Y-98002380D01*
X55174285Y-98002380D01*
X55269523Y-97954761D01*
X55317142Y-97907142D01*
X55793333Y-98002380D02*
X55793333Y-97335714D01*
X55793333Y-97430952D02*
X55840952Y-97383333D01*
X55936190Y-97335714D01*
X56079047Y-97335714D01*
X56174285Y-97383333D01*
X56221904Y-97478571D01*
X56221904Y-98002380D01*
X56221904Y-97478571D02*
X56269523Y-97383333D01*
X56364761Y-97335714D01*
X56507619Y-97335714D01*
X56602857Y-97383333D01*
X56650476Y-97478571D01*
X56650476Y-98002380D01*
X57507619Y-97954761D02*
X57412380Y-98002380D01*
X57221904Y-98002380D01*
X57126666Y-97954761D01*
X57079047Y-97859523D01*
X57079047Y-97478571D01*
X57126666Y-97383333D01*
X57221904Y-97335714D01*
X57412380Y-97335714D01*
X57507619Y-97383333D01*
X57555238Y-97478571D01*
X57555238Y-97573809D01*
X57079047Y-97669047D01*
X57745714Y-98097619D02*
X58507619Y-98097619D01*
X59174285Y-98002380D02*
X59174285Y-97478571D01*
X59126666Y-97383333D01*
X59031428Y-97335714D01*
X58840952Y-97335714D01*
X58745714Y-97383333D01*
X59174285Y-97954761D02*
X59079047Y-98002380D01*
X58840952Y-98002380D01*
X58745714Y-97954761D01*
X58698095Y-97859523D01*
X58698095Y-97764285D01*
X58745714Y-97669047D01*
X58840952Y-97621428D01*
X59079047Y-97621428D01*
X59174285Y-97573809D01*
X59650476Y-97335714D02*
X59650476Y-98002380D01*
X59650476Y-97430952D02*
X59698095Y-97383333D01*
X59793333Y-97335714D01*
X59936190Y-97335714D01*
X60031428Y-97383333D01*
X60079047Y-97478571D01*
X60079047Y-98002380D01*
X60412380Y-97335714D02*
X60793333Y-97335714D01*
X60555238Y-97002380D02*
X60555238Y-97859523D01*
X60602857Y-97954761D01*
X60698095Y-98002380D01*
X60793333Y-98002380D01*
X61507619Y-97954761D02*
X61412380Y-98002380D01*
X61221904Y-98002380D01*
X61126666Y-97954761D01*
X61079047Y-97859523D01*
X61079047Y-97478571D01*
X61126666Y-97383333D01*
X61221904Y-97335714D01*
X61412380Y-97335714D01*
X61507619Y-97383333D01*
X61555238Y-97478571D01*
X61555238Y-97573809D01*
X61079047Y-97669047D01*
X61983809Y-97335714D02*
X61983809Y-98002380D01*
X61983809Y-97430952D02*
X62031428Y-97383333D01*
X62126666Y-97335714D01*
X62269523Y-97335714D01*
X62364761Y-97383333D01*
X62412380Y-97478571D01*
X62412380Y-98002380D01*
X62888571Y-97335714D02*
X62888571Y-98002380D01*
X62888571Y-97430952D02*
X62936190Y-97383333D01*
X63031428Y-97335714D01*
X63174285Y-97335714D01*
X63269523Y-97383333D01*
X63317142Y-97478571D01*
X63317142Y-98002380D01*
X64221904Y-98002380D02*
X64221904Y-97478571D01*
X64174285Y-97383333D01*
X64079047Y-97335714D01*
X63888571Y-97335714D01*
X63793333Y-97383333D01*
X64221904Y-97954761D02*
X64126666Y-98002380D01*
X63888571Y-98002380D01*
X63793333Y-97954761D01*
X63745714Y-97859523D01*
X63745714Y-97764285D01*
X63793333Y-97669047D01*
X63888571Y-97621428D01*
X64126666Y-97621428D01*
X64221904Y-97573809D01*
X55216666Y-79202380D02*
X55216666Y-79916666D01*
X55169047Y-80059523D01*
X55073809Y-80154761D01*
X54930952Y-80202380D01*
X54835714Y-80202380D01*
X56216666Y-80202380D02*
X55645238Y-80202380D01*
X55930952Y-80202380D02*
X55930952Y-79202380D01*
X55835714Y-79345238D01*
X55740476Y-79440476D01*
X55645238Y-79488095D01*
X67497142Y-113222857D02*
X67544761Y-113270476D01*
X67592380Y-113413333D01*
X67592380Y-113508571D01*
X67544761Y-113651428D01*
X67449523Y-113746666D01*
X67354285Y-113794285D01*
X67163809Y-113841904D01*
X67020952Y-113841904D01*
X66830476Y-113794285D01*
X66735238Y-113746666D01*
X66640000Y-113651428D01*
X66592380Y-113508571D01*
X66592380Y-113413333D01*
X66640000Y-113270476D01*
X66687619Y-113222857D01*
X67592380Y-112270476D02*
X67592380Y-112841904D01*
X67592380Y-112556190D02*
X66592380Y-112556190D01*
X66735238Y-112651428D01*
X66830476Y-112746666D01*
X66878095Y-112841904D01*
X66687619Y-111889523D02*
X66640000Y-111841904D01*
X66592380Y-111746666D01*
X66592380Y-111508571D01*
X66640000Y-111413333D01*
X66687619Y-111365714D01*
X66782857Y-111318095D01*
X66878095Y-111318095D01*
X67020952Y-111365714D01*
X67592380Y-111937142D01*
X67592380Y-111318095D01*
X198207142Y-102117857D02*
X198254761Y-102165476D01*
X198302380Y-102308333D01*
X198302380Y-102403571D01*
X198254761Y-102546428D01*
X198159523Y-102641666D01*
X198064285Y-102689285D01*
X197873809Y-102736904D01*
X197730952Y-102736904D01*
X197540476Y-102689285D01*
X197445238Y-102641666D01*
X197350000Y-102546428D01*
X197302380Y-102403571D01*
X197302380Y-102308333D01*
X197350000Y-102165476D01*
X197397619Y-102117857D01*
X198302380Y-101165476D02*
X198302380Y-101736904D01*
X198302380Y-101451190D02*
X197302380Y-101451190D01*
X197445238Y-101546428D01*
X197540476Y-101641666D01*
X197588095Y-101736904D01*
X198302380Y-100213095D02*
X198302380Y-100784523D01*
X198302380Y-100498809D02*
X197302380Y-100498809D01*
X197445238Y-100594047D01*
X197540476Y-100689285D01*
X197588095Y-100784523D01*
X72017142Y-113222857D02*
X72064761Y-113270476D01*
X72112380Y-113413333D01*
X72112380Y-113508571D01*
X72064761Y-113651428D01*
X71969523Y-113746666D01*
X71874285Y-113794285D01*
X71683809Y-113841904D01*
X71540952Y-113841904D01*
X71350476Y-113794285D01*
X71255238Y-113746666D01*
X71160000Y-113651428D01*
X71112380Y-113508571D01*
X71112380Y-113413333D01*
X71160000Y-113270476D01*
X71207619Y-113222857D01*
X72112380Y-112270476D02*
X72112380Y-112841904D01*
X72112380Y-112556190D02*
X71112380Y-112556190D01*
X71255238Y-112651428D01*
X71350476Y-112746666D01*
X71398095Y-112841904D01*
X71112380Y-111651428D02*
X71112380Y-111556190D01*
X71160000Y-111460952D01*
X71207619Y-111413333D01*
X71302857Y-111365714D01*
X71493333Y-111318095D01*
X71731428Y-111318095D01*
X71921904Y-111365714D01*
X72017142Y-111413333D01*
X72064761Y-111460952D01*
X72112380Y-111556190D01*
X72112380Y-111651428D01*
X72064761Y-111746666D01*
X72017142Y-111794285D01*
X71921904Y-111841904D01*
X71731428Y-111889523D01*
X71493333Y-111889523D01*
X71302857Y-111841904D01*
X71207619Y-111794285D01*
X71160000Y-111746666D01*
X71112380Y-111651428D01*
X72117142Y-107356666D02*
X72164761Y-107404285D01*
X72212380Y-107547142D01*
X72212380Y-107642380D01*
X72164761Y-107785238D01*
X72069523Y-107880476D01*
X71974285Y-107928095D01*
X71783809Y-107975714D01*
X71640952Y-107975714D01*
X71450476Y-107928095D01*
X71355238Y-107880476D01*
X71260000Y-107785238D01*
X71212380Y-107642380D01*
X71212380Y-107547142D01*
X71260000Y-107404285D01*
X71307619Y-107356666D01*
X72212380Y-106880476D02*
X72212380Y-106690000D01*
X72164761Y-106594761D01*
X72117142Y-106547142D01*
X71974285Y-106451904D01*
X71783809Y-106404285D01*
X71402857Y-106404285D01*
X71307619Y-106451904D01*
X71260000Y-106499523D01*
X71212380Y-106594761D01*
X71212380Y-106785238D01*
X71260000Y-106880476D01*
X71307619Y-106928095D01*
X71402857Y-106975714D01*
X71640952Y-106975714D01*
X71736190Y-106928095D01*
X71783809Y-106880476D01*
X71831428Y-106785238D01*
X71831428Y-106594761D01*
X71783809Y-106499523D01*
X71736190Y-106451904D01*
X71640952Y-106404285D01*
X193707142Y-101641666D02*
X193754761Y-101689285D01*
X193802380Y-101832142D01*
X193802380Y-101927380D01*
X193754761Y-102070238D01*
X193659523Y-102165476D01*
X193564285Y-102213095D01*
X193373809Y-102260714D01*
X193230952Y-102260714D01*
X193040476Y-102213095D01*
X192945238Y-102165476D01*
X192850000Y-102070238D01*
X192802380Y-101927380D01*
X192802380Y-101832142D01*
X192850000Y-101689285D01*
X192897619Y-101641666D01*
X193230952Y-101070238D02*
X193183333Y-101165476D01*
X193135714Y-101213095D01*
X193040476Y-101260714D01*
X192992857Y-101260714D01*
X192897619Y-101213095D01*
X192850000Y-101165476D01*
X192802380Y-101070238D01*
X192802380Y-100879761D01*
X192850000Y-100784523D01*
X192897619Y-100736904D01*
X192992857Y-100689285D01*
X193040476Y-100689285D01*
X193135714Y-100736904D01*
X193183333Y-100784523D01*
X193230952Y-100879761D01*
X193230952Y-101070238D01*
X193278571Y-101165476D01*
X193326190Y-101213095D01*
X193421428Y-101260714D01*
X193611904Y-101260714D01*
X193707142Y-101213095D01*
X193754761Y-101165476D01*
X193802380Y-101070238D01*
X193802380Y-100879761D01*
X193754761Y-100784523D01*
X193707142Y-100736904D01*
X193611904Y-100689285D01*
X193421428Y-100689285D01*
X193326190Y-100736904D01*
X193278571Y-100784523D01*
X193230952Y-100879761D01*
X193707142Y-106666666D02*
X193754761Y-106714285D01*
X193802380Y-106857142D01*
X193802380Y-106952380D01*
X193754761Y-107095238D01*
X193659523Y-107190476D01*
X193564285Y-107238095D01*
X193373809Y-107285714D01*
X193230952Y-107285714D01*
X193040476Y-107238095D01*
X192945238Y-107190476D01*
X192850000Y-107095238D01*
X192802380Y-106952380D01*
X192802380Y-106857142D01*
X192850000Y-106714285D01*
X192897619Y-106666666D01*
X192802380Y-106333333D02*
X192802380Y-105666666D01*
X193802380Y-106095238D01*
X67507142Y-107166666D02*
X67554761Y-107214285D01*
X67602380Y-107357142D01*
X67602380Y-107452380D01*
X67554761Y-107595238D01*
X67459523Y-107690476D01*
X67364285Y-107738095D01*
X67173809Y-107785714D01*
X67030952Y-107785714D01*
X66840476Y-107738095D01*
X66745238Y-107690476D01*
X66650000Y-107595238D01*
X66602380Y-107452380D01*
X66602380Y-107357142D01*
X66650000Y-107214285D01*
X66697619Y-107166666D01*
X66602380Y-106309523D02*
X66602380Y-106500000D01*
X66650000Y-106595238D01*
X66697619Y-106642857D01*
X66840476Y-106738095D01*
X67030952Y-106785714D01*
X67411904Y-106785714D01*
X67507142Y-106738095D01*
X67554761Y-106690476D01*
X67602380Y-106595238D01*
X67602380Y-106404761D01*
X67554761Y-106309523D01*
X67507142Y-106261904D01*
X67411904Y-106214285D01*
X67173809Y-106214285D01*
X67078571Y-106261904D01*
X67030952Y-106309523D01*
X66983333Y-106404761D01*
X66983333Y-106595238D01*
X67030952Y-106690476D01*
X67078571Y-106738095D01*
X67173809Y-106785714D01*
X198207142Y-106641666D02*
X198254761Y-106689285D01*
X198302380Y-106832142D01*
X198302380Y-106927380D01*
X198254761Y-107070238D01*
X198159523Y-107165476D01*
X198064285Y-107213095D01*
X197873809Y-107260714D01*
X197730952Y-107260714D01*
X197540476Y-107213095D01*
X197445238Y-107165476D01*
X197350000Y-107070238D01*
X197302380Y-106927380D01*
X197302380Y-106832142D01*
X197350000Y-106689285D01*
X197397619Y-106641666D01*
X197302380Y-105736904D02*
X197302380Y-106213095D01*
X197778571Y-106260714D01*
X197730952Y-106213095D01*
X197683333Y-106117857D01*
X197683333Y-105879761D01*
X197730952Y-105784523D01*
X197778571Y-105736904D01*
X197873809Y-105689285D01*
X198111904Y-105689285D01*
X198207142Y-105736904D01*
X198254761Y-105784523D01*
X198302380Y-105879761D01*
X198302380Y-106117857D01*
X198254761Y-106213095D01*
X198207142Y-106260714D01*
X97957142Y-94866666D02*
X98004761Y-94914285D01*
X98052380Y-95057142D01*
X98052380Y-95152380D01*
X98004761Y-95295238D01*
X97909523Y-95390476D01*
X97814285Y-95438095D01*
X97623809Y-95485714D01*
X97480952Y-95485714D01*
X97290476Y-95438095D01*
X97195238Y-95390476D01*
X97100000Y-95295238D01*
X97052380Y-95152380D01*
X97052380Y-95057142D01*
X97100000Y-94914285D01*
X97147619Y-94866666D01*
X97385714Y-94009523D02*
X98052380Y-94009523D01*
X97004761Y-94247619D02*
X97719047Y-94485714D01*
X97719047Y-93866666D01*
X72033333Y-85457142D02*
X71985714Y-85504761D01*
X71842857Y-85552380D01*
X71747619Y-85552380D01*
X71604761Y-85504761D01*
X71509523Y-85409523D01*
X71461904Y-85314285D01*
X71414285Y-85123809D01*
X71414285Y-84980952D01*
X71461904Y-84790476D01*
X71509523Y-84695238D01*
X71604761Y-84600000D01*
X71747619Y-84552380D01*
X71842857Y-84552380D01*
X71985714Y-84600000D01*
X72033333Y-84647619D01*
X72366666Y-84552380D02*
X72985714Y-84552380D01*
X72652380Y-84933333D01*
X72795238Y-84933333D01*
X72890476Y-84980952D01*
X72938095Y-85028571D01*
X72985714Y-85123809D01*
X72985714Y-85361904D01*
X72938095Y-85457142D01*
X72890476Y-85504761D01*
X72795238Y-85552380D01*
X72509523Y-85552380D01*
X72414285Y-85504761D01*
X72366666Y-85457142D01*
M02*
