M48
; DRILL file {KiCad (5.1.4)-1} date 08.04.2020 10:51:16
; FORMAT={-:-/ absolute / metric / decimal}
; #@! TF.CreationDate,2020-04-08T10:51:16+02:00
; #@! TF.GenerationSoftware,Kicad,Pcbnew,(5.1.4)-1
; #@! TF.FileFunction,Plated,1,2,PTH
FMAT,2
METRIC
T1C0.400
T2C0.700
T3C1.070
T4C1.100
T5C3.100
T6C3.300
%
G90
G05
T1
X63.525Y-108.025
X67.5Y-65.0
X69.0Y-85.0
X70.0Y-115.0
X73.0Y-98.0
X78.0Y-107.0
X78.0Y-111.0
X78.9Y-90.9
X78.9Y-95.0
X82.5Y-87.0
X84.0Y-63.0
X84.0Y-65.0
X84.0Y-79.0
X84.0Y-81.0
X85.1Y-115.0
X87.0Y-63.0
X87.0Y-65.0
X87.0Y-79.0
X87.0Y-81.0
X87.0Y-109.0
X87.5Y-98.1
X88.035Y-106.5
X90.0Y-63.0
X90.0Y-65.0
X90.0Y-79.0
X90.0Y-81.0
X92.9Y-107.9
X93.0Y-63.0
X93.0Y-65.0
X93.0Y-67.0
X93.0Y-69.0
X93.0Y-71.0
X93.0Y-73.0
X93.0Y-75.0
X93.0Y-77.0
X93.0Y-79.0
X93.0Y-81.0
X94.5Y-100.5
X96.0Y-63.0
X96.0Y-65.0
X96.0Y-67.0
X96.0Y-69.0
X96.0Y-71.0
X96.0Y-73.0
X96.0Y-75.0
X96.0Y-77.0
X96.0Y-79.0
X96.0Y-81.0
X96.0Y-115.0
X99.0Y-63.0
X99.0Y-65.0
X99.0Y-67.0
X99.0Y-69.0
X99.0Y-71.0
X99.0Y-73.0
X99.0Y-75.0
X99.0Y-77.0
X99.0Y-79.0
X99.0Y-81.0
X103.5Y-91.5
X110.5Y-91.5
X187.0Y-102.5
X187.0Y-106.5
X192.0Y-115.5
X195.0Y-98.5
X201.1Y-87.6
X201.45Y-105.45
X203.0Y-83.0
X203.0Y-89.0
X210.1Y-80.0
X210.1Y-91.0
T2
X56.0Y-100.0
X210.0Y-100.0
T3
X188.06Y-63.8
X190.6Y-63.8
T5
X55.0Y-65.0
X55.0Y-115.0
X211.0Y-65.0
X211.0Y-115.0
T6
X105.2Y-117.0
X160.7Y-117.0
T4
G00X58.0Y-72.9
M15
G01X58.0Y-75.1
M16
G05
G00X60.2Y-79.0
M15
G01X62.4Y-79.0
M16
G05
G00X64.3Y-72.9
M15
G01X64.3Y-75.1
M16
G05
T0
M30
